<?xml version="1.0" encoding="UTF-8" standalone="no"?>
<!-- Created with Inkscape (http://www.inkscape.org/) -->
<svg
	xmlns:dc="http://purl.org/dc/elements/1.1/"
	xmlns:cc="http://creativecommons.org/ns#"
	xmlns:rdf="http://www.w3.org/1999/02/22-rdf-syntax-ns#"
	xmlns:svg="http://www.w3.org/2000/svg"
	xmlns="http://www.w3.org/2000/svg"
	xmlns:xlink="http://www.w3.org/1999/xlink"
	version="1.0"
	width="128"
	height="128">
	<defs>
		
	</defs>
	<metadata>
		<rdf:RDF>
			<cc:Work rdf:about="">
			<dc:format>image/svg+xml</dc:format>
			<dc:type rdf:resource="http://purl.org/dc/dcmitype/StillImage" />
			<dc:title>Plain ABC 2 Logo</dc:title>
			</cc:Work>
		</rdf:RDF>
	</metadata>
	<g id="layer1">
    <rect width="84" height="40" x="0" y="44" id="rect3917" style="fill:#ffcd0c;fill-opacity:1;stroke:none"/>
    <path d="m 12.96875,60.468752 -7.65625,19.875 3.25,0 1.90625,-4.125 7.25,0 1.71875,4.125 2.96875,0 -7.21875,-19.875 -2.21875,0 z m 11.4375,0 0,19.875 8.21875,0 c 3.699245,0 5.46875,-1.991092 5.46875,-5.6875 0,-1.834857 -1.09739,-4.4375 -2.84375,-4.4375 1.772179,0 2.59375,-2.55217 2.59375,-4.6875 0,-1.714721 -0.602767,-5.0625 -5.03125,-5.0625 l -8.40625,0 z m 24.40625,0 c -6.01779,-0.138844 -7.28125,4.621512 -7.28125,6.8125 l 0,6.46875 c 0,1.619438 0.685843,6.59375 7.03125,6.59375 6.345406,0 6.90625,-5.75 6.90625,-5.75 l 0,-0.03125 -2.90625,0 c -0.368154,1.2689 -1.365256,3.25 -4.03125,3.25 -3.896993,0 -4.3125,-3.858943 -4.3125,-4.3125 l 0,-6.3125 c 0,-0.517576 0.772963,-4.291196 4.46875,-4.1875 2.449739,0.06874 3.445231,1.863217 3.84375,3.09375 l 2.9375,0 c -0.02767,-0.215217 -0.760441,-5.488971 -6.65625,-5.625 z m -21.4375,2.75 5.25,0 c 0,0 2.6875,0.120829 2.6875,2.8125 0,2.691672 -2.625,2.96875 -2.625,2.96875 l -5.3125,0 0,-5.78125 z m -13.5,2.125 3.21875,8.1875 -6.1875,0 2.96875,-8.1875 z m 13.5,6.40625 5.25,0 c 0,0 2.6875,0.120829 2.6875,2.8125 0,2.691672 -2.625,2.96875 -2.625,2.96875 l -5.3125,0 0,-5.78125 z" id="path3105" style="fill:#ffffff;fill-opacity:1;stroke:none"/>
    <path d="M 66.1875,44.000002 C 54.675339,46.295441 55.125,58.531252 55.125,58.531252 l 10.125,0 c 0,0 0.727709,-6.625 4.84375,-6.625 4.11604,0 4.78125,3.821308 4.78125,5.40625 0,6.286619 -12.431263,19.166043 -19.9375,26.6875 l 29.0625,0 0,-8.09375 -9.125,0 c 0,0 5.970059,-6.040077 9.125,-12.5625 l 0,-10.25 c -0.74117,-3.348744 -3.008509,-7.805049 -9.75,-9.09375 l -8.0625,0 z" id="path3902" style="fill:#ffffff;fill-opacity:1;stroke:none"/>
    <rect width="42" height="40" x="-128" y="44" transform="scale(-1,1)" id="rect3969" style="fill:#ffb500;fill-opacity:1;stroke:none"/>
    <g transform="translate(-60,10.687502)" id="g4216">
      <path d="m 178.47297,49.417018 -3.28873,1.11957 -2.93887,4.688193 -3.21876,-5.317951 -3.98846,0.139946 -3.49865,4.828139 -4.19839,-4.968085 c -0.41983,0.279893 -4.26835,4.548247 -4.26835,4.548247 l 3.00884,16.023829 6.01768,-5.108035 5.80777,4.688196 5.80776,-6.157628 5.4579,5.597843 1.81929,-3.358707 0.2799,-13.224904 -2.79893,-3.498653 z m -11.61552,4.338331 3.77854,6.437517 -3.70857,6.367548 -3.21876,-6.367548 3.14879,-6.437517 z m -10.28604,0.97962 0.55978,0.06997 2.0992,5.947709 -2.44906,4.898112 -0.20992,-10.915794 z m 20.22221,0.979624 0.69973,0.139946 0,8.326792 -0.27989,0.839674 -2.589,-4.688193 2.16916,-4.618219 z" id="path6482" style="fill:#ffffff;fill-opacity:1;fill-rule:evenodd;stroke:none"/>
      <path d="m 155.5064,71.074908 c -0.57512,-0.159981 -0.77771,-0.284502 -1.29664,-0.797006 -0.77165,-0.762079 -1.10075,-1.506403 -1.47742,-3.341443 -0.42871,-2.088505 -0.55203,-3.357323 -0.6068,-6.243123 -0.0874,-4.604953 0.28694,-7.767434 1.12059,-9.466834 0.37908,-0.772758 1.1128,-1.524338 1.80348,-1.847364 0.48455,-0.226628 0.67148,-0.258567 1.51332,-0.258567 0.8319,0 1.03142,0.03322 1.49039,0.248061 0.29144,0.136435 0.74629,0.460366 1.01077,0.719845 0.52227,0.512398 1.45466,1.966856 2.04981,3.197532 l 0.37459,0.774623 0.59981,-1.077845 c 1.60042,-2.875958 2.86124,-3.900429 4.81071,-3.908918 1.63304,-0.0071 2.72965,0.580824 3.79655,2.035513 0.41568,0.566749 1.57123,2.45372 1.57123,2.565735 0,0.270657 0.2092,0.139437 0.48756,-0.30582 1.59252,-2.547339 2.4226,-3.533146 3.30146,-3.920857 0.91061,-0.401718 2.31499,-0.46197 3.10211,-0.133092 1.16683,0.487533 2.00994,1.874727 2.47874,4.078335 0.30202,1.419696 0.42302,3.242189 0.42405,6.387196 0.001,3.309636 -0.082,4.703168 -0.39161,6.57101 -0.24541,1.480389 -0.48612,2.282779 -0.91966,3.065698 -0.28309,0.511227 -0.44958,0.681821 -1.04431,1.070066 -0.38915,0.254037 -0.92983,0.515213 -1.20153,0.580391 -0.53659,0.128724 -1.63773,0.08285 -2.22003,-0.09249 -0.43484,-0.130935 -1.56527,-1.138662 -1.94051,-1.729869 -0.1523,-0.239961 -0.35015,-0.544346 -0.43966,-0.676409 -0.0895,-0.13207 -0.39207,-0.67234 -0.67237,-1.200604 -0.2803,-0.528263 -0.54226,-0.996708 -0.58213,-1.040991 -0.0399,-0.04428 -0.29511,0.344716 -0.56721,0.864436 -0.72159,1.378271 -1.65212,2.576561 -2.39034,3.078153 -0.33355,0.226632 -0.64558,0.412062 -0.69339,0.412062 -0.0478,0 -0.26207,0.09128 -0.47611,0.202852 -0.5645,0.294234 -1.82294,0.358685 -2.64718,0.135571 -0.71266,-0.192903 -1.70971,-0.786183 -2.26363,-1.346928 -0.49029,-0.496328 -1.09562,-1.369638 -1.71431,-2.473239 -0.17029,-0.303755 -0.34461,-0.530649 -0.38739,-0.504208 -0.0428,0.02644 -0.19494,0.253352 -0.33813,0.504253 -1.09221,1.913757 -2.227,3.201748 -3.21558,3.649704 -0.57205,0.259214 -1.89018,0.380073 -2.44923,0.224567 z m 2.43867,-3.455424 c -0.34975,-0.406685 -0.46968,-0.473271 -0.46968,-0.260756 0,0.152136 0.66501,0.769649 0.74389,0.690764 0.0283,-0.02826 -0.0951,-0.221765 -0.27421,-0.430008 z m 5.48224,0.30147 c -0.002,-0.03962 -0.22275,-0.309755 -0.49127,-0.600299 -0.48021,-0.519619 -0.4401,-0.33833 0.0797,0.360179 0.21572,0.289865 0.4187,0.408297 0.41156,0.24012 z m 5.29013,-0.495988 c -0.0873,-0.163162 -0.056,-0.190993 0.27889,-0.247569 0.61816,-0.104438 1.57258,-0.983734 2.13383,-1.965863 0.25536,-0.446855 0.46387,-0.922295 0.46336,-1.056527 -0.001,-0.295486 -0.43271,-1.252566 -0.56482,-1.252566 -0.0519,0 -0.31839,0.399801 -0.59223,0.888446 -0.67793,1.209729 -1.08841,1.733538 -1.79549,2.291189 -0.39496,0.31149 -0.6003,0.542318 -0.6003,0.674815 0,0.185774 -0.0353,0.196084 -0.4556,0.133058 l -0.45561,-0.06832 0.19137,0.211462 c 0.27662,0.305662 0.81509,0.566559 1.17944,0.571461 0.28152,0.0038 0.30494,-0.01556 0.21716,-0.179585 z m 11.25121,0.02217 c -0.0693,-0.02775 -0.15218,-0.02434 -0.18409,0.0076 -0.0319,0.03191 0.0248,0.05462 0.12606,0.05045 0.11189,-0.0046 0.13465,-0.02737 0.058,-0.05803 z M 159.0031,66.885192 c 0.42765,-0.386359 1.04826,-1.768437 1.16305,-2.59006 0.0627,-0.449071 -0.0375,-1.012381 -0.17889,-1.005417 -0.0345,0.0017 -0.24098,0.315049 -0.45894,0.696347 -0.21795,0.381295 -0.74742,1.140779 -1.17658,1.687741 -0.42917,0.546962 -0.7803,1.052365 -0.7803,1.123119 0,0.200302 0.3942,0.427677 0.74145,0.427677 0.22512,0 0.42131,-0.09648 0.69021,-0.339407 z m 20.71404,0.08307 c 0.43297,-0.467178 0.55761,-1.147113 0.56394,-3.076205 0.006,-1.92556 -0.0626,-2.202764 -0.40833,-1.64331 -0.10907,0.17647 -0.39503,0.855798 -0.63548,1.509619 -0.60954,1.657437 -0.99471,2.264465 -1.31231,2.068181 -0.34864,-0.215475 0.2989,0.740854 0.77012,1.137364 0.39282,0.330537 0.71848,0.33192 1.02206,0.0043 z M 167.46103,65.19115 c 0.23376,-0.378823 0.49577,-0.821842 0.58225,-0.984491 0.0865,-0.162642 0.2295,-0.425384 0.31783,-0.583861 0.1686,-0.302478 1.10722,-2.536781 1.31592,-3.132408 0.11551,-0.32968 0.0985,-0.396865 -0.33975,-1.344678 -1.16464,-2.518605 -2.19525,-4.503409 -2.3384,-4.503409 -0.22174,0 -1.68874,2.713323 -2.51489,4.651473 -0.38885,0.912232 -0.40025,0.966429 -0.26284,1.248628 0.079,0.162246 0.26125,0.554329 0.40499,0.871285 0.14374,0.31696 0.35958,0.7924 0.47965,1.05653 0.58908,1.295913 1.74488,3.409709 1.86439,3.409709 0.0362,0 0.25708,-0.309948 0.49085,-0.688778 z m -9.80107,-2.120629 c 0.2531,-0.541472 0.62326,-1.392829 0.82258,-1.891911 0.33535,-0.839699 0.35333,-0.93288 0.241,-1.248625 -0.11709,-0.329108 -1.11199,-2.677864 -1.4261,-3.366721 l -0.15328,-0.336168 -0.0626,0.672337 c -0.13524,1.453143 -0.0728,7.155579 0.0784,7.155579 0.0219,0 0.24689,-0.44302 0.49999,-0.984491 z m 19.60133,-0.756579 c 0,-1.70068 -0.15437,-5.296302 -0.24586,-5.726667 -0.061,-0.287039 -0.1594,-0.271603 -0.31091,0.04877 -0.59186,1.251606 -1.28948,2.885707 -1.38601,3.246588 -0.11474,0.429013 -0.10724,0.462026 0.27873,1.226091 0.21816,0.431863 0.49062,1.001311 0.60547,1.265441 0.26549,0.610584 0.89201,1.676963 0.98655,1.679166 0.0396,0.001 0.072,-0.781805 0.072,-1.739394 z M 162.58355,61.633 c -0.0689,-0.06892 -0.11366,-0.07459 -0.11366,-0.01442 0,0.128204 0.11359,0.241792 0.17769,0.177692 0.0273,-0.0273 -0.001,-0.100772 -0.064,-0.163286 z m 17.61328,-0.209282 c 0.0318,-0.126556 0.0156,-0.926246 -0.036,-1.777101 -0.0544,-0.89815 -0.0587,-1.697982 -0.0102,-1.906972 0.046,-0.197985 0.0846,-0.712537 0.0859,-1.14345 0.003,-0.921516 -0.40295,-3.832343 -0.61939,-4.444548 -0.30311,-0.857375 -0.86633,-1.351266 -1.54094,-1.351266 -0.19099,0 -0.42005,-0.03827 -0.50902,-0.08505 -0.20588,-0.108232 -1.55506,-0.18571 -1.49329,-0.08575 0.0254,0.04111 0.13291,0.07475 0.23889,0.07475 0.10598,0 0.41679,0.227262 0.69069,0.505023 0.64071,0.649769 0.98767,1.546225 1.45878,3.769117 0.19033,0.89805 0.45214,2.065032 0.5818,2.593295 0.12966,0.528267 0.27738,1.400967 0.32826,1.939334 0.0985,1.042247 0.25815,1.826169 0.41189,2.022649 0.15049,0.192312 0.35015,0.139075 0.41267,-0.110032 z m -17.87968,-0.783109 c -0.0907,-0.191083 -0.26021,-0.383673 -0.37674,-0.42798 -0.11653,-0.0443 -0.34067,-0.308519 -0.49808,-0.587149 -0.24405,-0.431973 -0.27132,-0.546032 -0.18514,-0.774334 0.16444,-0.43567 -0.15862,-2.097349 -0.55787,-2.869418 -0.17906,-0.346262 -0.42158,-0.951365 -0.53893,-1.344677 -0.46195,-1.548253 -1.88708,-3.548526 -2.52821,-3.548526 -0.26154,0 -0.63703,0.396744 -0.63703,0.67308 0,0.259321 0.3685,1.038461 0.83154,1.758141 0.23154,0.359879 0.59823,1.008202 0.81487,1.440719 0.21663,0.432517 0.74285,1.344688 1.16938,2.027052 0.4852,0.776228 0.78478,1.358368 0.80027,1.555092 0.0308,0.390751 0.3946,1.117615 1.0154,2.028577 0.55862,0.819729 0.78031,0.993762 0.82533,0.647914 0.0165,-0.127086 -0.0441,-0.387405 -0.13479,-0.578491 z m 11.29432,0.194057 c 0,-0.186401 -0.12967,-0.595775 -0.28815,-0.90972 -0.15848,-0.313944 -0.28814,-0.613296 -0.28814,-0.665232 0,-0.05193 -0.10806,-0.202473 -0.24013,-0.33454 -0.13206,-0.132066 -0.24011,-0.306918 -0.24011,-0.388558 0,-0.09313 -0.0869,-0.148438 -0.23325,-0.148438 -0.17184,0 -0.34638,-0.148745 -0.66287,-0.564911 -0.70293,-0.924295 -0.80568,-1.240088 -0.31867,-0.979452 0.1241,0.06642 0.32934,0.106105 0.45608,0.08819 0.36318,-0.05133 0.3477,-0.453299 -0.0446,-1.15858 -0.18444,-0.331569 -0.47047,-0.944817 -0.63562,-1.362766 -0.36949,-0.935035 -0.8237,-1.630457 -1.58395,-2.425118 -0.47494,-0.496442 -0.63854,-0.608873 -0.88601,-0.608873 -0.16692,0 -0.36833,0.06483 -0.44757,0.144073 -0.0792,0.07924 -0.19038,0.14407 -0.24698,0.14407 -0.28634,0 0.0446,0.996757 0.55618,1.674929 0.20169,0.267386 0.55628,0.831822 0.788,1.254301 0.2317,0.422486 0.55344,0.919533 0.71495,1.104554 0.49494,0.566987 0.78196,0.996412 0.84967,1.271252 0.0356,0.14438 0.30856,0.61982 0.60663,1.056529 0.29808,0.43671 0.61688,1.040052 0.70846,1.34076 0.17685,0.580735 0.42008,0.987335 0.89388,1.494279 0.38327,0.41009 0.54221,0.402252 0.54221,-0.02675 z m -9.98901,-0.90972 c -0.067,-0.161864 -0.14351,-0.272691 -0.16992,-0.246277 -0.0264,0.0264 0.007,0.180459 0.0739,0.342326 0.067,0.161868 0.14351,0.272695 0.16993,0.246282 0.0264,-0.0264 -0.007,-0.180463 -0.0739,-0.342331 z m -9.31666,-5.432382 c 0,-0.139402 -0.0416,-0.220098 -0.096,-0.186429 -0.0528,0.03263 -0.096,0.143255 -0.096,0.245786 0,0.102538 0.0432,0.186428 0.096,0.186428 0.0528,0 0.096,-0.110603 0.096,-0.245785 z m 12.39485,-3.541362 c -0.16611,-0.241431 -0.35937,-0.438965 -0.42947,-0.438965 -0.29139,0 -0.73328,0.12744 -0.70749,0.20404 0.03,0.08917 1.3508,0.748967 1.40571,0.702216 0.0183,-0.01559 -0.10264,-0.225857 -0.26875,-0.467291 z" id="path6467" style="fill:#e2e2e2;fill-opacity:1"/>
      <path d="m 177.35734,71.05161 c -0.92712,-0.0996 -1.29581,-0.218381 -1.71955,-0.553988 -0.48688,-0.385625 -1.16788,-1.142586 -1.35343,-1.504414 -0.0789,-0.153922 -0.26263,-0.448424 -0.40821,-0.65445 -0.14558,-0.206026 -0.26468,-0.405673 -0.26468,-0.44366 0,-0.0575 -0.82871,-1.587571 -0.93229,-1.721304 -0.0706,-0.09114 -0.31856,0.270467 -0.73416,1.070609 -0.70734,1.361834 -1.56896,2.453201 -2.31955,2.938066 -0.91434,0.590649 -1.49217,0.800707 -2.35661,0.856711 -1.1343,0.07349 -1.91459,-0.161775 -2.84583,-0.858033 -0.98948,-0.739804 -1.29256,-1.124306 -2.69003,-3.412769 -0.0726,-0.118862 -0.16625,-0.216109 -0.20814,-0.216109 -0.0419,0 -0.23353,0.270134 -0.42585,0.600299 -0.99182,1.702718 -2.35583,3.28496 -3.07355,3.56529 -0.11765,0.04595 -0.3177,0.132397 -0.44455,0.192098 -0.12686,0.0597 -0.66713,0.107599 -1.2006,0.106438 -1.17642,-0.0024 -1.50126,-0.14293 -2.27443,-0.982873 -0.39691,-0.431185 -0.57293,-0.723339 -0.74162,-1.230917 -0.86005,-2.587966 -1.16722,-4.994072 -1.15787,-9.069749 0.007,-3.164874 0.0413,-3.945776 0.22434,-5.138572 0.0324,-0.211307 0.0609,-0.449027 0.0633,-0.528264 0.0118,-0.393807 0.51031,-2.205397 0.72472,-2.633808 0.38974,-0.778747 0.93806,-1.424526 1.48865,-1.753245 0.54508,-0.325418 1.6035,-0.626237 1.99963,-0.568322 0.51055,0.07464 1.18463,0.260656 1.45932,0.402709 0.40712,0.210529 1.44348,1.271599 1.63378,1.672749 0.0881,0.18573 0.27308,0.504012 0.41103,0.707294 0.49377,0.727608 1.11743,2.081931 1.05268,2.285953 -0.0351,0.110573 0.0114,0.359143 0.10673,0.570546 0.21034,0.466435 0.29019,0.432352 0.093,-0.03968 -0.0795,-0.190177 -0.10704,-0.368912 -0.0613,-0.397191 0.0458,-0.02826 0.37628,-0.581665 0.73451,-1.229751 1.35532,-2.452019 2.30631,-3.424876 3.69461,-3.779557 1.10134,-0.281369 2.14937,-0.171031 3.14386,0.330988 0.8956,0.452097 1.64636,1.372818 2.92277,3.584457 0.26881,0.465771 0.49887,0.846858 0.51124,0.846858 0.0362,0 0.72202,-1.048584 0.72202,-1.103969 0,-0.153003 1.13549,-1.736002 1.68837,-2.353764 0.76002,-0.849213 1.14748,-1.110585 1.86448,-1.257743 0.29105,-0.05974 0.6688,-0.150023 0.83944,-0.200636 0.22874,-0.06785 0.49198,-0.04786 1.00206,0.07612 0.98787,0.240103 1.83049,0.964925 2.33269,2.006574 0.37391,0.775542 0.88517,2.81036 0.96531,3.841923 0.0205,0.26413 0.0615,0.717958 0.091,1.008502 0.0595,0.584811 0.0633,6.820426 0.005,7.73187 -0.16466,2.563109 -0.63975,4.612082 -1.31904,5.688719 -0.62335,0.987971 -2.06231,1.674835 -3.24301,1.547994 z m -19.651,-0.638423 c 0.58811,-0.266446 0.53922,-0.348099 -0.0914,-0.152593 -1.09075,0.338175 -2.73289,-0.234354 -2.73289,-0.952818 0,-0.09858 -0.19557,-0.402321 -0.4346,-0.674977 -0.23903,-0.272657 -0.53078,-0.709511 -0.64832,-0.970791 -0.11755,-0.261276 -0.31134,-0.671883 -0.43064,-0.912456 l -0.21692,-0.437405 0.0523,0.505295 c 0.096,0.927506 0.39922,1.691992 0.96788,2.439968 0.94348,1.240976 1.27878,1.441057 2.34314,1.398203 0.48833,-0.01966 0.87209,-0.09775 1.19143,-0.242426 z m 10.76655,-0.06566 c 0.438,-0.150287 0.96397,-0.510129 0.87527,-0.598832 -0.02,-0.02003 -0.31162,0.05867 -0.64795,0.174897 -0.68948,0.238278 -1.87042,0.283469 -2.54743,0.09748 -0.42416,-0.11652 -1.56983,-0.831371 -1.56983,-0.979503 0,-0.04845 0.11241,-0.0881 0.24981,-0.0881 0.22089,0 0.18953,-0.04169 -0.27088,-0.360179 -0.5061,-0.350085 -1.37261,-1.229887 -2.13083,-2.163521 -0.20487,-0.252267 -0.39388,-0.437274 -0.42003,-0.41113 -0.0803,0.08034 0.35848,1.020785 0.86154,1.846373 0.77698,1.275131 1.8633,2.211787 3.00703,2.592747 0.50581,0.168477 1.96131,0.106604 2.5933,-0.110235 z m 10.66627,-0.0563 c 0.25331,-0.130359 0.4797,-0.294385 0.50307,-0.364496 0.0329,-0.09876 -1.6e-4,-0.104651 -0.14681,-0.02616 -0.61403,0.328616 -2.12162,0.311869 -2.83273,-0.03146 -0.38986,-0.188232 -0.80688,-0.503365 -0.74463,-0.56269 0.0256,-0.02441 0.32752,0.01494 0.6709,0.08748 0.34337,0.07253 0.68363,0.132783 0.75613,0.133884 0.24679,0.0038 -0.0773,-0.269534 -0.40259,-0.339514 -0.72484,-0.155922 -1.49327,-0.60519 -2.14935,-1.256632 -0.75725,-0.75191 -1.37098,-1.735056 -2.53102,-4.054486 -0.66983,-1.339303 -0.95582,-1.818609 -0.95582,-1.601926 0,0.03105 0.36296,0.800772 0.80657,1.710523 0.44362,0.909747 0.97612,2.021475 1.18334,2.470498 0.44692,0.968423 1.42307,2.456365 2.03722,3.105311 0.75211,0.794716 1.3482,1.029927 2.51644,0.992945 0.65802,-0.02083 0.92356,-0.07505 1.28928,-0.263252 z M 158.8969,68.165875 c 0.17695,-0.176945 0.13924,-0.253335 -0.14147,-0.286567 -0.1412,-0.01673 -0.26808,-0.07361 -0.28197,-0.126439 -0.0139,-0.05283 0.21027,-0.290546 0.49811,-0.528266 0.36181,-0.298795 0.60972,-0.610106 0.80312,-1.008506 0.50384,-1.037848 0.70408,-1.676363 0.65066,-2.074701 -0.0513,-0.382072 -0.42037,-1.239292 -0.53331,-1.238521 -0.0349,2.37e-4 -0.25212,0.369793 -0.4827,0.821233 -0.39199,0.767481 -1.49855,2.315823 -1.88171,2.632951 -0.15266,0.126353 -0.18907,0.117784 -0.3514,-0.08268 -0.16562,-0.204546 -0.18108,-0.207816 -0.18108,-0.03833 0,0.675088 0.6071,1.753645 1.0993,1.952983 0.29283,0.118597 0.67163,0.107664 0.80245,-0.02317 z m 10.99747,-0.519637 c 0.34829,-0.17523 1.02775,-0.796245 1.02775,-0.939337 0,-0.05199 -0.11886,0.01886 -0.26413,0.157457 -0.24874,0.237293 -0.68271,0.456297 -0.90419,0.456297 -0.0546,0 0.20181,-0.322406 0.56981,-0.716454 0.62011,-0.66401 1.46294,-2.031988 1.46294,-2.374463 0,-0.202061 -0.62228,-1.454916 -0.79276,-1.596095 -0.17715,-0.146693 -0.11768,-0.23079 -0.79844,1.129099 -0.42599,0.850951 -0.67811,1.22029 -1.18011,1.728781 -0.82887,0.839574 -1.37134,1.198565 -1.69021,1.118533 -0.13583,-0.03408 -0.40945,-0.284064 -0.62845,-0.574136 -0.44965,-0.595541 -2.40177,-4.422193 -2.40177,-4.708055 0,-0.116579 0.0336,-0.156662 0.0851,-0.101464 0.0791,0.08481 0.62139,1.266566 1.02855,2.241419 0.0968,0.23172 0.25267,0.518834 0.34643,0.63803 0.0938,0.119192 0.34917,0.556315 0.56757,0.971386 0.46166,0.877355 0.55719,1.011352 0.67093,0.941056 0.1096,-0.06774 0.89434,-1.282735 1.12725,-1.745308 0.10026,-0.19912 0.28081,-0.556535 0.40121,-0.794255 0.51408,-1.014939 0.57536,-1.147873 0.57536,-1.248281 0,-0.05812 0.0887,-0.287276 0.19717,-0.509237 0.35335,-0.723177 0.57728,-1.497608 0.51285,-1.773624 -0.0337,-0.144518 -0.20125,-0.543696 -0.37227,-0.887069 -0.52125,-1.046557 -1.13852,-2.316711 -1.44626,-2.976018 -0.38649,-0.828001 -0.83301,-1.538242 -0.96707,-1.538242 -0.2487,0 -1.33216,1.874342 -2.24573,3.885015 -0.40681,0.895341 -0.77873,1.640466 -0.82648,1.655843 -0.15129,0.04872 -0.78885,-1.422051 -1.04289,-2.405799 -0.2868,-1.110616 -0.28852,-1.128892 -0.0993,-1.056268 0.21697,0.08326 0.41671,-0.131943 0.53576,-0.577224 0.0584,-0.218357 0.24934,-0.540828 0.42434,-0.716602 0.175,-0.175778 0.36845,-0.456717 0.42988,-0.624316 0.2709,-0.739012 0.41191,-0.916246 0.96251,-1.209716 0.30504,-0.162583 0.66743,-0.295607 0.80531,-0.295607 0.13787,0 0.25069,-0.04211 0.25069,-0.09358 0,-0.141244 -0.56505,-0.404427 -0.69918,-0.325652 -0.44408,0.260822 -1.93559,1.662739 -2.20934,2.076643 -0.43023,0.650478 -0.74131,1.23595 -0.74131,1.395181 0,0.226862 -0.45527,-0.192154 -0.68229,-0.627975 -0.49494,-0.950113 -0.23611,-0.106235 0.77351,2.521862 0.94772,2.46696 2.18985,5.084038 3.57327,7.528633 0.70554,1.246728 0.92965,1.495288 1.66618,1.848041 0.67461,0.323098 1.4976,0.373147 1.99776,0.121502 z m -5.79166,-6.808829 c 0,-0.07924 0.017,-0.144073 0.0377,-0.144073 0.0208,0 0.0626,0.06483 0.093,0.144073 0.0304,0.07924 0.0134,0.144071 -0.0377,0.144071 -0.0512,0 -0.093,-0.06483 -0.093,-0.144071 z m 16.09895,6.684367 c 0.39559,-0.241221 0.68208,-0.858945 0.85556,-1.84472 0.16971,-0.964346 0.16992,-1.54144 2.4e-4,-0.687328 -0.15083,0.75926 -0.40005,1.414846 -0.60027,1.578989 -0.13814,0.113247 -0.14774,0.100579 -0.0853,-0.112497 0.11962,-0.408066 0.33931,-5.121422 0.34247,-7.347677 0.004,-2.585643 -0.1125,-4.010386 -0.43467,-5.330671 -0.13534,-0.554676 -0.3127,-1.278363 -0.39412,-1.608187 -0.2755,-1.115973 -0.90419,-1.750633 -1.73911,-1.755628 -0.19631,-10e-4 -0.45753,-0.07954 -0.5805,-0.174136 -0.20969,-0.16131 -0.21325,-0.180573 -0.0573,-0.31002 0.11106,-0.09216 0.37688,-0.134507 0.79987,-0.127447 0.60169,0.01005 0.61906,0.0042 0.3454,-0.115729 -0.36056,-0.158043 -1.1642,-0.170202 -1.59447,-0.02413 -0.39064,0.132624 -1.75644,0.903316 -1.89421,1.068853 -0.075,0.0901 0.0235,0.109316 0.42889,0.08371 0.28942,-0.01828 0.65278,0.01917 0.80748,0.08326 0.41403,0.171499 0.90528,0.764672 1.12943,1.363755 0.27422,0.732936 0.85002,3.365017 1.02014,4.66328 0.078,0.595403 0.22505,1.395001 0.32674,1.776888 0.10168,0.381887 0.23685,1.154021 0.30036,1.715855 0.1202,1.063142 0.0482,1.845133 -0.33857,3.678775 -0.15934,0.755325 -0.54796,1.494809 -0.78557,1.494809 -0.0877,0 -0.3054,-0.140473 -0.48376,-0.312158 l -0.3243,-0.312154 0.12657,0.28814 c 0.42124,0.959028 1.23189,1.90166 1.93449,2.24944 0.49253,0.243803 0.52117,0.244336 0.89445,0.01673 z m -24.39131,-2.530289 c -0.0997,-0.897482 -0.23664,-1.48261 -0.44051,-1.882228 -0.10978,-0.215193 -0.1996,-0.460187 -0.1996,-0.544429 0,-0.08424 -0.08,-0.334488 -0.17779,-0.556105 -0.36269,-0.822025 -0.43733,-1.876455 -0.31546,-4.456239 0.10993,-2.326934 0.21563,-3.554181 0.35197,-4.086768 0.0561,-0.218977 0.0365,-0.264134 -0.1143,-0.264134 -0.52056,0 -0.99305,0.754827 -0.99305,1.586463 0,0.295669 -0.0484,0.729852 -0.10759,0.964853 -0.0867,0.344354 -0.0776,0.546817 0.0472,1.043331 0.15848,0.630908 0.12332,1.21616 -0.0709,1.179994 -0.13522,-0.02516 -0.1315,0.393753 0.0241,2.717111 0.12616,1.88336 0.29309,2.912933 0.58987,3.638065 l 0.18171,0.443977 -0.0573,-0.828958 c -0.0677,-0.978818 6.9e-4,-1.358667 0.23615,-1.313303 0.12621,0.0243 0.19015,0.208384 0.27749,0.798778 0.0624,0.42196 0.11674,0.933414 0.12071,1.136569 0.009,0.454651 0.27395,0.927275 0.52006,0.927275 0.16418,0 0.17744,-0.05254 0.12727,-0.504252 z m 12.99916,-0.408204 0.2053,-0.384193 -0.22293,0.262822 c -0.12262,0.144556 -0.32407,0.447106 -0.44768,0.672337 l -0.22475,0.409515 0.24238,-0.288147 c 0.1333,-0.158477 0.33476,-0.461031 0.44768,-0.672334 z m -11.09859,0.228061 c 0.13893,-0.165117 0.22877,-0.324044 0.19963,-0.353181 -0.0611,-0.06112 -0.62726,0.458122 -0.62726,0.575304 0,0.162841 0.18422,0.06716 0.42763,-0.222123 z m 7.29714,0.215647 c 0.077,-0.124631 -0.28062,-1.152086 -0.85654,-2.460718 -0.27899,-0.633917 -0.7336,-1.682787 -1.01024,-2.330821 -0.27665,-0.648034 -0.54823,-1.206201 -0.60351,-1.24037 -0.0631,-0.03902 -0.0765,3.44e-4 -0.036,0.106101 0.12683,0.330526 0.18499,0.919816 0.0908,0.919816 -0.15119,0 -0.72921,-0.970023 -0.8585,-1.440723 -0.43011,-1.565915 -0.6226,-2.147848 -0.92134,-2.78539 -0.18566,-0.3962 -0.40939,-0.971562 -0.49718,-1.27858 -0.17058,-0.596484 -1.03642,-2.185945 -1.59385,-2.925907 -0.63666,-0.845113 -1.27368,-1.130879 -1.81822,-0.81565 -0.28008,0.162136 -0.35023,0.267252 -0.39507,0.591964 -0.0406,0.294196 -0.009,0.462056 0.12514,0.658619 0.0988,0.145089 0.3292,0.555544 0.51196,0.912123 0.18276,0.356578 0.37551,0.648322 0.42833,0.648322 0.14561,0 0.74691,0.988068 0.97981,1.61005 0.11348,0.303067 0.35778,0.788751 0.54288,1.079298 0.1851,0.290543 0.60982,1.083463 0.94382,1.762034 0.7073,1.436981 1.69655,3.251249 1.99822,3.664682 0.11564,0.158477 0.2852,0.482641 0.37681,0.720358 0.23118,0.599944 0.78295,1.287389 1.64151,2.045159 0.73094,0.645132 0.85369,0.717356 0.95117,0.559633 z m 13.31436,-0.937895 c 0.1191,-0.36086 0.0398,-1.077366 -0.1034,-0.934174 -0.12927,0.129271 -0.40147,1.270222 -0.33045,1.385132 0.0955,0.154576 0.30632,-0.06452 0.43385,-0.450958 z m -20.76834,-0.562343 c 0.48219,-0.934501 0.85026,-1.775817 1.12164,-2.563793 l 0.25447,-0.738882 -0.35675,-0.893936 c -0.19621,-0.491664 -0.50453,-1.239709 -0.68515,-1.662322 -0.32457,-0.759409 -0.37822,-0.887912 -0.59664,-1.429122 -0.26564,-0.658241 -0.31535,-0.03036 -0.31085,3.926374 0.002,1.531967 0.003,3.109555 0.003,3.505755 -1.5e-4,0.83922 0.0723,0.820906 0.57024,-0.144074 z m 19.70062,0.584233 c 0.19016,-0.229135 0.0177,-7.07614 -0.19445,-7.7189 -0.0852,-0.258026 -0.13032,-0.296712 -0.24007,-0.20563 -0.0743,0.06171 -0.13517,0.156756 -0.13517,0.211221 0,0.05447 -0.10366,0.319311 -0.23034,0.588542 -0.92947,1.975248 -1.11434,2.385662 -1.11434,2.473762 0,0.05487 -0.0712,0.249782 -0.15819,0.433123 l -0.15818,0.33336 0.44633,0.854035 c 0.24548,0.469723 0.44633,0.916154 0.44633,0.992072 0,0.182914 0.52805,1.202617 0.76988,1.486696 0.10516,0.123533 0.21737,0.328836 0.24934,0.456228 0.0663,0.264143 0.15648,0.291149 0.31886,0.09549 z m -1.84997,-0.405907 c -0.0312,-0.19247 -0.14495,-0.443781 -0.25269,-0.558467 -0.10775,-0.114693 -0.19619,-0.292185 -0.19653,-0.394434 -3.5e-4,-0.102245 -0.15318,-0.791009 -0.33962,-1.530579 -0.44078,-1.748512 -0.76302,-2.593464 -1.83222,-4.804266 -0.37798,-0.78157 -0.6648,-1.272556 -0.68623,-1.174724 -0.0889,0.405646 -0.39968,0.021 -0.87314,-1.080544 -0.32796,-0.76305 -1.26909,-2.097053 -1.9312,-2.737368 -0.37996,-0.367446 -0.42533,-0.384593 -1.04096,-0.393347 -0.7873,-0.01119 -1.12986,-0.14207 -1.34274,-0.512989 -0.18789,-0.32738 -0.37824,-0.398245 -0.85981,-0.3201 -0.31659,0.05138 -0.33997,0.03919 -0.29017,-0.15124 0.0671,-0.256712 -0.0251,-0.259417 -0.5046,-0.0148 -0.64684,0.329999 -2.12109,1.752147 -1.97145,1.901791 0.0236,0.02358 0.1801,-0.07266 0.34787,-0.213824 0.80884,-0.680595 1.75615,-0.861822 2.5365,-0.48524 0.79084,0.381646 2.08386,2.038735 2.80675,3.597046 0.746,1.608102 0.73436,1.58931 0.96832,1.564005 0.1675,-0.01811 0.28991,0.09739 0.55986,0.528263 0.19001,0.303297 0.55193,0.875613 0.80425,1.271813 0.25232,0.396196 0.5295,0.936466 0.61594,1.2006 0.0865,0.264133 0.33967,0.764351 0.56271,1.111597 0.22304,0.347246 0.5352,0.838655 0.69368,1.092018 0.15848,0.253362 0.50425,0.707497 0.76838,1.00919 0.26414,0.301693 0.64448,0.750358 0.8452,0.997028 0.45636,0.560811 0.6931,0.598939 0.6119,0.09856 z m -5.5748,-2.099287 c 0.13301,-0.29055 0.22581,-0.603906 0.20623,-0.696351 -0.0217,-0.102411 -0.11504,0.03831 -0.23889,0.360182 -0.1118,0.290544 -0.23324,0.603903 -0.26985,0.696351 -0.0366,0.09244 -0.0379,0.168081 -0.003,0.168081 0.035,0 0.17245,-0.23772 0.30547,-0.528263 z m 5.03016,-2.022677 c 0,-0.07612 -0.0648,-0.138404 -0.14407,-0.138404 -0.16159,0 -0.16813,0.01763 -0.086,0.231713 0.0675,0.175833 0.23005,0.109891 0.23005,-0.09331 z m -12.53058,-1.246652 c -0.0925,-0.242106 -0.19138,-0.41692 -0.21983,-0.388475 -0.0284,0.02843 0.0239,0.249806 0.1164,0.491911 0.0925,0.242106 0.19138,0.41692 0.21982,0.388476 0.0284,-0.02843 -0.0239,-0.249806 -0.11639,-0.491912 z m 11.7737,-1.276301 c -0.0207,-0.07008 -0.13384,-0.163968 -0.25134,-0.208643 -0.18931,-0.07197 -0.5776,-0.645689 -1.00137,-1.479535 -0.0779,-0.153355 -0.15843,-0.228632 -0.17887,-0.167282 -0.041,0.122985 0.48141,1.397087 1.02381,2.496953 l 0.34824,0.706172 0.0486,-0.610123 c 0.0267,-0.33557 0.0316,-0.667463 0.0109,-0.737542 z m 1.90946,-0.95888 c 0,-0.234041 -0.005,-0.23572 -0.1921,-0.06628 -0.10565,0.09561 -0.19209,0.281899 -0.19209,0.413962 0,0.234037 0.005,0.235717 0.19209,0.06628 0.10565,-0.09562 0.1921,-0.281899 0.1921,-0.413962 z M 156.22676,55.87172 c 0,-0.155155 -0.0284,-0.1829 -0.10688,-0.104414 -0.0588,0.05879 -0.0778,0.153874 -0.0424,0.211307 0.0994,0.160752 0.14924,0.12502 0.14924,-0.106893 z m 9.31667,-0.871585 c 0,-0.193664 -0.2422,0.01136 -0.26696,0.225985 -0.026,0.225245 -0.0222,0.226704 0.12006,0.04615 0.0808,-0.102541 0.1469,-0.225 0.1469,-0.272137 z m 9.83079,-0.924288 c 0.30918,-0.205564 0.73059,-0.449708 0.93647,-0.542545 0.20587,-0.09284 0.37432,-0.205451 0.37432,-0.250257 0,-0.137664 -0.37545,-0.465654 -0.53304,-0.465654 -0.58317,0 -1.70028,1.08484 -1.54196,1.497416 0.0752,0.195909 0.14117,0.175275 0.76421,-0.23896 z m -14.66903,0.01418 c -0.0268,-0.09245 -0.0962,-0.351776 -0.15424,-0.576288 -0.058,-0.224515 -0.14401,-0.408203 -0.19112,-0.408203 -0.0853,0 -0.0338,0.228009 0.18992,0.840421 0.11864,0.324815 0.24073,0.43798 0.15544,0.14407 z m 20.16791,-0.766382 c -0.0319,-0.03191 -0.0546,0.02482 -0.0504,0.126063 0.005,0.111891 0.0274,0.134648 0.058,0.05803 0.0277,-0.06934 0.0243,-0.152177 -0.008,-0.184091 z m -0.0858,-0.881919 c -0.0326,-0.389188 -0.14194,-0.836208 -0.26423,-1.080541 -0.21858,-0.436692 -0.83141,-1.137092 -0.99494,-1.137092 -0.0525,0 0.0401,0.14047 0.20564,0.312155 0.3331,0.345404 0.65363,1.021793 0.74918,1.5809 0.0715,0.418434 0.2545,0.988388 0.31734,0.988388 0.0235,0 0.0176,-0.298716 -0.013,-0.66381 z M 160.11123,52.21709 c -0.11662,-0.379177 -0.27022,-0.62044 -0.80989,-1.272105 -0.56772,-0.685549 -1.18672,-1.125061 -1.8275,-1.297603 -0.43994,-0.118462 -0.64371,-0.05763 -0.27588,0.08237 1.00452,0.382314 1.70949,0.877644 1.97223,1.385735 0.49342,0.954157 1.12202,1.690012 0.94104,1.101604 z m 9.83287,-1.235313 c -0.40844,-0.72673 -1.27532,-1.233719 -2.35963,-1.380013 -0.30364,-0.04097 -0.50425,-0.03157 -0.50425,0.02365 0,0.05042 0.22108,0.117864 0.49129,0.149867 0.68891,0.08159 1.26554,0.388606 1.94744,1.036871 0.32273,0.306805 0.60035,0.559334 0.61694,0.561172 0.0166,0.0017 -0.0697,-0.174353 -0.19179,-0.391546 z m -14.13434,-0.110648 c -0.0131,-0.225221 -0.0524,-0.455732 -0.0873,-0.512253 -0.0975,-0.157822 -0.58709,-0.04696 -0.89778,0.203317 l -0.27874,0.224536 0.52827,0.241413 c 0.72749,0.332458 0.76354,0.324764 0.73555,-0.157013 z" id="path6465" style="fill:#9c9c9c;fill-opacity:1"/>
      <path d="m 177.11463,70.878627 c 0.0312,-0.05052 0.12022,-0.06751 0.19776,-0.03775 0.19854,0.07619 0.17515,0.129602 -0.0568,0.129602 -0.10877,0 -0.17221,-0.04134 -0.14099,-0.09185 z m 0.57888,-0.0042 c 0.0326,-0.05283 0.16741,-0.09605 0.29948,-0.09605 0.13562,0 0.21429,0.0418 0.18076,0.09605 -0.0327,0.05283 -0.16742,0.09605 -0.29948,0.09605 -0.13562,0 -0.21429,-0.0418 -0.18076,-0.09605 z m -21.5353,-0.778889 c -0.17967,-0.05194 -0.41925,-0.238997 -0.57323,-0.447567 -0.14551,-0.197086 -0.471,-0.552835 -0.7233,-0.790555 -0.25231,-0.237717 -0.61135,-0.690819 -0.79788,-1.006887 -0.39942,-0.676802 -0.96121,-2.352247 -1.1007,-3.282665 -0.19876,-1.3256 -0.38616,-4.052249 -0.38616,-5.618326 0,-1.108898 -0.0441,-1.777714 -0.14189,-2.153246 -0.12529,-0.481047 -0.12513,-0.67528 0.001,-1.661516 0.25677,-2.001513 0.48777,-2.953488 0.90804,-3.741984 0.39196,-0.735398 1.36139,-1.744991 1.67556,-1.744991 0.0544,0 -0.12413,0.195083 -0.39669,0.433515 -0.43294,0.37872 -0.89383,0.963965 -0.89383,1.134992 0,0.03139 0.27911,0.03102 0.62024,-6.88e-4 0.55543,-0.05187 0.67698,-0.02923 1.16309,0.216735 0.71449,0.361497 1.08151,0.809956 1.77317,2.166592 0.31522,0.618281 1.0059,1.916166 1.53484,2.884186 0.52895,0.968016 1.03407,1.954776 1.12251,2.192792 0.29349,0.789949 1.8524,3.598805 2.40982,4.342027 0.30191,0.402541 0.84818,1.081966 1.21393,1.509832 0.695,0.813013 2.58277,2.600917 2.74619,2.600917 0.22344,0 0.0434,-0.470101 -0.76147,-1.987675 -0.83101,-1.566962 -1.15968,-2.319106 -0.83962,-1.921368 0.0766,0.09515 0.53359,0.922994 1.01559,1.839656 0.96627,1.837625 1.27803,2.207787 2.20456,2.617543 0.45008,0.199045 0.65504,0.233015 1.23057,0.203954 0.58118,-0.02936 0.75596,-0.08085 1.10357,-0.325156 0.49852,-0.350368 1.03085,-1.035611 1.42241,-1.830981 0.32769,-0.665625 0.37585,-0.900071 0.14566,-0.709033 -0.18062,0.149902 -0.18101,0.08224 -0.002,-0.346165 0.0781,-0.186997 0.18028,-0.316375 0.22699,-0.287507 0.0873,0.05393 0.82196,1.519315 0.98653,1.967674 0.092,0.25075 0.092,0.250743 -0.1349,-0.02792 -0.34574,-0.4246 -0.65013,-0.303917 -0.87657,0.347528 -0.20727,0.596298 -0.531,1.193178 -0.99399,1.832654 -0.53116,0.733622 -0.46869,0.453388 0.11462,-0.514187 0.2944,-0.488335 0.53526,-0.907276 0.53526,-0.930987 0,-0.02372 -0.19106,0.209699 -0.42459,0.518687 -0.48373,0.640027 -0.95212,1.10294 -1.63267,1.613554 -0.43524,0.326564 -0.50793,0.349618 -0.92256,0.292588 -0.31295,-0.04304 -0.56034,-0.01584 -0.8119,0.08927 -0.64525,0.2696 -1.52572,0.140349 -1.86976,-0.274474 -0.0763,-0.09199 -0.46529,-0.333243 -0.86443,-0.536109 -0.89494,-0.454858 -1.57098,-1.044247 -2.30738,-2.011626 -0.60812,-0.798858 -1.46911,-2.206937 -1.58822,-2.597409 -0.11442,-0.375095 -0.87652,-1.927068 -1.15553,-2.353175 -0.13836,-0.211311 -0.22327,-0.297752 -0.18867,-0.192099 0.53547,1.635307 0.73189,2.112234 1.81465,4.406204 0.29609,0.627314 0.53835,1.180941 0.53835,1.230284 0,0.172976 -0.19666,-0.03429 -0.38752,-0.408383 -0.10597,-0.207723 -0.25465,-0.377676 -0.33039,-0.377676 -0.14971,0 -0.81886,0.821236 -0.81886,1.00497 0,0.145457 -0.75221,1.156111 -0.86048,1.156111 -0.0452,0 -0.3563,0.218366 -0.69138,0.485257 -0.80936,0.644678 -1.06623,0.798923 -1.60043,0.961042 -0.50544,0.153389 -0.97418,0.163854 -1.43052,0.03195 z m 2.85107,-1.860944 c 0.3411,-0.176391 0.9102,-0.859309 1.10539,-1.32647 0.17131,-0.409984 0.18054,-0.484525 0.0501,-0.403884 -0.15417,0.09529 -0.11277,-0.110107 0.14622,-0.725439 0.36014,-0.855664 0.39382,-1.303028 0.15266,-2.027726 -0.11244,-0.337876 -0.3171,-0.780118 -0.45479,-0.982757 l -0.25036,-0.368433 -0.60973,1.23577 c -0.42531,0.861981 -0.77291,1.417343 -1.14921,1.836069 -0.60813,0.676688 -0.81228,0.752152 -0.81228,0.300251 0,-0.233393 0.0922,-0.381232 0.41521,-0.665524 0.47493,-0.418046 0.88267,-1.134335 1.37491,-2.415328 0.40196,-1.046017 0.47652,-1.374615 0.33218,-1.463821 -0.0579,-0.03579 -0.10529,-0.143668 -0.10529,-0.239734 0,-0.09607 -0.0658,-0.229283 -0.14624,-0.296037 -0.086,-0.07135 -0.1224,-0.19648 -0.0884,-0.303607 0.0318,-0.100235 -0.0309,-0.407488 -0.13939,-0.682792 -0.33951,-0.861657 -0.66241,-1.739479 -0.73176,-1.989289 -0.0648,-0.233375 -0.0624,-0.234725 0.0843,-0.04803 0.083,0.105654 0.15233,0.164959 0.15401,0.131792 0.005,-0.0956 -0.27594,-0.772108 -0.47328,-1.140297 -0.0991,-0.18489 -0.38141,-0.807842 -0.62737,-1.38434 -0.67603,-1.584532 -1.44745,-2.681661 -2.0656,-2.937705 -0.47873,-0.198291 -1.08987,-0.04919 -1.44193,0.35178 -0.35449,0.403739 -0.48086,0.701397 -0.4751,1.119088 l 0.004,0.305907 0.12417,-0.347477 c 0.20562,-0.575403 0.52479,-1.015731 0.827,-1.140906 0.53148,-0.220147 0.80179,0.118507 0.33744,0.422758 -0.30841,0.202085 -0.8168,1.207351 -0.81682,1.615162 -1e-5,0.173189 -0.0648,0.653662 -0.14407,1.067714 -0.16981,0.887409 -0.18086,2.035444 -0.0436,4.529386 0.1139,2.069152 0.24605,2.808863 0.77675,4.347976 0.43956,1.274772 0.77351,1.848675 1.33368,2.291949 0.46048,0.364393 0.5895,0.391329 0.81143,0.169392 0.1301,-0.130097 0.14543,-0.308984 0.0968,-1.128565 -0.0318,-0.535674 -0.12168,-1.501718 -0.1997,-2.146757 -0.19351,-1.600022 -0.23123,-6.681027 -0.0553,-7.446873 0.0697,-0.3034 0.0992,-0.638367 0.0656,-0.744372 -0.073,-0.230071 -0.29231,-0.253992 -0.37412,-0.04081 -0.0922,0.240263 -0.068,3.173785 0.0443,5.36393 0.0666,1.299806 0.0698,2.034071 0.009,2.094884 -0.17919,0.179189 -0.39849,-0.365177 -0.53449,-1.326735 -0.0742,-0.524336 -0.23016,-1.450386 -0.34666,-2.057889 -0.189,-0.985486 -0.20502,-1.285744 -0.14862,-2.785397 0.0624,-1.659327 0.19026,-2.776099 0.35387,-3.091048 0.11658,-0.224415 0.44773,-0.311249 0.62523,-0.163943 0.0812,0.06741 0.2672,0.362726 0.41327,0.656261 0.14607,0.293534 0.36177,0.722106 0.47933,0.952387 0.18338,0.359216 0.19748,0.457946 0.0993,0.695023 -0.0703,0.169815 -0.0894,0.443704 -0.0494,0.710523 0.0724,0.482614 -0.0979,1.105232 -0.30231,1.105232 -0.0913,0 -0.12127,0.173909 -0.1117,0.648323 0.007,0.356578 0.0309,0.54027 0.0527,0.408204 0.12236,-0.740954 0.18093,-0.281521 0.23876,1.872937 0.0354,1.320663 0.0692,2.524788 0.0751,2.675836 0.006,0.151055 -0.0396,0.335146 -0.10097,0.409098 -0.19618,0.236385 -0.051,2.572469 0.19898,3.200716 0.48969,1.230948 1.23083,1.71003 2.01671,1.303637 z m -2.01413,-3.454071 c 0,-0.103453 0.73303,-1.288931 1.01282,-1.637967 0.16939,-0.211303 0.44219,-0.600298 0.60623,-0.864432 0.33643,-0.541702 0.3816,-0.492831 0.13315,0.144071 -0.42238,1.082822 -1.30944,2.401203 -1.61561,2.401203 -0.0751,0 -0.13659,-0.01928 -0.13659,-0.04287 z m 3.53594,-3.483868 c -0.0472,-0.305414 -0.21144,-0.825433 -0.36507,-1.155601 -0.28905,-0.621176 -0.52942,-0.809402 -0.42931,-0.336168 0.0307,0.145275 0.0782,0.372189 0.10544,0.504252 0.0854,0.413701 0.62517,1.635228 0.70172,1.587922 0.0401,-0.02482 0.0344,-0.294987 -0.0128,-0.600405 z m 17.17763,8.193882 c -0.18587,-0.185867 -0.45983,-0.364702 -0.60879,-0.397405 -1.54583,-0.339369 -2.6766,-1.419035 -3.7677,-3.597397 -0.25136,-0.50185 -0.64794,-1.283875 -0.88129,-1.737824 -0.23335,-0.453952 -0.50063,-0.999087 -0.59395,-1.211409 -0.0933,-0.212326 -0.45682,-0.83501 -0.80775,-1.383745 -0.35092,-0.548728 -1.2637,-2.251119 -2.02838,-3.783086 -1.7722,-3.550433 -2.02163,-3.93444 -3.03562,-4.673462 -0.43889,-0.319883 -1.03513,-0.365099 -1.55586,-0.117998 -0.38531,0.182842 -0.4232,0.325229 -0.0866,0.325229 0.13206,0 0.24012,0.04096 0.24012,0.09102 0,0.05006 -0.35658,0.475092 -0.7924,0.944508 -0.43582,0.469419 -0.94367,1.097845 -1.12857,1.396502 -0.18489,0.298653 -0.37078,0.543561 -0.4131,0.544232 -0.0423,6.89e-4 -0.13891,-0.147096 -0.21465,-0.328378 -0.0757,-0.181279 -0.17784,-0.354392 -0.22686,-0.384696 -0.049,-0.03029 -0.11588,-0.216948 -0.14856,-0.414771 -0.0494,-0.29929 0.006,-0.486518 0.32862,-1.115154 0.42915,-0.835557 0.77141,-1.293282 0.92801,-1.241082 0.0564,0.01879 0.32084,-0.162026 0.58759,-0.401856 0.8805,-0.791646 1.75608,-1.009868 2.56866,-0.640192 0.21131,0.09613 0.63217,0.442831 0.93526,0.770441 0.66942,0.723587 1.84286,2.676336 2.19988,3.660865 0.14368,0.396193 0.37228,0.998687 0.50802,1.33887 0.13574,0.340182 0.24679,0.69929 0.24679,0.798018 0,0.311593 1.25784,3.120931 1.49864,3.347147 0.28786,0.270429 0.29882,0.132242 0.0467,-0.588915 -0.22997,-0.657834 -0.36467,-1.528117 -0.21474,-1.387407 0.0574,0.05391 0.38654,0.572567 0.73134,1.152576 0.87773,1.476489 2.33842,3.621542 2.99726,4.401539 0.3055,0.361694 0.91632,0.918129 1.35736,1.236521 1.17291,0.846738 1.41585,0.796738 0.82075,-0.168917 -0.62522,-1.014502 -1.0123,-1.79885 -1.39227,-2.821115 -0.2044,-0.549912 -0.35453,-1.016946 -0.33363,-1.037844 0.0462,-0.04622 0.66534,1.09223 1.58636,2.917029 0.58964,1.168259 0.77145,1.439325 1.29186,1.926149 1.07031,1.001218 1.59235,1.098266 2.21291,0.411381 0.37331,-0.413212 0.56271,-0.952708 0.7498,-2.135817 0.14186,-0.89701 0.17967,-8.737391 0.0512,-10.620814 -0.0408,-0.59814 -0.0373,-1.064736 0.008,-1.036881 0.26247,0.162215 0.62294,4.002903 0.60506,6.446568 -0.008,1.089349 -0.15494,3.911059 -0.25013,4.802404 -0.0226,0.211306 -0.0666,0.643524 -0.098,0.96048 -0.12071,1.221688 -0.67203,3.025516 -0.92471,3.025516 -0.0555,0 -0.29723,0.172887 -0.53729,0.38419 -0.44072,0.387938 -0.63702,0.463801 -0.74559,0.288147 -0.14528,-0.235066 -0.73275,-0.03009 -0.68818,0.240119 0.009,0.05283 -0.14241,0.109234 -0.33584,0.125354 -0.29432,0.02451 -0.40682,-0.02582 -0.68963,-0.308643 z m -7.4724,-0.123519 c 0.12245,-0.233465 0.30161,-0.377219 0.30161,-0.242009 0,0.04776 -0.0927,0.169165 -0.20607,0.269799 -0.20464,0.181699 -0.20531,0.181506 -0.0955,-0.02778 z M 159.6845,68.868753 c 0,-0.05282 0.0432,-0.122755 0.096,-0.155406 0.0528,-0.03267 0.096,-0.01614 0.096,0.03669 0,0.05283 -0.0432,0.122758 -0.096,0.155405 -0.0528,0.03267 -0.096,0.01615 -0.096,-0.03669 z m 7.47111,-2.560792 c -0.0802,-0.08075 0.0207,-0.288623 0.47586,-0.980309 0.31295,-0.475557 0.50526,-0.62948 0.50526,-0.404414 0,0.05491 -0.15064,0.323521 -0.33476,0.596915 -0.62342,0.925723 0.0283,0.766351 0.72554,-0.177413 0.52946,-0.716709 1.26082,-2.149897 1.62513,-3.184674 0.17204,-0.488645 0.35126,-0.888446 0.39828,-0.888446 0.073,0 0.5633,0.984729 0.5633,1.131391 0,0.02802 -0.0802,-0.02165 -0.17833,-0.110424 -0.21437,-0.194002 -0.28824,-0.122628 -0.5338,0.515802 -0.23102,0.600608 -0.94986,1.942149 -1.25511,2.342356 -0.55103,0.72243 -1.73851,1.413693 -1.99137,1.159216 z m 10.73343,-0.998753 c -0.0478,-0.07738 0.0344,-0.231772 0.22472,-0.422122 0.22528,-0.225289 0.30011,-0.259999 0.30011,-0.139233 0,0.249076 -0.43215,0.711304 -0.52483,0.561355 z m -0.58291,-0.587022 c -0.0379,-0.06125 -0.0232,-0.268832 0.0327,-0.461298 0.2177,-0.750665 0.33264,-1.759435 0.37367,-3.279412 0.048,-1.777332 -0.029,-3.012259 -0.18201,-2.917732 -0.13419,0.08293 -0.26591,-0.147326 -0.26769,-0.467963 -0.002,-0.317758 0.15725,-0.351432 0.2268,-0.04802 0.0273,0.118858 0.031,-0.324162 0.008,-0.984492 -0.0562,-1.634094 -0.40165,-3.292317 -0.80945,-3.885038 -0.53249,-0.773946 -1.20659,-0.941462 -1.75474,-0.436063 l -0.31368,0.289204 0.27582,-0.09917 c 0.19742,-0.07099 0.31344,-0.06795 0.4082,0.0107 0.19517,0.161971 0.17574,0.209651 -0.33502,0.822328 -0.51873,0.622237 -1.41071,1.955224 -1.50306,2.246204 -0.0899,0.283339 -0.31427,0.225042 -0.48003,-0.124748 -0.0814,-0.171685 -0.2131,-0.42021 -0.29276,-0.552274 -0.20693,-0.343094 -0.11222,-0.77095 0.28619,-1.292907 0.18921,-0.247868 0.34401,-0.48827 0.34401,-0.534218 0,-0.12931 0.67503,-1.267978 0.89716,-1.513378 0.109,-0.120418 0.25433,-0.197389 0.32296,-0.171055 0.0686,0.02633 0.28681,-0.0628 0.48485,-0.198067 0.30086,-0.205503 0.44184,-0.239345 0.85739,-0.205806 0.9694,0.07824 1.3528,0.594095 1.8036,2.426684 0.82881,3.36924 0.9677,5.434813 0.53279,7.923965 -0.0508,0.290544 -0.13921,0.87404 -0.19655,1.29665 -0.0573,0.422609 -0.17795,1.089225 -0.26801,1.48136 -0.15776,0.686898 -0.30644,0.909082 -0.45138,0.674557 z m -24.9137,-1.283482 c -0.004,-0.10125 0.0185,-0.157977 0.0504,-0.126063 0.0319,0.03191 0.0353,0.114759 0.008,0.184095 -0.0307,0.07662 -0.0534,0.05386 -0.058,-0.05803 z m 26.26486,-1.328663 c -0.0266,-0.118858 -0.0103,-0.367384 0.0364,-0.552274 0.0793,-0.314757 0.0854,-0.30099 0.0946,0.216106 0.0102,0.569812 -0.0462,0.714547 -0.13094,0.336168 z m -26.34977,-0.216109 c -0.002,-0.15848 0.018,-0.234938 0.0443,-0.169908 0.0263,0.06503 0.0279,0.194687 0.004,0.28814 -0.0244,0.09345 -0.0459,0.04025 -0.0478,-0.118232 z m 11.55157,-2.166743 c -0.0404,-0.06541 0.0147,-0.294963 0.1232,-0.512621 1.43665,-2.88314 1.78763,-3.648169 1.68888,-3.681168 -0.0827,-0.02764 -0.0735,-0.151557 0.0348,-0.469529 0.0809,-0.237586 0.12371,-0.455457 0.095,-0.484156 -0.0805,-0.08052 -0.63621,0.277699 -0.68806,0.443553 -0.0253,0.08101 -0.0555,0.406627 -0.0669,0.723587 -0.0126,0.347115 -0.11005,0.786365 -0.24514,1.104554 -0.3218,0.757942 -1.11862,2.305155 -1.18717,2.305155 -0.0796,0 -0.35279,-0.655762 -0.42018,-1.008506 -0.0406,-0.212752 0.0362,-0.476627 0.29373,-1.008505 0.19183,-0.396196 0.42864,-0.948945 0.52624,-1.228328 0.0976,-0.27938 0.26658,-0.633104 0.37548,-0.786049 0.10891,-0.152948 0.26252,-0.460903 0.34136,-0.684344 0.18788,-0.532521 0.27956,-0.632715 0.8377,-0.915547 0.46487,-0.235569 0.47149,-0.236078 0.77409,-0.05935 0.16787,0.09804 0.40341,0.323983 0.52344,0.502094 l 0.21824,0.323838 -0.22955,0.247256 c -0.56906,0.612966 -1.38729,2.042226 -2.17601,3.801034 -0.66153,1.475154 -0.71194,1.560514 -0.81915,1.387036 z m 13.52054,-0.378531 c 0,-0.184889 0.0198,-0.260529 0.0439,-0.168084 0.0242,0.09244 0.0242,0.243724 0,0.336169 -0.0242,0.09245 -0.0439,0.0168 -0.0439,-0.168085 z m -2.42202,-0.835901 c -0.003,-0.252704 0.64718,-1.428905 0.73923,-1.336852 0.0221,0.02213 -0.0905,0.293156 -0.25021,0.602253 -0.36041,0.697311 -0.48707,0.887582 -0.48902,0.734599 z m -0.61742,-0.185454 c -0.0347,-0.0903 0.0577,-0.365832 0.21751,-0.649029 0.33304,-0.590116 0.8355,-2.044436 0.92213,-2.66903 0.0699,-0.503695 0.31984,-0.877819 0.72733,-1.088541 0.30581,-0.158136 0.52827,-0.112008 0.62078,0.128728 0.0663,0.172418 0.3373,1.417421 0.3373,1.549354 0,0.157953 -0.30532,0.191502 -0.60566,0.06655 -0.16874,-0.0702 -0.37162,-0.106827 -0.45086,-0.0814 -0.34304,0.11008 -0.66195,0.425956 -0.72338,0.716503 -0.0362,0.170965 -0.14751,0.445611 -0.24747,0.610326 -0.0999,0.164714 -0.18173,0.364254 -0.18173,0.443419 0,0.204745 -0.3953,1.130038 -0.48277,1.130038 -0.0401,0 -0.10006,-0.07062 -0.13318,-0.156924 z m -22.03623,-0.803557 c 0,-0.132067 0.0218,-0.186095 0.0485,-0.12006 0.0266,0.06603 0.0266,0.174085 0,0.24012 -0.0266,0.06603 -0.0485,0.01201 -0.0485,-0.12006 z M 177.17283,56.2351 c -0.004,-0.10125 0.0185,-0.157977 0.0504,-0.126063 0.0319,0.03191 0.0353,0.114755 0.008,0.184092 -0.0307,0.07662 -0.0534,0.05386 -0.058,-0.05803 z m -13.64641,-5.12431 c 0,-0.128459 1.04349,-1.097763 1.44624,-1.343428 0.4769,-0.290891 1.36928,-0.505478 2.05568,-0.494328 0.57433,0.0093 0.57101,0.01084 -0.33233,0.149516 -1.11136,0.170628 -1.70071,0.451595 -2.54426,1.212927 -0.34393,0.310413 -0.62533,0.524305 -0.62533,0.475313 z m 11.81391,-0.895262 c 0,-0.212996 1.34629,-0.887316 1.48729,-0.74495 0.0181,0.01824 -0.30919,0.213944 -0.72723,0.434906 -0.41803,0.22097 -0.76006,0.360486 -0.76006,0.310044 z m 3.79458,-0.566625 c -0.0337,-0.05444 0.005,-0.07055 0.0904,-0.03774 0.1664,0.06385 0.19684,0.132693 0.0587,0.132693 -0.0497,0 -0.11679,-0.04273 -0.14906,-0.09495 z m -23.91665,-0.07956 c 0.0528,-0.05502 0.22571,-0.127444 0.38419,-0.160931 0.199,-0.04205 0.24357,-0.03288 0.14407,0.0296 -0.23361,0.146735 -0.64006,0.247775 -0.52826,0.13132 z m 1.03252,-0.278481 c 0.14527,-0.022 0.38299,-0.022 0.52826,0 0.14527,0.022 0.0264,0.04001 -0.26413,0.04001 -0.29055,0 -0.40941,-0.018 -0.26413,-0.04001 z m 21.46786,6.88e-4 c 0.11948,-0.02296 0.29236,-0.0221 0.38419,0.0021 0.0918,0.02403 -0.006,0.04284 -0.21722,0.04177 -0.21131,-10e-4 -0.28644,-0.02072 -0.16697,-0.04371 z" id="path6463" style="fill:#646464;fill-opacity:1"/>
    </g>
  </g>
</svg>
