<?xml version="1.0" encoding="UTF-8" standalone="no"?>
<!-- Created with Inkscape (http://www.inkscape.org/) -->
<svg
	xmlns:dc="http://purl.org/dc/elements/1.1/"
	xmlns:cc="http://creativecommons.org/ns#"
	xmlns:rdf="http://www.w3.org/1999/02/22-rdf-syntax-ns#"
	xmlns:svg="http://www.w3.org/2000/svg"
	xmlns="http://www.w3.org/2000/svg"
	xmlns:xlink="http://www.w3.org/1999/xlink"
	version="1.0"
	width="128"
	height="128">
	<defs>
		<linearGradient id="linearGradient2977">
      <stop id="stop2979" style="stop-color:#4e9a06;stop-opacity:1" offset="0"/>
      <stop id="stop2981" style="stop-color:#306400;stop-opacity:1" offset="1"/>
    </linearGradient><linearGradient id="linearGradient6244">
      <stop id="stop6246" style="stop-color:#b41401;stop-opacity:1" offset="0"/>
      <stop id="stop6252" style="stop-color:#fa0001;stop-opacity:1" offset="0.69432312"/>
      <stop id="stop6248" style="stop-color:#b41401;stop-opacity:1" offset="1"/>
    </linearGradient><linearGradient id="linearGradient5993">
      <stop id="stop5995" style="stop-color:#f7f7f7;stop-opacity:1" offset="0"/>
      <stop id="stop5997" style="stop-color:#a2a2a2;stop-opacity:1" offset="1"/>
    </linearGradient><linearGradient id="linearGradient5975">
      <stop id="stop5977" style="stop-color:#282828;stop-opacity:1" offset="0"/>
      <stop id="stop5981" style="stop-color:#7d7d7d;stop-opacity:1" offset="1"/>
    </linearGradient><linearGradient id="linearGradient2770">
      <stop id="stop2772" style="stop-color:#ffffff;stop-opacity:0.32094595" offset="0"/>
      <stop id="stop2774" style="stop-color:#ffffff;stop-opacity:0" offset="1"/>
    </linearGradient><linearGradient id="linearGradient2830">
      <stop id="stop2832" style="stop-color:#1252a8;stop-opacity:1" offset="0"/>
      <stop id="stop2834" style="stop-color:#334d70;stop-opacity:1" offset="1"/>
    </linearGradient><linearGradient id="linearGradient2810">
      <stop id="stop2812" style="stop-color:#ffffff;stop-opacity:0.17905405" offset="0"/>
      <stop id="stop2836" style="stop-color:#ffffff;stop-opacity:0.08445946" offset="0.68558949"/>
      <stop id="stop2814" style="stop-color:#000000;stop-opacity:0.07432432" offset="1"/>
    </linearGradient><radialGradient cx="686.39868" cy="185.34259" r="180.31223" fx="686.39868" fy="185.34259" id="radialGradient5004" xlink:href="#linearGradient3715" gradientUnits="userSpaceOnUse"/><radialGradient cx="686.39868" cy="185.34259" r="180.31223" fx="686.39868" fy="185.34259" id="radialGradient4995" xlink:href="#linearGradient3715" gradientUnits="userSpaceOnUse"/><linearGradient id="linearGradient3715">
      <stop id="stop3717" style="stop-color:#ffffff;stop-opacity:1" offset="0"/>
      <stop id="stop3719" style="stop-color:#ffffff;stop-opacity:0" offset="1"/>
    </linearGradient><radialGradient cx="173.74623" cy="217.97618" r="24.243662" fx="173.74623" fy="217.97618" id="radialGradient3721" xlink:href="#linearGradient3715" gradientUnits="userSpaceOnUse" gradientTransform="matrix(1,0,0,1.958333,0,-208.8938)"/><radialGradient cx="173.74623" cy="217.97618" r="24.243662" fx="173.74623" fy="217.97618" id="radialGradient3725" xlink:href="#linearGradient3715" gradientUnits="userSpaceOnUse" gradientTransform="matrix(1,0,0,1.958333,0,-208.8938)"/><radialGradient cx="173.74623" cy="217.97618" r="24.243662" fx="173.74623" fy="217.97618" id="radialGradient3729" xlink:href="#linearGradient3715" gradientUnits="userSpaceOnUse" gradientTransform="matrix(1,0,0,1.958333,0,-208.8938)"/><radialGradient cx="173.74623" cy="217.97618" r="24.243662" fx="173.74623" fy="217.97618" id="radialGradient4744" xlink:href="#linearGradient3715" gradientUnits="userSpaceOnUse" gradientTransform="matrix(1,0,0,1.958333,0,-208.8938)"/><radialGradient cx="173.74623" cy="217.97618" r="24.243662" fx="173.74623" fy="217.97618" id="radialGradient4746" xlink:href="#linearGradient3715" gradientUnits="userSpaceOnUse" gradientTransform="matrix(1,0,0,1.958333,0,-208.8938)"/><radialGradient cx="173.74623" cy="217.97618" r="24.243662" fx="173.74623" fy="217.97618" id="radialGradient4748" xlink:href="#linearGradient3715" gradientUnits="userSpaceOnUse" gradientTransform="matrix(1,0,0,1.958333,0,-208.8938)"/><radialGradient cx="173.74623" cy="217.97618" r="24.243662" fx="173.74623" fy="217.97618" id="radialGradient4761" xlink:href="#linearGradient3715" gradientUnits="userSpaceOnUse" gradientTransform="matrix(1,0,0,1.958333,0,-208.8938)"/><radialGradient cx="173.74623" cy="217.97618" r="24.243662" fx="173.74623" fy="217.97618" id="radialGradient4763" xlink:href="#linearGradient3715" gradientUnits="userSpaceOnUse" gradientTransform="matrix(1,0,0,1.958333,0,-208.8938)"/><radialGradient cx="173.74623" cy="217.97618" r="24.243662" fx="173.74623" fy="217.97618" id="radialGradient4765" xlink:href="#linearGradient3715" gradientUnits="userSpaceOnUse" gradientTransform="matrix(1,0,0,1.958333,0,-208.8938)"/><radialGradient cx="199.99983" cy="199.99994" r="153.52788" fx="199.99983" fy="199.99994" id="radialGradient2800" xlink:href="#linearGradient2794" gradientUnits="userSpaceOnUse" gradientTransform="matrix(1,0,0,1.000234,0,-0.04670966)"/><linearGradient id="linearGradient2794">
      <stop id="stop2796" style="stop-color:#0781c4;stop-opacity:1" offset="0"/>
      <stop id="stop2798" style="stop-color:#2c5899;stop-opacity:1" offset="1"/>
    </linearGradient><radialGradient cx="199.99983" cy="199.99994" r="153.52788" fx="199.99983" fy="199.99994" id="radialGradient4810" xlink:href="#linearGradient2794" gradientUnits="userSpaceOnUse" gradientTransform="matrix(1,0,0,1.000234,0,-0.04670966)"/><linearGradient id="linearGradient4860">
      <stop id="stop4862" style="stop-color:#ffffff;stop-opacity:1" offset="0"/>
      <stop id="stop4864" style="stop-color:#ffffff;stop-opacity:0" offset="1"/>
    </linearGradient><radialGradient cx="173.74623" cy="217.97618" r="24.243662" fx="173.74623" fy="217.97618" id="radialGradient4858" xlink:href="#linearGradient3715" gradientUnits="userSpaceOnUse" gradientTransform="matrix(1,0,0,1.958333,0,-208.8938)"/><radialGradient cx="173.74623" cy="217.97618" r="24.243662" fx="173.74623" fy="217.97618" id="radialGradient4856" xlink:href="#linearGradient3715" gradientUnits="userSpaceOnUse" gradientTransform="matrix(1,0,0,1.958333,0,-208.8938)"/><radialGradient cx="173.74623" cy="217.97618" r="24.243662" fx="173.74623" fy="217.97618" id="radialGradient4854" xlink:href="#linearGradient3715" gradientUnits="userSpaceOnUse" gradientTransform="matrix(1,0,0,1.958333,0,-208.8938)"/><radialGradient cx="173.74623" cy="217.97618" r="24.243662" fx="173.74623" fy="217.97618" id="radialGradient4852" xlink:href="#linearGradient3715" gradientUnits="userSpaceOnUse" gradientTransform="matrix(1,0,0,1.958333,0,-208.8938)"/><radialGradient cx="173.74623" cy="217.97618" r="24.243662" fx="173.74623" fy="217.97618" id="radialGradient4850" xlink:href="#linearGradient3715" gradientUnits="userSpaceOnUse" gradientTransform="matrix(1,0,0,1.958333,0,-208.8938)"/><radialGradient cx="173.74623" cy="217.97618" r="24.243662" fx="173.74623" fy="217.97618" id="radialGradient4848" xlink:href="#linearGradient3715" gradientUnits="userSpaceOnUse" gradientTransform="matrix(1,0,0,1.958333,0,-208.8938)"/><radialGradient cx="173.74623" cy="217.97618" r="24.243662" fx="173.74623" fy="217.97618" id="radialGradient4846" xlink:href="#linearGradient3715" gradientUnits="userSpaceOnUse" gradientTransform="matrix(1,0,0,1.958333,0,-208.8938)"/><radialGradient cx="173.74623" cy="217.97618" r="24.243662" fx="173.74623" fy="217.97618" id="radialGradient4844" xlink:href="#linearGradient3715" gradientUnits="userSpaceOnUse" gradientTransform="matrix(1,0,0,1.958333,0,-208.8938)"/><radialGradient cx="173.74623" cy="217.97618" r="24.243662" fx="173.74623" fy="217.97618" id="radialGradient4842" xlink:href="#linearGradient3715" gradientUnits="userSpaceOnUse" gradientTransform="matrix(1,0,0,1.958333,0,-208.8938)"/><radialGradient cx="173.74623" cy="217.97618" r="24.243662" fx="173.74623" fy="217.97618" id="radialGradient5918" xlink:href="#linearGradient3715" gradientUnits="userSpaceOnUse" gradientTransform="matrix(1,0,0,1.958333,0,-208.8938)"/><radialGradient cx="173.74623" cy="217.97618" r="24.243662" fx="173.74623" fy="217.97618" id="radialGradient5916" xlink:href="#linearGradient3715" gradientUnits="userSpaceOnUse" gradientTransform="matrix(1,0,0,1.958333,0,-208.8938)"/><radialGradient cx="173.74623" cy="217.97618" r="24.243662" fx="173.74623" fy="217.97618" id="radialGradient5914" xlink:href="#linearGradient3715" gradientUnits="userSpaceOnUse" gradientTransform="matrix(1,0,0,1.958333,0,-208.8938)"/><radialGradient cx="173.74623" cy="217.97618" r="24.243662" fx="173.74623" fy="217.97618" id="radialGradient5912" xlink:href="#linearGradient3715" gradientUnits="userSpaceOnUse" gradientTransform="matrix(1,0,0,1.958333,0,-208.8938)"/><radialGradient cx="173.74623" cy="217.97618" r="24.243662" fx="173.74623" fy="217.97618" id="radialGradient5910" xlink:href="#linearGradient3715" gradientUnits="userSpaceOnUse" gradientTransform="matrix(1,0,0,1.958333,0,-208.8938)"/><radialGradient cx="173.74623" cy="217.97618" r="24.243662" fx="173.74623" fy="217.97618" id="radialGradient5908" xlink:href="#linearGradient3715" gradientUnits="userSpaceOnUse" gradientTransform="matrix(1,0,0,1.958333,0,-208.8938)"/><radialGradient cx="173.74623" cy="217.97618" r="24.243662" fx="173.74623" fy="217.97618" id="radialGradient5906" xlink:href="#linearGradient3715" gradientUnits="userSpaceOnUse" gradientTransform="matrix(1,0,0,1.958333,0,-208.8938)"/><radialGradient cx="173.74623" cy="217.97618" r="24.243662" fx="173.74623" fy="217.97618" id="radialGradient5904" xlink:href="#linearGradient3715" gradientUnits="userSpaceOnUse" gradientTransform="matrix(1,0,0,1.958333,0,-208.8938)"/><radialGradient cx="173.74623" cy="217.97618" r="24.243662" fx="173.74623" fy="217.97618" id="radialGradient5902" xlink:href="#linearGradient3715" gradientUnits="userSpaceOnUse" gradientTransform="matrix(1,0,0,1.958333,0,-208.8938)"/><linearGradient id="linearGradient5896">
      <stop id="stop5898" style="stop-color:#ffffff;stop-opacity:1" offset="0"/>
      <stop id="stop5900" style="stop-color:#ffffff;stop-opacity:0" offset="1"/>
    </linearGradient><radialGradient cx="444.96585" cy="201.02304" r="68.098465" fx="444.96585" fy="201.02304" id="radialGradient6013" xlink:href="#linearGradient5975" gradientUnits="userSpaceOnUse" gradientTransform="matrix(-0.960934,-0.85485,3.433434,-3.859497,187.5603,1366.676)"/><radialGradient cx="465.87155" cy="193.35558" r="81.402092" fx="465.87155" fy="193.35558" id="radialGradient6015" xlink:href="#linearGradient5993" gradientUnits="userSpaceOnUse" gradientTransform="matrix(3.010326,-0.111685,0.06408353,1.727293,-948.9444,-88.59537)"/><radialGradient cx="444.96585" cy="201.02304" r="68.098465" fx="444.96585" fy="201.02304" id="radialGradient6060" xlink:href="#linearGradient5975" gradientUnits="userSpaceOnUse" gradientTransform="matrix(-0.960934,-0.85485,3.433434,-3.859497,187.5603,1366.676)"/><radialGradient cx="465.87155" cy="193.35558" r="81.402092" fx="465.87155" fy="193.35558" id="radialGradient6062" xlink:href="#linearGradient5993" gradientUnits="userSpaceOnUse" gradientTransform="matrix(3.010326,-0.111685,0.06408353,1.727293,-948.9444,-88.59537)"/><linearGradient id="linearGradient6120">
      <stop id="stop6122" style="stop-color:#ffffff;stop-opacity:1" offset="0"/>
      <stop id="stop6124" style="stop-color:#ffffff;stop-opacity:0" offset="1"/>
    </linearGradient><radialGradient cx="173.74623" cy="217.97618" r="24.243662" fx="173.74623" fy="217.97618" id="radialGradient6118" xlink:href="#linearGradient3715" gradientUnits="userSpaceOnUse" gradientTransform="matrix(1,0,0,1.958333,0,-208.8938)"/><radialGradient cx="173.74623" cy="217.97618" r="24.243662" fx="173.74623" fy="217.97618" id="radialGradient6116" xlink:href="#linearGradient3715" gradientUnits="userSpaceOnUse" gradientTransform="matrix(1,0,0,1.958333,0,-208.8938)"/><radialGradient cx="173.74623" cy="217.97618" r="24.243662" fx="173.74623" fy="217.97618" id="radialGradient6114" xlink:href="#linearGradient3715" gradientUnits="userSpaceOnUse" gradientTransform="matrix(1,0,0,1.958333,0,-208.8938)"/><radialGradient cx="173.74623" cy="217.97618" r="24.243662" fx="173.74623" fy="217.97618" id="radialGradient6112" xlink:href="#linearGradient3715" gradientUnits="userSpaceOnUse" gradientTransform="matrix(1,0,0,1.958333,0,-208.8938)"/><radialGradient cx="173.74623" cy="217.97618" r="24.243662" fx="173.74623" fy="217.97618" id="radialGradient6110" xlink:href="#linearGradient3715" gradientUnits="userSpaceOnUse" gradientTransform="matrix(1,0,0,1.958333,0,-208.8938)"/><radialGradient cx="173.74623" cy="217.97618" r="24.243662" fx="173.74623" fy="217.97618" id="radialGradient6108" xlink:href="#linearGradient3715" gradientUnits="userSpaceOnUse" gradientTransform="matrix(1,0,0,1.958333,0,-208.8938)"/><radialGradient cx="173.74623" cy="217.97618" r="24.243662" fx="173.74623" fy="217.97618" id="radialGradient6106" xlink:href="#linearGradient3715" gradientUnits="userSpaceOnUse" gradientTransform="matrix(1,0,0,1.958333,0,-208.8938)"/><radialGradient cx="173.74623" cy="217.97618" r="24.243662" fx="173.74623" fy="217.97618" id="radialGradient6104" xlink:href="#linearGradient3715" gradientUnits="userSpaceOnUse" gradientTransform="matrix(1,0,0,1.958333,0,-208.8938)"/><radialGradient cx="173.74623" cy="217.97618" r="24.243662" fx="173.74623" fy="217.97618" id="radialGradient6102" xlink:href="#linearGradient3715" gradientUnits="userSpaceOnUse" gradientTransform="matrix(1,0,0,1.958333,0,-208.8938)"/><linearGradient x1="636.26959" y1="54.557453" x2="572.63" y2="-192.25841" id="linearGradient6250" xlink:href="#linearGradient6244" gradientUnits="userSpaceOnUse" gradientTransform="matrix(0.256993,0,0,0.256993,329.0787,243.7884)"/><radialGradient cx="173.74623" cy="217.97618" r="24.243662" fx="173.74623" fy="217.97618" id="radialGradient6290" xlink:href="#linearGradient3715" gradientUnits="userSpaceOnUse" gradientTransform="matrix(1,0,0,1.958333,0,-208.8938)"/><radialGradient cx="173.74623" cy="217.97618" r="24.243662" fx="173.74623" fy="217.97618" id="radialGradient6288" xlink:href="#linearGradient3715" gradientUnits="userSpaceOnUse" gradientTransform="matrix(1,0,0,1.958333,0,-208.8938)"/><radialGradient cx="173.74623" cy="217.97618" r="24.243662" fx="173.74623" fy="217.97618" id="radialGradient6286" xlink:href="#linearGradient3715" gradientUnits="userSpaceOnUse" gradientTransform="matrix(1,0,0,1.958333,0,-208.8938)"/><linearGradient id="linearGradient6280">
      <stop id="stop6282" style="stop-color:#ffffff;stop-opacity:1" offset="0"/>
      <stop id="stop6284" style="stop-color:#ffffff;stop-opacity:0" offset="1"/>
    </linearGradient><radialGradient cx="173.74623" cy="217.97618" r="24.243662" fx="173.74623" fy="217.97618" id="radialGradient6412" xlink:href="#linearGradient3715" gradientUnits="userSpaceOnUse" gradientTransform="matrix(1,0,0,1.958333,0,-208.8938)"/><radialGradient cx="173.74623" cy="217.97618" r="24.243662" fx="173.74623" fy="217.97618" id="radialGradient6414" xlink:href="#linearGradient3715" gradientUnits="userSpaceOnUse" gradientTransform="matrix(1,0,0,1.958333,0,-208.8938)"/><radialGradient cx="173.74623" cy="217.97618" r="24.243662" fx="173.74623" fy="217.97618" id="radialGradient6416" xlink:href="#linearGradient3715" gradientUnits="userSpaceOnUse" gradientTransform="matrix(1,0,0,1.958333,0,-208.8938)"/><radialGradient cx="381.42856" cy="368.07648" r="213.57143" fx="381.42856" fy="368.07648" id="radialGradient6643" xlink:href="#linearGradient2810" gradientUnits="userSpaceOnUse"/><linearGradient x1="167.85713" y1="368.07648" x2="595" y2="368.07648" id="linearGradient6645" xlink:href="#linearGradient2830" gradientUnits="userSpaceOnUse"/><linearGradient x1="381.42856" y1="177.29305" x2="381.42856" y2="524.87012" id="linearGradient6647" xlink:href="#linearGradient2770" gradientUnits="userSpaceOnUse"/><radialGradient cx="173.74623" cy="217.97618" r="24.243662" fx="173.74623" fy="217.97618" id="radialGradient6922" xlink:href="#linearGradient3715" gradientUnits="userSpaceOnUse" gradientTransform="matrix(1,0,0,1.958333,0,-208.8938)"/><radialGradient cx="173.74623" cy="217.97618" r="24.243662" fx="173.74623" fy="217.97618" id="radialGradient6924" xlink:href="#linearGradient3715" gradientUnits="userSpaceOnUse" gradientTransform="matrix(1,0,0,1.958333,0,-208.8938)"/><radialGradient cx="173.74623" cy="217.97618" r="24.243662" fx="173.74623" fy="217.97618" id="radialGradient6926" xlink:href="#linearGradient3715" gradientUnits="userSpaceOnUse" gradientTransform="matrix(1,0,0,1.958333,0,-208.8938)"/><radialGradient cx="381.42856" cy="368.07648" r="213.57143" fx="381.42856" fy="368.07648" id="radialGradient6951" xlink:href="#linearGradient2810" gradientUnits="userSpaceOnUse"/><linearGradient x1="167.85713" y1="368.07648" x2="595" y2="368.07648" id="linearGradient6953" xlink:href="#linearGradient2830" gradientUnits="userSpaceOnUse"/><linearGradient x1="381.42856" y1="177.29305" x2="381.42856" y2="524.87012" id="linearGradient6955" xlink:href="#linearGradient2770" gradientUnits="userSpaceOnUse"/><radialGradient cx="381.42856" cy="368.07648" r="213.57143" fx="381.42856" fy="368.07648" id="radialGradient2995" xlink:href="#linearGradient2810" gradientUnits="userSpaceOnUse"/><linearGradient x1="164.48386" y1="368.07648" x2="598.37323" y2="368.07648" id="linearGradient2997" xlink:href="#linearGradient2977" gradientUnits="userSpaceOnUse"/><linearGradient x1="381.42856" y1="177.29305" x2="381.42856" y2="524.87012" id="linearGradient2999" xlink:href="#linearGradient2770" gradientUnits="userSpaceOnUse"/><radialGradient cx="381.42856" cy="368.07648" r="213.57143" fx="381.42856" fy="368.07648" id="radialGradient3253" xlink:href="#linearGradient2810" gradientUnits="userSpaceOnUse"/><linearGradient x1="164.48386" y1="368.07648" x2="598.37323" y2="368.07648" id="linearGradient3255" xlink:href="#linearGradient2977" gradientUnits="userSpaceOnUse"/><linearGradient x1="381.42856" y1="177.29305" x2="381.42856" y2="524.87012" id="linearGradient3257" xlink:href="#linearGradient2770" gradientUnits="userSpaceOnUse"/><radialGradient cx="381.42856" cy="368.07648" r="213.57143" fx="381.42856" fy="368.07648" id="radialGradient2982" xlink:href="#linearGradient2810" gradientUnits="userSpaceOnUse"/><linearGradient x1="167.85713" y1="368.07648" x2="595" y2="368.07648" id="linearGradient2984" xlink:href="#linearGradient2830" gradientUnits="userSpaceOnUse"/><linearGradient x1="381.42856" y1="177.29305" x2="381.42856" y2="524.87012" id="linearGradient2986" xlink:href="#linearGradient2770" gradientUnits="userSpaceOnUse"/><linearGradient x1="381.42856" y1="177.29305" x2="381.42856" y2="524.87012" id="linearGradient2999-8" xlink:href="#linearGradient2770-1" gradientUnits="userSpaceOnUse"/><linearGradient x1="164.48386" y1="368.07648" x2="598.37323" y2="368.07648" id="linearGradient2997-7" xlink:href="#linearGradient2977-5" gradientUnits="userSpaceOnUse"/><radialGradient cx="381.42856" cy="368.07648" r="213.57143" fx="381.42856" fy="368.07648" id="radialGradient2995-9" xlink:href="#linearGradient2810-5" gradientUnits="userSpaceOnUse"/><linearGradient x1="381.42856" y1="177.29305" x2="381.42856" y2="524.87012" id="linearGradient6955-5" xlink:href="#linearGradient2770-1" gradientUnits="userSpaceOnUse"/><linearGradient x1="167.85713" y1="368.07648" x2="595" y2="368.07648" id="linearGradient6953-7" xlink:href="#linearGradient2830-7" gradientUnits="userSpaceOnUse"/><radialGradient cx="381.42856" cy="368.07648" r="213.57143" fx="381.42856" fy="368.07648" id="radialGradient6951-9" xlink:href="#linearGradient2810-5" gradientUnits="userSpaceOnUse"/><radialGradient cx="173.74623" cy="217.97618" r="24.243662" fx="173.74623" fy="217.97618" id="radialGradient6926-0" xlink:href="#linearGradient3715-0" gradientUnits="userSpaceOnUse" gradientTransform="matrix(1,0,0,1.958333,0,-208.8938)"/><radialGradient cx="173.74623" cy="217.97618" r="24.243662" fx="173.74623" fy="217.97618" id="radialGradient6924-6" xlink:href="#linearGradient3715-0" gradientUnits="userSpaceOnUse" gradientTransform="matrix(1,0,0,1.958333,0,-208.8938)"/><radialGradient cx="173.74623" cy="217.97618" r="24.243662" fx="173.74623" fy="217.97618" id="radialGradient6922-7" xlink:href="#linearGradient3715-0" gradientUnits="userSpaceOnUse" gradientTransform="matrix(1,0,0,1.958333,0,-208.8938)"/><linearGradient x1="381.42856" y1="177.29305" x2="381.42856" y2="524.87012" id="linearGradient6647-6" xlink:href="#linearGradient2770-1" gradientUnits="userSpaceOnUse"/><linearGradient x1="167.85713" y1="368.07648" x2="595" y2="368.07648" id="linearGradient6645-4" xlink:href="#linearGradient2830-7" gradientUnits="userSpaceOnUse"/><radialGradient cx="381.42856" cy="368.07648" r="213.57143" fx="381.42856" fy="368.07648" id="radialGradient6643-0" xlink:href="#linearGradient2810-5" gradientUnits="userSpaceOnUse"/><radialGradient cx="173.74623" cy="217.97618" r="24.243662" fx="173.74623" fy="217.97618" id="radialGradient6416-6" xlink:href="#linearGradient3715-0" gradientUnits="userSpaceOnUse" gradientTransform="matrix(1,0,0,1.958333,0,-208.8938)"/><radialGradient cx="173.74623" cy="217.97618" r="24.243662" fx="173.74623" fy="217.97618" id="radialGradient6414-8" xlink:href="#linearGradient3715-0" gradientUnits="userSpaceOnUse" gradientTransform="matrix(1,0,0,1.958333,0,-208.8938)"/><radialGradient cx="173.74623" cy="217.97618" r="24.243662" fx="173.74623" fy="217.97618" id="radialGradient6412-8" xlink:href="#linearGradient3715-0" gradientUnits="userSpaceOnUse" gradientTransform="matrix(1,0,0,1.958333,0,-208.8938)"/><linearGradient id="linearGradient6280-0">
      <stop id="stop6282-3" style="stop-color:#ffffff;stop-opacity:1" offset="0"/>
      <stop id="stop6284-7" style="stop-color:#ffffff;stop-opacity:0" offset="1"/>
    </linearGradient><radialGradient cx="173.74623" cy="217.97618" r="24.243662" fx="173.74623" fy="217.97618" id="radialGradient6286-1" xlink:href="#linearGradient3715-0" gradientUnits="userSpaceOnUse" gradientTransform="matrix(1,0,0,1.958333,0,-208.8938)"/><radialGradient cx="173.74623" cy="217.97618" r="24.243662" fx="173.74623" fy="217.97618" id="radialGradient6288-5" xlink:href="#linearGradient3715-0" gradientUnits="userSpaceOnUse" gradientTransform="matrix(1,0,0,1.958333,0,-208.8938)"/><radialGradient cx="173.74623" cy="217.97618" r="24.243662" fx="173.74623" fy="217.97618" id="radialGradient6290-4" xlink:href="#linearGradient3715-0" gradientUnits="userSpaceOnUse" gradientTransform="matrix(1,0,0,1.958333,0,-208.8938)"/><linearGradient x1="636.26959" y1="54.557453" x2="572.63" y2="-192.25841" id="linearGradient6250-9" xlink:href="#linearGradient6244-9" gradientUnits="userSpaceOnUse" gradientTransform="matrix(0.256993,0,0,0.256993,329.0787,243.7884)"/><radialGradient cx="173.74623" cy="217.97618" r="24.243662" fx="173.74623" fy="217.97618" id="radialGradient6102-9" xlink:href="#linearGradient3715-0" gradientUnits="userSpaceOnUse" gradientTransform="matrix(1,0,0,1.958333,0,-208.8938)"/><radialGradient cx="173.74623" cy="217.97618" r="24.243662" fx="173.74623" fy="217.97618" id="radialGradient6104-0" xlink:href="#linearGradient3715-0" gradientUnits="userSpaceOnUse" gradientTransform="matrix(1,0,0,1.958333,0,-208.8938)"/><radialGradient cx="173.74623" cy="217.97618" r="24.243662" fx="173.74623" fy="217.97618" id="radialGradient6106-9" xlink:href="#linearGradient3715-0" gradientUnits="userSpaceOnUse" gradientTransform="matrix(1,0,0,1.958333,0,-208.8938)"/><radialGradient cx="173.74623" cy="217.97618" r="24.243662" fx="173.74623" fy="217.97618" id="radialGradient6108-2" xlink:href="#linearGradient3715-0" gradientUnits="userSpaceOnUse" gradientTransform="matrix(1,0,0,1.958333,0,-208.8938)"/><radialGradient cx="173.74623" cy="217.97618" r="24.243662" fx="173.74623" fy="217.97618" id="radialGradient6110-0" xlink:href="#linearGradient3715-0" gradientUnits="userSpaceOnUse" gradientTransform="matrix(1,0,0,1.958333,0,-208.8938)"/><radialGradient cx="173.74623" cy="217.97618" r="24.243662" fx="173.74623" fy="217.97618" id="radialGradient6112-2" xlink:href="#linearGradient3715-0" gradientUnits="userSpaceOnUse" gradientTransform="matrix(1,0,0,1.958333,0,-208.8938)"/><radialGradient cx="173.74623" cy="217.97618" r="24.243662" fx="173.74623" fy="217.97618" id="radialGradient6114-5" xlink:href="#linearGradient3715-0" gradientUnits="userSpaceOnUse" gradientTransform="matrix(1,0,0,1.958333,0,-208.8938)"/><radialGradient cx="173.74623" cy="217.97618" r="24.243662" fx="173.74623" fy="217.97618" id="radialGradient6116-4" xlink:href="#linearGradient3715-0" gradientUnits="userSpaceOnUse" gradientTransform="matrix(1,0,0,1.958333,0,-208.8938)"/><radialGradient cx="173.74623" cy="217.97618" r="24.243662" fx="173.74623" fy="217.97618" id="radialGradient6118-6" xlink:href="#linearGradient3715-0" gradientUnits="userSpaceOnUse" gradientTransform="matrix(1,0,0,1.958333,0,-208.8938)"/><linearGradient id="linearGradient6120-7">
      <stop id="stop6122-7" style="stop-color:#ffffff;stop-opacity:1" offset="0"/>
      <stop id="stop6124-2" style="stop-color:#ffffff;stop-opacity:0" offset="1"/>
    </linearGradient><radialGradient cx="465.87155" cy="193.35558" r="81.402092" fx="465.87155" fy="193.35558" id="radialGradient6062-3" xlink:href="#linearGradient5993-9" gradientUnits="userSpaceOnUse" gradientTransform="matrix(3.010326,-0.111685,0.06408353,1.727293,-948.9444,-88.59537)"/><radialGradient cx="444.96585" cy="201.02304" r="68.098465" fx="444.96585" fy="201.02304" id="radialGradient6060-1" xlink:href="#linearGradient5975-7" gradientUnits="userSpaceOnUse" gradientTransform="matrix(-0.960934,-0.85485,3.433434,-3.859497,187.5603,1366.676)"/><radialGradient cx="465.87155" cy="193.35558" r="81.402092" fx="465.87155" fy="193.35558" id="radialGradient6015-0" xlink:href="#linearGradient5993-9" gradientUnits="userSpaceOnUse" gradientTransform="matrix(3.010326,-0.111685,0.06408353,1.727293,-948.9444,-88.59537)"/><radialGradient cx="444.96585" cy="201.02304" r="68.098465" fx="444.96585" fy="201.02304" id="radialGradient6013-1" xlink:href="#linearGradient5975-7" gradientUnits="userSpaceOnUse" gradientTransform="matrix(-0.960934,-0.85485,3.433434,-3.859497,187.5603,1366.676)"/><linearGradient id="linearGradient5896-0">
      <stop id="stop5898-7" style="stop-color:#ffffff;stop-opacity:1" offset="0"/>
      <stop id="stop5900-0" style="stop-color:#ffffff;stop-opacity:0" offset="1"/>
    </linearGradient><radialGradient cx="173.74623" cy="217.97618" r="24.243662" fx="173.74623" fy="217.97618" id="radialGradient5902-6" xlink:href="#linearGradient3715-0" gradientUnits="userSpaceOnUse" gradientTransform="matrix(1,0,0,1.958333,0,-208.8938)"/><radialGradient cx="173.74623" cy="217.97618" r="24.243662" fx="173.74623" fy="217.97618" id="radialGradient5904-9" xlink:href="#linearGradient3715-0" gradientUnits="userSpaceOnUse" gradientTransform="matrix(1,0,0,1.958333,0,-208.8938)"/><radialGradient cx="173.74623" cy="217.97618" r="24.243662" fx="173.74623" fy="217.97618" id="radialGradient5906-8" xlink:href="#linearGradient3715-0" gradientUnits="userSpaceOnUse" gradientTransform="matrix(1,0,0,1.958333,0,-208.8938)"/><radialGradient cx="173.74623" cy="217.97618" r="24.243662" fx="173.74623" fy="217.97618" id="radialGradient5908-2" xlink:href="#linearGradient3715-0" gradientUnits="userSpaceOnUse" gradientTransform="matrix(1,0,0,1.958333,0,-208.8938)"/><radialGradient cx="173.74623" cy="217.97618" r="24.243662" fx="173.74623" fy="217.97618" id="radialGradient5910-6" xlink:href="#linearGradient3715-0" gradientUnits="userSpaceOnUse" gradientTransform="matrix(1,0,0,1.958333,0,-208.8938)"/><radialGradient cx="173.74623" cy="217.97618" r="24.243662" fx="173.74623" fy="217.97618" id="radialGradient5912-4" xlink:href="#linearGradient3715-0" gradientUnits="userSpaceOnUse" gradientTransform="matrix(1,0,0,1.958333,0,-208.8938)"/><radialGradient cx="173.74623" cy="217.97618" r="24.243662" fx="173.74623" fy="217.97618" id="radialGradient5914-6" xlink:href="#linearGradient3715-0" gradientUnits="userSpaceOnUse" gradientTransform="matrix(1,0,0,1.958333,0,-208.8938)"/><radialGradient cx="173.74623" cy="217.97618" r="24.243662" fx="173.74623" fy="217.97618" id="radialGradient5916-6" xlink:href="#linearGradient3715-0" gradientUnits="userSpaceOnUse" gradientTransform="matrix(1,0,0,1.958333,0,-208.8938)"/><radialGradient cx="173.74623" cy="217.97618" r="24.243662" fx="173.74623" fy="217.97618" id="radialGradient5918-0" xlink:href="#linearGradient3715-0" gradientUnits="userSpaceOnUse" gradientTransform="matrix(1,0,0,1.958333,0,-208.8938)"/><radialGradient cx="173.74623" cy="217.97618" r="24.243662" fx="173.74623" fy="217.97618" id="radialGradient4842-6" xlink:href="#linearGradient3715-0" gradientUnits="userSpaceOnUse" gradientTransform="matrix(1,0,0,1.958333,0,-208.8938)"/><radialGradient cx="173.74623" cy="217.97618" r="24.243662" fx="173.74623" fy="217.97618" id="radialGradient4844-2" xlink:href="#linearGradient3715-0" gradientUnits="userSpaceOnUse" gradientTransform="matrix(1,0,0,1.958333,0,-208.8938)"/><radialGradient cx="173.74623" cy="217.97618" r="24.243662" fx="173.74623" fy="217.97618" id="radialGradient4846-8" xlink:href="#linearGradient3715-0" gradientUnits="userSpaceOnUse" gradientTransform="matrix(1,0,0,1.958333,0,-208.8938)"/><radialGradient cx="173.74623" cy="217.97618" r="24.243662" fx="173.74623" fy="217.97618" id="radialGradient4848-5" xlink:href="#linearGradient3715-0" gradientUnits="userSpaceOnUse" gradientTransform="matrix(1,0,0,1.958333,0,-208.8938)"/><radialGradient cx="173.74623" cy="217.97618" r="24.243662" fx="173.74623" fy="217.97618" id="radialGradient4850-8" xlink:href="#linearGradient3715-0" gradientUnits="userSpaceOnUse" gradientTransform="matrix(1,0,0,1.958333,0,-208.8938)"/><radialGradient cx="173.74623" cy="217.97618" r="24.243662" fx="173.74623" fy="217.97618" id="radialGradient4852-4" xlink:href="#linearGradient3715-0" gradientUnits="userSpaceOnUse" gradientTransform="matrix(1,0,0,1.958333,0,-208.8938)"/><radialGradient cx="173.74623" cy="217.97618" r="24.243662" fx="173.74623" fy="217.97618" id="radialGradient4854-7" xlink:href="#linearGradient3715-0" gradientUnits="userSpaceOnUse" gradientTransform="matrix(1,0,0,1.958333,0,-208.8938)"/><radialGradient cx="173.74623" cy="217.97618" r="24.243662" fx="173.74623" fy="217.97618" id="radialGradient4856-4" xlink:href="#linearGradient3715-0" gradientUnits="userSpaceOnUse" gradientTransform="matrix(1,0,0,1.958333,0,-208.8938)"/><radialGradient cx="173.74623" cy="217.97618" r="24.243662" fx="173.74623" fy="217.97618" id="radialGradient4858-6" xlink:href="#linearGradient3715-0" gradientUnits="userSpaceOnUse" gradientTransform="matrix(1,0,0,1.958333,0,-208.8938)"/><linearGradient id="linearGradient4860-7">
      <stop id="stop4862-4" style="stop-color:#ffffff;stop-opacity:1" offset="0"/>
      <stop id="stop4864-0" style="stop-color:#ffffff;stop-opacity:0" offset="1"/>
    </linearGradient><radialGradient cx="199.99983" cy="199.99994" r="153.52788" fx="199.99983" fy="199.99994" id="radialGradient4810-7" xlink:href="#linearGradient2794-0" gradientUnits="userSpaceOnUse" gradientTransform="matrix(1,0,0,1.000234,0,-0.04670966)"/><linearGradient id="linearGradient2794-0">
      <stop id="stop2796-5" style="stop-color:#0781c4;stop-opacity:1" offset="0"/>
      <stop id="stop2798-6" style="stop-color:#2c5899;stop-opacity:1" offset="1"/>
    </linearGradient><radialGradient cx="199.99983" cy="199.99994" r="153.52788" fx="199.99983" fy="199.99994" id="radialGradient2800-9" xlink:href="#linearGradient2794-0" gradientUnits="userSpaceOnUse" gradientTransform="matrix(1,0,0,1.000234,0,-0.04670966)"/><radialGradient cx="173.74623" cy="217.97618" r="24.243662" fx="173.74623" fy="217.97618" id="radialGradient4765-1" xlink:href="#linearGradient3715-0" gradientUnits="userSpaceOnUse" gradientTransform="matrix(1,0,0,1.958333,0,-208.8938)"/><radialGradient cx="173.74623" cy="217.97618" r="24.243662" fx="173.74623" fy="217.97618" id="radialGradient4763-1" xlink:href="#linearGradient3715-0" gradientUnits="userSpaceOnUse" gradientTransform="matrix(1,0,0,1.958333,0,-208.8938)"/><radialGradient cx="173.74623" cy="217.97618" r="24.243662" fx="173.74623" fy="217.97618" id="radialGradient4761-3" xlink:href="#linearGradient3715-0" gradientUnits="userSpaceOnUse" gradientTransform="matrix(1,0,0,1.958333,0,-208.8938)"/><radialGradient cx="173.74623" cy="217.97618" r="24.243662" fx="173.74623" fy="217.97618" id="radialGradient4748-7" xlink:href="#linearGradient3715-0" gradientUnits="userSpaceOnUse" gradientTransform="matrix(1,0,0,1.958333,0,-208.8938)"/><radialGradient cx="173.74623" cy="217.97618" r="24.243662" fx="173.74623" fy="217.97618" id="radialGradient4746-0" xlink:href="#linearGradient3715-0" gradientUnits="userSpaceOnUse" gradientTransform="matrix(1,0,0,1.958333,0,-208.8938)"/><radialGradient cx="173.74623" cy="217.97618" r="24.243662" fx="173.74623" fy="217.97618" id="radialGradient4744-2" xlink:href="#linearGradient3715-0" gradientUnits="userSpaceOnUse" gradientTransform="matrix(1,0,0,1.958333,0,-208.8938)"/><radialGradient cx="173.74623" cy="217.97618" r="24.243662" fx="173.74623" fy="217.97618" id="radialGradient3729-1" xlink:href="#linearGradient3715-0" gradientUnits="userSpaceOnUse" gradientTransform="matrix(1,0,0,1.958333,0,-208.8938)"/><radialGradient cx="173.74623" cy="217.97618" r="24.243662" fx="173.74623" fy="217.97618" id="radialGradient3725-2" xlink:href="#linearGradient3715-0" gradientUnits="userSpaceOnUse" gradientTransform="matrix(1,0,0,1.958333,0,-208.8938)"/><radialGradient cx="173.74623" cy="217.97618" r="24.243662" fx="173.74623" fy="217.97618" id="radialGradient3721-6" xlink:href="#linearGradient3715-0" gradientUnits="userSpaceOnUse" gradientTransform="matrix(1,0,0,1.958333,0,-208.8938)"/><linearGradient id="linearGradient3715-0">
      <stop id="stop3717-1" style="stop-color:#ffffff;stop-opacity:1" offset="0"/>
      <stop id="stop3719-9" style="stop-color:#ffffff;stop-opacity:0" offset="1"/>
    </linearGradient><radialGradient cx="686.39868" cy="185.34259" r="180.31223" fx="686.39868" fy="185.34259" id="radialGradient4995-2" xlink:href="#linearGradient3715-0" gradientUnits="userSpaceOnUse"/><radialGradient cx="686.39868" cy="185.34259" r="180.31223" fx="686.39868" fy="185.34259" id="radialGradient5004-0" xlink:href="#linearGradient3715-0" gradientUnits="userSpaceOnUse"/><linearGradient id="linearGradient2810-5">
      <stop id="stop2812-3" style="stop-color:#ffffff;stop-opacity:0.17905405" offset="0"/>
      <stop id="stop2836-4" style="stop-color:#ffffff;stop-opacity:0.08445946" offset="0.68558949"/>
      <stop id="stop2814-9" style="stop-color:#000000;stop-opacity:0.07432432" offset="1"/>
    </linearGradient><linearGradient id="linearGradient2830-7">
      <stop id="stop2832-8" style="stop-color:#1252a8;stop-opacity:1" offset="0"/>
      <stop id="stop2834-2" style="stop-color:#334d70;stop-opacity:1" offset="1"/>
    </linearGradient><linearGradient id="linearGradient2770-1">
      <stop id="stop2772-9" style="stop-color:#ffffff;stop-opacity:0.32094595" offset="0"/>
      <stop id="stop2774-9" style="stop-color:#ffffff;stop-opacity:0" offset="1"/>
    </linearGradient><linearGradient id="linearGradient5975-7">
      <stop id="stop5977-0" style="stop-color:#282828;stop-opacity:1" offset="0"/>
      <stop id="stop5981-8" style="stop-color:#7d7d7d;stop-opacity:1" offset="1"/>
    </linearGradient><linearGradient id="linearGradient5993-9">
      <stop id="stop5995-3" style="stop-color:#f7f7f7;stop-opacity:1" offset="0"/>
      <stop id="stop5997-5" style="stop-color:#a2a2a2;stop-opacity:1" offset="1"/>
    </linearGradient><linearGradient id="linearGradient6244-9">
      <stop id="stop6246-9" style="stop-color:#b41401;stop-opacity:1" offset="0"/>
      <stop id="stop6252-4" style="stop-color:#fa0001;stop-opacity:1" offset="0.69432312"/>
      <stop id="stop6248-5" style="stop-color:#b41401;stop-opacity:1" offset="1"/>
    </linearGradient><linearGradient id="linearGradient2977-5">
      <stop id="stop2979-7" style="stop-color:#4e9a06;stop-opacity:1" offset="0"/>
      <stop id="stop2981-4" style="stop-color:#306400;stop-opacity:1" offset="1"/>
    </linearGradient>
	</defs>
	<metadata>
		<rdf:RDF>
			<cc:Work rdf:about="">
			<dc:format>image/svg+xml</dc:format>
			<dc:type rdf:resource="http://purl.org/dc/dcmitype/StillImage" />
			<dc:title>Plain ABC 3 Logo</dc:title>
			</cc:Work>
		</rdf:RDF>
	</metadata>
	<g id="layer1">
    <g transform="matrix(1.1428572,0,0,1.1428572,-76.738725,-10.303854)" id="g3188">
      <path d="m 123.08389,10.328373 c -18.15637,0 -32.875005,13.655314 -32.875005,30.5 0,5.092019 1.371623,9.873732 3.75,14.09375 0.0045,0.008 -0.0045,0.02326 0,0.03125 -2.541343,4.687729 -4,10.043063 -4,15.75 0,9.242427 3.770215,17.616416 9.875,23.625 l -3.625,0 c -3.601,0 -6.5,2.899 -6.5,6.499997 l 0,12.375 c 0,3.601 2.899,6.5 6.5,6.5 l 53.874995,0 c 3.601,0 6.5,-2.899 6.5,-6.5 l 0,-12.375 c 0,-3.600997 -2.899,-6.499997 -6.5,-6.499997 l -3.75,0 c 6.10479,-6.008584 9.875,-14.382573 9.875,-23.625 0,-5.706937 -1.45866,-11.062271 -4,-15.75 -0.004,-0.0083 0.004,-0.02298 0,-0.03125 2.37838,-4.220018 3.75,-9.001731 3.75,-14.09375 0,-16.844686 -14.71863,-30.5 -32.87499,-30.5 z" id="rect2936" style="fill:#f5002c;fill-opacity:1;stroke:none"/>
      <path d="m 117.95889,42.078373 -16,0 c -1.06158,0 -1,-1 -1,-1 0,0 2,-20 22,-20 14.99999,0 20.99999,10.87868 20.99999,20 0,9.12132 -8,14 -8,14 0,0 9,3 9,16 0,13 -11,20 -21.99999,20 -11,0 -24.000005,-7 -24.000005,-20 0,-1 1,-1 1,-1 l 17.000005,0 c 0,0 1,-0.149048 1,1 0,0 -1,5 4,5 5,0 5,-5 5,-7 0,-2 -2,-6 -5,-6 -3,0 -5,0 -5,0 -1.06434,0 -1,-1 -1,-1 l 0,-13 c 0,0 -0.0174,-1 1,-1 0,0 0,0 4,0 4,0 5,-3 5,-4 0,-1 0,-3 0,-4 0,-1 0,-3 -3,-3 -3,0 -4,1 -4,4 0,1.105738 -0.95659,0.959577 -1,1 z" id="path3717" style="fill:#ffffff;stroke:none"/>
      <g transform="translate(58.958885,1.078373)" id="g3809">
        <g transform="scale(0.95401318,1.0482036)" id="text3719" style="font-size:19.08637428px;font-style:normal;font-weight:normal;fill:#ffffff;fill-opacity:1;stroke:none;font-family:Bitstream Vera Sans">
          <path d="m 46.187051,105.53676 -5.792454,-0.0422 -1.258863,3.2629 -1.889551,0 4.962457,-13.913967 2.290365,0 4.886112,13.913967 -1.984983,0 m -1.709329,-4.70947 -2.356068,-6.103344 -2.435641,6.061184" id="path3724" style="font-variant:normal;font-stretch:normal;fill:#ffffff;font-family:FreeSans;-inkscape-font-specification:FreeSans"/>
          <path d="m 61.561628,104.78753 c -1.2e-5,1.19609 -0.375377,2.15677 -1.126096,2.88205 -0.750741,0.72528 -1.743232,1.08792 -2.977475,1.08792 l -6.279417,0 0,-13.913967 5.649567,0 c 0.776171,1.4e-5 1.712607,0.114532 2.285206,0.343555 0.572582,0.229049 0.998844,0.534431 1.278788,0.916146 0.292647,0.369015 0.502596,0.74438 0.62985,1.126096 0.127231,0.369014 0.190852,0.750741 0.190864,1.145182 -1.2e-5,1.425125 -0.839124,2.764638 -2.189775,3.034738 0.890687,0.34356 1.533261,0.78254 1.927724,1.31696 0.407164,0.53442 0.610752,1.22153 0.610764,2.06132 m -5.172408,-3.95088 c 1.857732,10e-6 2.786601,-0.73799 2.786611,-2.214015 -1e-5,-1.476001 -0.928879,-2.214007 -2.786611,-2.214019 l -3.435547,0 0,4.428034 3.435547,0 m 0.89706,5.75951 c 1.459357,-0.13535 2.024031,-0.51504 2.36929,-1.78954 -10e-6,-0.72528 -0.216322,-1.30423 -0.648937,-1.73686 -0.432633,-0.44534 -0.918734,-0.66802 -1.720353,-0.66802 l -4.332607,0 0,4.19442 4.332607,0" id="path3726" style="font-variant:normal;font-stretch:normal;fill:#ffffff;font-family:FreeSans;-inkscape-font-specification:FreeSans"/>
        </g>
        <path d="M 68.968748,104.01563 71.046873,104 c 0,-2.28318 -1.747324,-4.59554 -4.9375,-4.718749 -3.190175,-0.123209 -4.670284,1.869179 -5.109374,4.718749 0,1.76563 0,5.40625 0,5.40625 0,1.71875 1.470961,4.40625 4.906249,4.40625 3.404065,0 5.15625,-2.02246 5.15625,-4.82812 0,0 -2.046875,0.0312 -2.046875,0.0312 0,1.56281 -1.140625,2.95312 -2.953125,2.95312 -1.8125,0 -3.046875,-1.59375 -3.046875,-2.875 0,-1.28125 0,-3.53125 0,-5.10937 0,-1.57813 1.609375,-2.86719 2.992188,-2.86719 1.382812,0 2.945312,1.13281 2.960937,2.89844 l 0,5e-5 z" id="path3730" style="fill:#ffffff;stroke:none"/>
        <path d="m 90.125,99 c -1.264214,0 -2.333004,0.804481 -2.71875,1.9375 l 1.65625,4.3125 0.90625,-2.75 0,7.5625 -3.03125,-8.28125 c -0.238261,-1.39814 -1.713887,-2.46875 -3.5,-2.46875 -1.577839,0 -2.889927,0.83993 -3.34375,2 l 1.375,3.65625 c 0.410252,-0.9665 1.338184,-2.5 1.75,-2.5 0.451422,0 1.114071,1.45169 1.5,2.40625 1.015955,2.53136 1.950876,5.1086 2.90625,7.65625 l 0.0625,0.1875 0.03125,-0.0312 c 0.511215,0.79782 1.389409,1.34375 2.40625,1.34375 1.502833,0 2.717618,-1.15456 2.84375,-2.625 l 0.03125,0 0,-0.25 0,-9.28125 c 0,-0.0103 1.09e-4,-0.0209 0,-0.0312 C 92.983383,100.27122 91.701182,99 90.125,99 z m -13.40625,0.0625 c -1.555536,0 -2.826048,1.2375 -2.875,2.78125 l 0,9.5625 0.03125,0 c 0.16796,1.42711 1.371886,2.53125 2.84375,2.53125 1.306719,0 2.401057,-0.86773 2.75,-2.0625 L 78,107.84375 76.59375,110 l 0,-7.75 3.375,9.09375 c 0.171996,1.45602 1.663065,2.59375 3.5,2.59375 1.607446,0 2.97029,-0.86867 3.40625,-2.0625 l -1.6875,-4.53125 c -0.384983,0.96365 -0.869807,2.96875 -1.96875,2.96875 -0.36774,0 -0.843063,-0.95964 -1.21875,-1.84375 -0.07306,-0.24151 -0.259716,-0.79823 -0.40625,-1.21875 l -0.40625,-1.15625 c -0.01111,-0.0307 -0.02005,-0.0631 -0.03125,-0.0937 -0.355345,-0.97988 -0.763953,-2.04811 -1.09375,-2.9375 0.03267,0.0807 0.106749,0.18807 0.15625,0.28125 l -0.28125,-0.75 c 0.01472,0.0932 0.03375,0.18949 0.0625,0.28125 -0.15256,-0.41104 -0.388037,-1.05487 -0.4375,-1.1875 -0.126132,-1.47044 -1.340917,-2.625 -2.84375,-2.625 z" id="path3732" style="fill:#ffffff;fill-opacity:1;stroke:none"/>
      </g>
    </g>
  </g>
</svg>
