<?xml version="1.0" encoding="UTF-8" standalone="no"?>
<!-- Created with Inkscape (http://www.inkscape.org/) -->
<svg
	xmlns:dc="http://purl.org/dc/elements/1.1/"
	xmlns:cc="http://creativecommons.org/ns#"
	xmlns:rdf="http://www.w3.org/1999/02/22-rdf-syntax-ns#"
	xmlns:svg="http://www.w3.org/2000/svg"
	xmlns="http://www.w3.org/2000/svg"
	xmlns:xlink="http://www.w3.org/1999/xlink"
	version="1.0"
	width="128"
	height="128">
	<defs>
		<filter color-interpolation-filters="sRGB" id="filter3780">
      <feGaussianBlur id="feGaussianBlur3782" stdDeviation="1.1884825"/>
    </filter>
	</defs>
	<metadata>
		<rdf:RDF>
			<cc:Work rdf:about="">
			<dc:format>image/svg+xml</dc:format>
			<dc:type rdf:resource="http://purl.org/dc/dcmitype/StillImage" />
			<dc:title>Plain Dig Radio Logo</dc:title>
			</cc:Work>
		</rdf:RDF>
	</metadata>
	<g transform="matrix(0.97187091,0,0,0.97187091,1.8002293,1.8002609)" id="g2992" style="fill:#ffffff;fill-opacity:0.39215686;filter:url(#filter3780)">
    <path d="m 58.973937,0.99999177 c -0.938783,0 -1.856901,0.0322948 -2.78534,0.0758807 C 88.332027,2.7644318 113.9111,30.2879 113.9111,63.981019 c -4e-5,33.693132 -25.579073,61.254521 -57.722503,62.943091 0.928439,0.0436 1.846557,0.0759 2.78534,0.0759 33.59638,0 60.874343,-28.238971 60.874333,-63.018971 0,-34.779999 -27.277988,-62.98103937 -60.874333,-62.9810272 z" id="path2994" style="fill:#ffffff;fill-opacity:0.39215686;stroke:none"/>
    <path d="m 30.817671,17.174151 c 23.121568,-7.8230389 48.781853,1.740632 60.182465,20.398823 l 7.535417,-2.431255 C 82.781308,10.200297 55.950735,5.0294663 30.817671,17.174151 z" id="path2996" style="fill:#ffffff;fill-opacity:0.39215686;stroke:none"/>
    <path d="M 79.284481,111.617 C 56.162914,119.44004 30.502629,109.87637 19.102017,91.21818 L 14.80225,92.605475 11.309398,87.281851 8.1517967,88.089149 11.5666,93.649436 C 27.320844,118.59086 54.151418,123.76169 79.284481,111.617 z" id="path2998" style="fill:#ffffff;fill-opacity:0.39215686;stroke:none"/>
    <path d="M 69.189203,99.712539 C 38.260498,110.78847 22.838547,83.615803 22.838547,83.615803 l 5.775317,-3.832561 c 0,0 9.329375,23.148648 40.575339,19.929297 z" id="path3000" style="fill:#ffffff;fill-opacity:0.39215686;fill-rule:evenodd;stroke:none"/>
    <path d="m 46.927372,27.259687 c 31.968217,-7.252998 44.6569,22.980967 44.6569,22.980967 l -6.909296,1.266953 c 0,0 -6.352404,-23.659887 -37.747604,-24.24792 z" id="path3002" style="fill:#ffffff;fill-opacity:0.39215686;fill-rule:evenodd;stroke:none"/>
    <path d="m 85.691208,43.834679 c -0.240219,0.01287 -0.519363,0.02792 -0.806282,0.07588 -4.590627,0.76653 -14.219892,6.606628 -14.219892,13.658537 1.2e-5,7.051896 0,8.737456 0,15.176151 1.2e-5,6.438682 7.723495,11.495934 12.314133,11.495934 4.590627,1.3e-5 7.697823,-2.619428 7.549737,-2.466124 1.1e-5,0 0,5.200333 0,8.726287 1.1e-5,3.525954 -5.32652,4.226303 -6.96335,4.173441 -4.895466,-0.153303 -3.966945,5.691055 -1.465968,5.691055 2.500989,0 6.644847,0 9.162302,0 2.517466,0 8.979052,-4.449051 8.979052,-9.295391 -10e-6,-4.846327 0,-41.025301 0,-43.631434 -10e-6,-2.606134 -3.718161,-2.392247 -4.544498,-0.910569 -0.826337,1.481665 -3.643342,4.954588 -5.790575,2.731707 -2.013021,-2.083941 -0.61132,-5.619438 -4.214659,-5.425474 z m 0.293194,8.04336 c 3.486647,0 6.303664,2.916237 6.303664,6.525745 l 0,12.10298 c 2.3e-5,3.609508 -2.816993,6.525746 -6.303664,6.525746 -3.486682,0 -6.267014,-2.916238 -6.267014,-6.525746 l 0,-12.10298 c 0,-3.609508 2.780343,-6.525745 6.267014,-6.525745 z" id="path3004" style="fill:#ffffff;fill-opacity:0.39215686;fill-rule:evenodd;stroke:none"/>
    <path d="m 56.298545,44.821129 c -2.625256,0 -4.727748,1.842409 -4.727748,4.135501 l 0,31.604335 c 0,2.293104 2.102527,4.135501 4.727748,4.135501 2.625244,0 4.727736,-1.842397 4.727748,-4.135501 l 0,-8.612466 -2.638743,0 c -2.215102,0 -3.994764,-2.176576 -3.994764,-4.894309 0,-2.717745 1.779697,-4.894309 3.994764,-4.894309 l 2.638743,0 0,-13.203251 c 0,-2.293092 -2.102469,-4.135501 -4.727748,-4.135501 z" id="path3006" style="fill:#ffffff;fill-opacity:0.39215686;stroke:none"/>
    <path d="m 60.452173,35.785503 a 3.9982995,4.1391618 0 0 1 -7.996599,0 3.9982995,4.1391618 0 1 1 7.996599,0 z" id="path3008" style="fill:#ffffff;fill-opacity:0.39215686;stroke:none"/>
    <path d="m 41.052475,24.978311 c -4.73876,-1.2e-5 -8.429317,4.385094 -8.429317,9.750677 3.5e-5,5.365595 0,14.227642 0,14.227642 3.5e-5,0 -2.823232,-3.680217 -8.759161,-3.680217 -9.193462,1.2e-5 -11.691096,10.281843 -11.691096,10.281843 1.1e-5,5.518886 0,14.879754 0,17.945798 1.1e-5,3.066044 4.59194,11.344173 10.811516,11.344173 6.219575,-1.2e-5 10.664919,-5.691056 10.664919,-5.691056 0,0 3.389776,5.463414 5.240836,5.463414 1.851072,0 2.456986,-2.391786 2.3089,-2.238482 2.3e-5,0 0,-44.748072 0,-46.894308 2.3e-5,-2.146223 2.208065,-5.159891 4.947643,-5.159891 2.739578,0 2.002313,0 3.335078,0 2.937143,-1.631703 1.844375,-4.891334 -1.39267,-5.349593 -3.046177,-1.2e-5 -2.297923,0 -7.036648,0 z M 27.052478,51.878039 c 3.486648,0 6.303664,2.916237 6.303664,6.525745 l 0,12.10298 c 2.3e-5,3.609508 -2.816993,6.525746 -6.303664,6.525746 -3.486682,0 -6.303663,-2.916238 -6.303663,-6.525746 l 0,-12.10298 c 0,-3.609508 2.816993,-6.525745 6.303663,-6.525745 z" id="path3010" style="fill:#ffffff;fill-opacity:0.39215686;fill-rule:evenodd;stroke:none"/>
  </g><g transform="matrix(0.97187091,0,0,0.97187091,1.800229,1.8002609)" id="g3780">
    <path d="m 58.973937,0.99999177 c -0.938783,0 -1.856901,0.0322948 -2.78534,0.0758807 C 88.332027,2.7644318 113.9111,30.2879 113.9111,63.981019 c -4e-5,33.693132 -25.579073,61.254521 -57.722503,62.943091 0.928439,0.0436 1.846557,0.0759 2.78534,0.0759 33.59638,0 60.874343,-28.238971 60.874333,-63.018971 0,-34.779999 -27.277988,-62.98103937 -60.874333,-62.9810272 z" id="path2398" style="fill:#000000;fill-opacity:1;stroke:none"/>
    <path d="m 30.817671,17.174151 c 23.121568,-7.8230389 48.781853,1.740632 60.182465,20.398823 l 7.535417,-2.431255 C 82.781308,10.200297 55.950735,5.0294663 30.817671,17.174151 z" id="path2401" style="fill:#000000;fill-opacity:1;stroke:none"/>
    <path d="M 79.284481,111.617 C 56.162914,119.44004 30.502629,109.87637 19.102017,91.21818 L 14.80225,92.605475 11.309398,87.281851 8.1517967,88.089149 11.5666,93.649436 C 27.320844,118.59086 54.151418,123.76169 79.284481,111.617 z" id="path2406" style="fill:#000000;fill-opacity:1;stroke:none"/>
    <path d="M 69.189203,99.712539 C 38.260498,110.78847 22.838547,83.615803 22.838547,83.615803 l 5.775317,-3.832561 c 0,0 9.329375,23.148648 40.575339,19.929297 z" id="path2408" style="fill:#000000;fill-opacity:1;fill-rule:evenodd;stroke:none"/>
    <path d="m 46.927372,27.259687 c 31.968217,-7.252998 44.6569,22.980967 44.6569,22.980967 l -6.909296,1.266953 c 0,0 -6.352404,-23.659887 -37.747604,-24.24792 z" id="path2410" style="fill:#000000;fill-opacity:1;fill-rule:evenodd;stroke:none"/>
    <path d="m 85.691208,43.834679 c -0.240219,0.01287 -0.519363,0.02792 -0.806282,0.07588 -4.590627,0.76653 -14.219892,6.606628 -14.219892,13.658537 1.2e-5,7.051896 0,8.737456 0,15.176151 1.2e-5,6.438682 7.723495,11.495934 12.314133,11.495934 4.590627,1.3e-5 7.697823,-2.619428 7.549737,-2.466124 1.1e-5,0 0,5.200333 0,8.726287 1.1e-5,3.525954 -5.32652,4.226303 -6.96335,4.173441 -4.895466,-0.153303 -3.966945,5.691055 -1.465968,5.691055 2.500989,0 6.644847,0 9.162302,0 2.517466,0 8.979052,-4.449051 8.979052,-9.295391 -10e-6,-4.846327 0,-41.025301 0,-43.631434 -10e-6,-2.606134 -3.718161,-2.392247 -4.544498,-0.910569 -0.826337,1.481665 -3.643342,4.954588 -5.790575,2.731707 -2.013021,-2.083941 -0.61132,-5.619438 -4.214659,-5.425474 z m 0.293194,8.04336 c 3.486647,0 6.303664,2.916237 6.303664,6.525745 l 0,12.10298 c 2.3e-5,3.609508 -2.816993,6.525746 -6.303664,6.525746 -3.486682,0 -6.267014,-2.916238 -6.267014,-6.525746 l 0,-12.10298 c 0,-3.609508 2.780343,-6.525745 6.267014,-6.525745 z" id="path2412" style="fill:#000000;fill-opacity:1;fill-rule:evenodd;stroke:none"/>
    <path d="m 56.298545,44.821129 c -2.625256,0 -4.727748,1.842409 -4.727748,4.135501 l 0,31.604335 c 0,2.293104 2.102527,4.135501 4.727748,4.135501 2.625244,0 4.727736,-1.842397 4.727748,-4.135501 l 0,-8.612466 -2.638743,0 c -2.215102,0 -3.994764,-2.176576 -3.994764,-4.894309 0,-2.717745 1.779697,-4.894309 3.994764,-4.894309 l 2.638743,0 0,-13.203251 c 0,-2.293092 -2.102469,-4.135501 -4.727748,-4.135501 z" id="rect2414" style="fill:#000000;fill-opacity:1;stroke:none"/>
    <path d="m 60.452173,35.785503 a 3.9982995,4.1391618 0 0 1 -7.996599,0 3.9982995,4.1391618 0 1 1 7.996599,0 z" id="path3190" style="fill:#000000;fill-opacity:1;stroke:none"/>
    <path d="m 41.052475,24.978311 c -4.73876,-1.2e-5 -8.429317,4.385094 -8.429317,9.750677 3.5e-5,5.365595 0,14.227642 0,14.227642 3.5e-5,0 -2.823232,-3.680217 -8.759161,-3.680217 -9.193462,1.2e-5 -11.691096,10.281843 -11.691096,10.281843 1.1e-5,5.518886 0,14.879754 0,17.945798 1.1e-5,3.066044 4.59194,11.344173 10.811516,11.344173 6.219575,-1.2e-5 10.664919,-5.691056 10.664919,-5.691056 0,0 3.389776,5.463414 5.240836,5.463414 1.851072,0 2.456986,-2.391786 2.3089,-2.238482 2.3e-5,0 0,-44.748072 0,-46.894308 2.3e-5,-2.146223 2.208065,-5.159891 4.947643,-5.159891 2.739578,0 2.002313,0 3.335078,0 2.937143,-1.631703 1.844375,-4.891334 -1.39267,-5.349593 -3.046177,-1.2e-5 -2.297923,0 -7.036648,0 z M 27.052478,51.878039 c 3.486648,0 6.303664,2.916237 6.303664,6.525745 l 0,12.10298 c 2.3e-5,3.609508 -2.816993,6.525746 -6.303664,6.525746 -3.486682,0 -6.303663,-2.916238 -6.303663,-6.525746 l 0,-12.10298 c 0,-3.609508 2.816993,-6.525745 6.303663,-6.525745 z" id="path3192" style="fill:#000000;fill-opacity:1;fill-rule:evenodd;stroke:none"/>
  </g>
</svg>
