<?xml version="1.0" encoding="UTF-8" standalone="no"?>
<!-- Created with Inkscape (http://www.inkscape.org/) -->
<svg
	xmlns:dc="http://purl.org/dc/elements/1.1/"
	xmlns:cc="http://creativecommons.org/ns#"
	xmlns:rdf="http://www.w3.org/1999/02/22-rdf-syntax-ns#"
	xmlns:svg="http://www.w3.org/2000/svg"
	xmlns="http://www.w3.org/2000/svg"
	xmlns:xlink="http://www.w3.org/1999/xlink"
	version="1.0"
	width="128"
	height="128">
	<defs>
		<linearGradient id="linearGradient3892">
      <stop id="stop3894" style="stop-color:#000000;stop-opacity:1" offset="0"/>
      <stop id="stop3896" style="stop-color:#d0004e;stop-opacity:1" offset="1"/>
    </linearGradient><filter color-interpolation-filters="sRGB" id="filter3848">
      <feGaussianBlur id="feGaussianBlur3850" stdDeviation="1.0832354"/>
    </filter><linearGradient x1="58.917404" y1="53.651695" x2="61.665203" y2="48.892368" id="linearGradient3937" xlink:href="#linearGradient3892" gradientUnits="userSpaceOnUse"/><linearGradient x1="89.421608" y1="65.59375" x2="84.837959" y2="72.488045" id="linearGradient3939" xlink:href="#linearGradient3892" gradientUnits="userSpaceOnUse"/><linearGradient x1="97.301483" y1="43.631596" x2="96.631912" y2="39.565735" id="linearGradient3941" xlink:href="#linearGradient3892" gradientUnits="userSpaceOnUse"/><linearGradient x1="108.03805" y1="72.4375" x2="108.03805" y2="69.549431" id="linearGradient3943" xlink:href="#linearGradient3892" gradientUnits="userSpaceOnUse"/>
	</defs>
	<metadata>
		<rdf:RDF>
			<cc:Work rdf:about="">
			<dc:format>image/svg+xml</dc:format>
			<dc:type rdf:resource="http://purl.org/dc/dcmitype/StillImage" />
			<dc:title>Plain Go! Logo</dc:title>
			</cc:Work>
		</rdf:RDF>
	</metadata>
	<g id="layer1">
    <g transform="matrix(1.1915998,0,0,1.1915998,-14.336435,-18.01558)" id="g3924">
      <path d="m 60.125,78.25 c 1.363798,5.089762 9,8.25 16.125,8.25 7.125,0 -14.375,-12.25 -14.375,-12.25 l -1.75,4 z" id="path3870" style="fill:#000000;stroke:none"/>
      <path d="m 80,42.8125 c 0,0 -7.4375,-0.375 -14.4375,3.6875 -7,4.0625 -8.9375,9.6875 -9.75,12.75 C 55,62.3125 58.375,64.5 58.375,64.5 L 72.625,46.5625 80,42.8125 z" id="path3053" style="fill:url(#linearGradient3937);fill-opacity:1;stroke:none"/>
      <path d="m 77.075825,52.888325 c 8.5,2.5625 10.71967,7.677697 10.71967,12.701903 C 87.795495,70.614434 82.75,76.125 76.4375,76.375 70.125,76.625 85.625,80 85.625,80 L 94.75,64.8125 88,51.1875 77.075825,52.888325 z" id="path3055" style="fill:url(#linearGradient3939);fill-opacity:1;stroke:none"/>
      <path d="m 103.8125,36 c 0,0 -5.875,1.875 -7.1875,2.4375 -1.3125,0.5625 -2.75,4.1875 -2.0625,5.625 0.6875,1.4375 10,20.8125 10,20.8125 L 109.625,64.75 103.8125,36 z" id="path3057" style="fill:url(#linearGradient3941);fill-opacity:1;stroke:none"/>
      <path d="m 114.75,67.75 -6,0.375 c 0,0 -4.0625,0.625 -3.6875,4.5 0.375,3.875 3.5625,4.375 3.5625,4.375 l 6.5625,0.125 -0.4375,-9.375 z" id="path3059" style="fill:url(#linearGradient3943);fill-opacity:1;stroke:none"/>
      <path d="m 104.3125,36.03125 c -0.57817,0.0151 -1.16042,0.139587 -1.71875,0.3125 -0.89335,0.276657 -1.71668,0.709527 -2.40625,1.28125 -1.696351,1.40868 -1.801391,3.96355 -0.90625,5.84375 3.2849,7.19078 6.98058,14.20643 10.25,21.40625 1.53685,-0.47584 3.04739,-1.02344 4.5625,-1.5625 -1.55159,-7.35461 -3.10132,-14.70904 -4.65625,-22.0625 -0.3945,-1.646639 -0.89185,-3.504455 -2.40625,-4.46875 -0.82439,-0.55103 -1.75515,-0.775158 -2.71875,-0.75 z M 79.25,42.8125 c -1.93028,0.0357 -3.88029,0.30559 -5.75,0.8125 -4.11336,1.1152 -7.92229,3.32714 -10.78125,6.5 -3.15044,3.55081 -5.26704,8.13359 -5.5,12.90625 l -3.6875,-13.5 -41.5,11.09375 11,41.03125 41.5,-11.09375 L 61.0625,77.5 c 4.51525,6.54582 12.88492,9.98224 20.71875,8.96875 6.16231,-0.7259 11.99216,-3.99858 15.65625,-9.03125 3.86092,-5.15462 5.17093,-12.14068 3.46875,-18.34375 C 99.78821,54.63573 97.1506,50.5886 93.59375,47.6875 89.59105,44.41407 84.40822,42.67622 79.25,42.8125 z m -0.5,10.71875 c 0.247175,-0.008 0.50355,-0.0115 0.75,0 1.643002,0.077 3.266631,0.58004 4.65625,1.46875 5.48754,3.25443 7.37389,11.30228 3.75,16.59375 -2.55632,3.95991 -8.17496,5.40951 -12.375,3.34375 -5.66411,-2.68982 -8.19476,-10.32497 -5.40625,-15.90625 1.08055,-2.23483 3.07273,-3.94636 5.375,-4.84375 0.34961,-0.13466 0.69959,-0.25101 1.0625,-0.34375 0.714479,-0.18258 1.445975,-0.28816 2.1875,-0.3125 z m 36.28125,14.1875 c -0.23305,-0.0124 -0.48128,0.004 -0.71875,0.0312 -0.48127,0.0307 -0.91306,0.13157 -1.34375,0.3125 -1.86636,0.78404 -3.16511,2.85325 -2.9375,4.90625 0.16936,2.95175 3.58735,5.03732 6.3125,3.9375 2.67622,-0.85234 3.84032,-4.20144 2.625,-6.65625 -0.8278,-1.40524 -2.30614,-2.44443 -3.9375,-2.53125 l 0,5e-5 z" id="path6" style="fill:#fe0072;fill-opacity:1"/>
      <path d="m 40.6875,54.125 c -0.988763,-0.0058 -2.021967,0.05422 -3,0.1875 -0.02107,0.01126 -0.04125,0.02 -0.0625,0.03125 -1.86266,0.986129 -4.388197,1.912827 -7.65625,2.3125 -0.484495,0.2337 -0.947816,0.487473 -1.40625,0.78125 -4.391693,2.656272 -7.844917,6.880997 -9.34375,11.8125 -1.042633,3.339018 -1.148912,6.926597 -0.4375,10.34375 0.0021,0.01002 -0.0021,0.02123 0,0.03125 l 0.53125,2.03125 c 0.0224,0.07174 0.03938,0.147194 0.0625,0.21875 0.407423,1.260527 0.933843,2.462534 1.5625,3.625 2.727426,5.161701 7.707381,9.072177 13.375,10.46875 2.343967,0.573111 4.814803,0.860393 7.21875,0.5625 L 49.375,94.4375 c 3.439447,-1.409701 6.353699,-3.949841 8.53125,-6.9375 1.701616,-2.370142 2.833894,-5.121448 3.40625,-7.96875 -1.566626,-4.024552 -3.214004,-8.286999 -4.53125,-11.59375 l -19.9375,5.34375 2.40625,8.0625 c 0,0 7.074604,-1.951955 10.9375,-2.96875 0.0055,2.515536 -1.20546,4.95334 -3.1875,6.5 -3.056791,2.430108 -6.789893,3.304947 -10.5,1.90625 -4.789763,-1.774258 -7.657239,-6.983124 -7.75,-11.9375 -0.10627,-3.518726 1.447157,-7.079031 4.3125,-9.1875 2.718832,-2.014418 5.671539,-2.842972 8.90625,-1.71875 1.573984,0.502498 3.012656,1.483156 4.15625,2.65625 0,0 5.304523,-1.250329 9.375,-2.34375 -0.385416,-1.586526 -0.437331,-2.961352 -0.1875,-4.34375 -3.879396,-3.700196 -9.248724,-5.749865 -14.625,-5.78125 z" id="path3842" style="fill:#000000;fill-opacity:1;stroke:none;filter:url(#filter3848)"/>
      <path d="m 35.286612,63.524049 c 4.10205,-0.331649 8.988438,1.306589 10.426777,3.215228" id="path3864" style="fill:none;stroke:#000000;stroke-width:1px;stroke-linecap:butt;stroke-linejoin:miter;stroke-opacity:1"/>
      <path d="m 49.76264,78.458331 c 0,0 -0.08839,4.154252 -3.18198,7.159456" id="path3868" style="fill:none;stroke:#000000;stroke-width:1px;stroke-linecap:butt;stroke-linejoin:miter;stroke-opacity:1"/>
      <path d="m 40.683709,53.946835 c -0.996421,-0.0058 -2.014568,0.05517 -3.000176,0.189485 -1.18472,0.27741 -2.382416,0.568272 -3.568631,0.884263 -1.97704,0.526655 -3.919011,1.162653 -5.652965,2.273817 -4.425708,2.676846 -7.900637,6.93626 -9.411079,11.90596 -1.050709,3.36488 -1.159053,6.97805 -0.442131,10.42167 0.0021,0.0101 -0.0021,0.0215 0,0.0316 l 0.536874,2.05275 c 0.02257,0.0723 0.03986,0.14896 0.06316,0.22107 0.410579,1.27029 0.945514,2.4919 1.57904,3.66337 2.748551,5.20168 7.773487,9.1406 13.485004,10.54799 2.362122,0.57755 4.841018,0.86865 7.263585,0.56845 l 7.8952,-2.11591 c 3.466087,-1.42062 6.427144,-4.00014 8.621561,-7.01094 3.63259,-5.05975 4.724902,-11.73825 3.221242,-17.74841 -0.247645,-0.97918 -0.496562,-1.92995 -0.75794,-2.90544 l -23.685603,6.34775 2.400141,8.11626 c 0,0 7.143136,-1.97835 11.035952,-3.00302 0.0055,2.53502 -1.22385,5.01016 -3.221242,6.5688 -3.080467,2.44893 -6.823396,3.30723 -10.562239,1.8977 -4.826862,-1.788 -7.738561,-7.00795 -7.83204,-12.0007 -0.107093,-3.54598 1.470614,-7.15996 4.35815,-9.28476 2.73989,-2.03002 5.726285,-2.83829 8.98605,-1.70536 1.586175,0.50639 3.016215,1.4706 4.168667,2.65278 0,0 8.275069,-1.92594 12.109927,-3.09492 L 58.147895,63.01054 C 54.343555,57.259689 47.508541,53.986676 40.683709,53.946835 z" id="rect3835" style="fill:#ffffff;fill-opacity:1;stroke:none"/>
      <path d="m 36.536612,73.393306 2.5625,8.0625" id="path3866" style="fill:none;stroke:#000000;stroke-width:1px;stroke-linecap:butt;stroke-linejoin:miter;stroke-opacity:1"/>
    </g>
  </g>
</svg>
