<?xml version="1.0" encoding="UTF-8" standalone="no"?>
<!-- Created with Inkscape (http://www.inkscape.org/) -->
<svg
	xmlns:dc="http://purl.org/dc/elements/1.1/"
	xmlns:cc="http://creativecommons.org/ns#"
	xmlns:rdf="http://www.w3.org/1999/02/22-rdf-syntax-ns#"
	xmlns:svg="http://www.w3.org/2000/svg"
	xmlns="http://www.w3.org/2000/svg"
	xmlns:xlink="http://www.w3.org/1999/xlink"
	version="1.0"
	width="128"
	height="128">
	<defs>
		<linearGradient id="linearGradient5712">
      <stop id="stop5714" style="stop-color:#60effd;stop-opacity:1" offset="0"/>
      <stop id="stop5716" style="stop-color:#1088ff;stop-opacity:1" offset="1"/>
    </linearGradient><linearGradient id="linearGradient5306">
      <stop id="stop5308" style="stop-color:#ffffff;stop-opacity:1" offset="0"/>
      <stop id="stop5310" style="stop-color:#ffffff;stop-opacity:0" offset="1"/>
    </linearGradient><linearGradient id="linearGradient5298">
      <stop id="stop5300" style="stop-color:#2e5e9f;stop-opacity:1" offset="0"/>
      <stop id="stop5302" style="stop-color:#2e5e9f;stop-opacity:0" offset="1"/>
    </linearGradient><linearGradient id="linearGradient5056">
      <stop id="stop5058" style="stop-color:#8ad4fd;stop-opacity:1" offset="0"/>
      <stop id="stop5060" style="stop-color:#1d80b6;stop-opacity:1" offset="1"/>
    </linearGradient><linearGradient id="linearGradient2898">
      <stop id="stop2900" style="stop-color:#3067ba;stop-opacity:1" offset="0"/>
      <stop id="stop5219" style="stop-color:#5583f5;stop-opacity:0" offset="0.5"/>
      <stop id="stop2902" style="stop-color:#2963c2;stop-opacity:1" offset="1"/>
    </linearGradient><linearGradient x1="89.008316" y1="50.287086" x2="89.008316" y2="76.925011" id="linearGradient5213" xlink:href="#linearGradient5712" gradientUnits="userSpaceOnUse"/><clipPath id="clipPath5243">
      <path d="m 71.01756,49.407082 c -1.54653,0.005 -2.53319,0.0044 -2.53127,0.03142 l 0,29.157472 19.00013,0 c 4.00003,0 7.00005,-3.40336 7.00005,-8.828936 0,-5.425576 -6.00004,-7.257948 -6.00004,-7.257948 0,0 5.00003,-2.118537 5.00003,-6.283937 0,-4.165401 -3.00002,-6.786651 -6.00004,-6.786651 -2.25002,0 -11.82929,-0.04663 -16.46886,-0.03142 z m -32.53147,0.03142 0.03125,29.157472 6.9688,0 0,-18.506203 11.00007,18.506203 7.00005,0 1,0 0,-29.157472 -7.00004,0 0,18.097743 -11.00008,-18.097743 -8.000051,0 z m 60.0004,0 0.0312,29.157472 6.96881,0 0,-18.506203 11.00007,18.506203 7.00005,0 1.00001,0 0,-29.157472 -7.00005,0 0,18.097743 -11.00007,-18.097743 -8.00007,0 z m -22.00014,5.058569 7.00004,0 c 0,0 2.71877,0.04732 2.71877,2.98487 0,2.937551 -2.71877,2.984872 -2.71877,2.984872 l -7.00004,0 0,-5.969742 z m 0,12.033743 8.00005,0 c 0,0 2.71877,0.04731 2.71877,2.984866 0,2.937547 -2.71877,3.016293 -2.71877,3.016293 l -8.00005,0 0,-6.001159 z" id="path5245" style="fill:url(#linearGradient5247);fill-opacity:1;stroke:none"/>
    </clipPath><linearGradient x1="81.826996" y1="78.849243" x2="81.826996" y2="50.203316" id="linearGradient5247" xlink:href="#linearGradient5056" gradientUnits="userSpaceOnUse" gradientTransform="matrix(1,0,0,1.0065985,0,-0.42230532)"/><filter x="-0.040182017" y="-0.11915886" width="1.080364" height="1.2383177" color-interpolation-filters="sRGB" id="filter5249">
      <feGaussianBlur id="feGaussianBlur5251" stdDeviation="1.4398647"/>
    </filter><linearGradient x1="81.826996" y1="78.849243" x2="81.826996" y2="45.040325" id="linearGradient5268" xlink:href="#linearGradient2898" gradientUnits="userSpaceOnUse" gradientTransform="matrix(1,0,0,0.99344474,0,0.419537)"/><radialGradient cx="12.278035" cy="53.109695" r="4.344893" fx="12.278035" fy="53.109695" id="radialGradient5630" xlink:href="#linearGradient5056" gradientUnits="userSpaceOnUse" gradientTransform="matrix(1.458691,0,0,1.458691,-5.6318239,-24.360938)"/><radialGradient cx="4.6437736" cy="76.696106" r="2.4376416" fx="4.6437736" fy="76.696106" id="radialGradient5632" xlink:href="#linearGradient5298" gradientUnits="userSpaceOnUse" gradientTransform="matrix(1.8593223,0,0,1.3877635,-3.7594132,-29.647901)"/><linearGradient x1="7" y1="74.171875" x2="9.78125" y2="74.171875" id="linearGradient5634" xlink:href="#linearGradient5306" gradientUnits="userSpaceOnUse" gradientTransform="translate(0,-1.0625)"/><radialGradient cx="12.278035" cy="53.109695" r="4.344893" fx="12.278035" fy="53.109695" id="radialGradient5636" xlink:href="#linearGradient5056" gradientUnits="userSpaceOnUse" gradientTransform="matrix(1.458691,0,0,1.458691,-5.6318239,-24.360938)"/><radialGradient cx="4.6437736" cy="76.696106" r="2.4376416" fx="4.6437736" fy="76.696106" id="radialGradient5638" xlink:href="#linearGradient5298" gradientUnits="userSpaceOnUse" gradientTransform="matrix(1.8593223,0,0,1.3877635,-3.7594132,-29.647901)"/><linearGradient x1="7" y1="74.171875" x2="9.78125" y2="74.171875" id="linearGradient5640" xlink:href="#linearGradient5306" gradientUnits="userSpaceOnUse" gradientTransform="translate(0,-1.0625)"/><radialGradient cx="12.278035" cy="53.109695" r="4.344893" fx="12.278035" fy="53.109695" id="radialGradient5642" xlink:href="#linearGradient5056" gradientUnits="userSpaceOnUse" gradientTransform="matrix(1.458691,0,0,1.458691,-5.6318239,-24.360938)"/><radialGradient cx="4.6437736" cy="76.696106" r="2.4376416" fx="4.6437736" fy="76.696106" id="radialGradient5644" xlink:href="#linearGradient5298" gradientUnits="userSpaceOnUse" gradientTransform="matrix(1.8593223,0,0,1.3877635,-3.7594132,-29.647901)"/><linearGradient x1="7" y1="74.171875" x2="9.78125" y2="74.171875" id="linearGradient5646" xlink:href="#linearGradient5306" gradientUnits="userSpaceOnUse" gradientTransform="translate(0,-1.0625)"/><radialGradient cx="12.278035" cy="53.109695" r="4.344893" fx="12.278035" fy="53.109695" id="radialGradient5648" xlink:href="#linearGradient5056" gradientUnits="userSpaceOnUse" gradientTransform="matrix(1.458691,0,0,1.458691,-5.6318239,-24.360938)"/><radialGradient cx="4.6437736" cy="76.696106" r="2.4376416" fx="4.6437736" fy="76.696106" id="radialGradient5650" xlink:href="#linearGradient5298" gradientUnits="userSpaceOnUse" gradientTransform="matrix(1.8593223,0,0,1.3877635,-3.7594132,-29.647901)"/><linearGradient x1="7" y1="74.171875" x2="9.78125" y2="74.171875" id="linearGradient5652" xlink:href="#linearGradient5306" gradientUnits="userSpaceOnUse" gradientTransform="translate(0,-1.0625)"/><radialGradient cx="12.278035" cy="53.109695" r="4.344893" fx="12.278035" fy="53.109695" id="radialGradient5654" xlink:href="#linearGradient5056" gradientUnits="userSpaceOnUse" gradientTransform="matrix(1.458691,0,0,1.458691,-5.6318239,-24.360938)"/><radialGradient cx="4.6437736" cy="76.696106" r="2.4376416" fx="4.6437736" fy="76.696106" id="radialGradient5656" xlink:href="#linearGradient5298" gradientUnits="userSpaceOnUse" gradientTransform="matrix(1.8593223,0,0,1.3877635,-3.7594132,-29.647901)"/><linearGradient x1="7" y1="74.171875" x2="9.78125" y2="74.171875" id="linearGradient5658" xlink:href="#linearGradient5306" gradientUnits="userSpaceOnUse" gradientTransform="translate(0,-1.0625)"/><radialGradient cx="12.278035" cy="53.109695" r="4.344893" fx="12.278035" fy="53.109695" id="radialGradient5660" xlink:href="#linearGradient5056" gradientUnits="userSpaceOnUse" gradientTransform="matrix(1.458691,0,0,1.458691,-5.6318239,-24.360938)"/><radialGradient cx="4.6437736" cy="76.696106" r="2.4376416" fx="4.6437736" fy="76.696106" id="radialGradient5662" xlink:href="#linearGradient5298" gradientUnits="userSpaceOnUse" gradientTransform="matrix(1.8593223,0,0,1.3877635,-3.7594132,-29.647901)"/><linearGradient x1="7" y1="74.171875" x2="9.78125" y2="74.171875" id="linearGradient5664" xlink:href="#linearGradient5306" gradientUnits="userSpaceOnUse" gradientTransform="translate(0,-1.0625)"/><radialGradient cx="12.278035" cy="53.109695" r="4.344893" fx="12.278035" fy="53.109695" id="radialGradient5666" xlink:href="#linearGradient5056" gradientUnits="userSpaceOnUse" gradientTransform="matrix(1.458691,0,0,1.458691,-5.6318239,-24.360938)"/><radialGradient cx="4.6437736" cy="76.696106" r="2.4376416" fx="4.6437736" fy="76.696106" id="radialGradient5668" xlink:href="#linearGradient5298" gradientUnits="userSpaceOnUse" gradientTransform="matrix(1.8593223,0,0,1.3877635,-3.7594132,-29.647901)"/><linearGradient x1="7" y1="74.171875" x2="9.78125" y2="74.171875" id="linearGradient5670" xlink:href="#linearGradient5306" gradientUnits="userSpaceOnUse" gradientTransform="translate(0,-1.0625)"/><radialGradient cx="12.278035" cy="53.109695" r="4.344893" fx="12.278035" fy="53.109695" id="radialGradient5672" xlink:href="#linearGradient5056" gradientUnits="userSpaceOnUse" gradientTransform="matrix(1.458691,0,0,1.458691,-5.6318239,-24.360938)"/><radialGradient cx="4.6437736" cy="76.696106" r="2.4376416" fx="4.6437736" fy="76.696106" id="radialGradient5674" xlink:href="#linearGradient5298" gradientUnits="userSpaceOnUse" gradientTransform="matrix(1.8593223,0,0,1.3877635,-3.7594132,-29.647901)"/><linearGradient x1="7" y1="74.171875" x2="9.78125" y2="74.171875" id="linearGradient5676" xlink:href="#linearGradient5306" gradientUnits="userSpaceOnUse" gradientTransform="translate(0,-1.0625)"/><radialGradient cx="12.278035" cy="53.109695" r="4.344893" fx="12.278035" fy="53.109695" id="radialGradient5678" xlink:href="#linearGradient5056" gradientUnits="userSpaceOnUse" gradientTransform="matrix(1.458691,0,0,1.458691,-5.6318239,-24.360938)"/><radialGradient cx="4.6437736" cy="76.696106" r="2.4376416" fx="4.6437736" fy="76.696106" id="radialGradient5680" xlink:href="#linearGradient5298" gradientUnits="userSpaceOnUse" gradientTransform="matrix(1.8593223,0,0,1.3877635,-3.7594132,-29.647901)"/><linearGradient x1="7" y1="74.171875" x2="9.78125" y2="74.171875" id="linearGradient5682" xlink:href="#linearGradient5306" gradientUnits="userSpaceOnUse" gradientTransform="translate(0,-1.0625)"/><filter color-interpolation-filters="sRGB" id="filter5708">
      <feGaussianBlur id="feGaussianBlur5710" stdDeviation="0.55545873"/>
    </filter><linearGradient x1="89.008316" y1="50.287086" x2="89.008316" y2="76.925011" id="linearGradient9771" xlink:href="#linearGradient5712" gradientUnits="userSpaceOnUse"/><linearGradient x1="81.826996" y1="78.849243" x2="81.826996" y2="45.040325" id="linearGradient9773" xlink:href="#linearGradient2898" gradientUnits="userSpaceOnUse" gradientTransform="matrix(1,0,0,0.99344474,0,0.419537)"/><radialGradient cx="12.278035" cy="53.109695" r="4.344893" fx="12.278035" fy="53.109695" id="radialGradient9775" xlink:href="#linearGradient5056" gradientUnits="userSpaceOnUse" gradientTransform="matrix(1.458691,0,0,1.458691,-5.6318239,-24.360938)"/><radialGradient cx="4.6437736" cy="76.696106" r="2.4376416" fx="4.6437736" fy="76.696106" id="radialGradient9777" xlink:href="#linearGradient5298" gradientUnits="userSpaceOnUse" gradientTransform="matrix(1.8593223,0,0,1.3877635,-3.7594132,-29.647901)"/><linearGradient x1="7" y1="74.171875" x2="9.78125" y2="74.171875" id="linearGradient9779" xlink:href="#linearGradient5306" gradientUnits="userSpaceOnUse" gradientTransform="translate(0,-1.0625)"/><radialGradient cx="12.278035" cy="53.109695" r="4.344893" fx="12.278035" fy="53.109695" id="radialGradient9781" xlink:href="#linearGradient5056" gradientUnits="userSpaceOnUse" gradientTransform="matrix(1.458691,0,0,1.458691,-5.6318239,-24.360938)"/><radialGradient cx="4.6437736" cy="76.696106" r="2.4376416" fx="4.6437736" fy="76.696106" id="radialGradient9783" xlink:href="#linearGradient5298" gradientUnits="userSpaceOnUse" gradientTransform="matrix(1.8593223,0,0,1.3877635,-3.7594132,-29.647901)"/><linearGradient x1="7" y1="74.171875" x2="9.78125" y2="74.171875" id="linearGradient9785" xlink:href="#linearGradient5306" gradientUnits="userSpaceOnUse" gradientTransform="translate(0,-1.0625)"/><radialGradient cx="12.278035" cy="53.109695" r="4.344893" fx="12.278035" fy="53.109695" id="radialGradient9787" xlink:href="#linearGradient5056" gradientUnits="userSpaceOnUse" gradientTransform="matrix(1.458691,0,0,1.458691,-5.6318239,-24.360938)"/><radialGradient cx="4.6437736" cy="76.696106" r="2.4376416" fx="4.6437736" fy="76.696106" id="radialGradient9789" xlink:href="#linearGradient5298" gradientUnits="userSpaceOnUse" gradientTransform="matrix(1.8593223,0,0,1.3877635,-3.7594132,-29.647901)"/><linearGradient x1="7" y1="74.171875" x2="9.78125" y2="74.171875" id="linearGradient9791" xlink:href="#linearGradient5306" gradientUnits="userSpaceOnUse" gradientTransform="translate(0,-1.0625)"/><radialGradient cx="12.278035" cy="53.109695" r="4.344893" fx="12.278035" fy="53.109695" id="radialGradient9793" xlink:href="#linearGradient5056" gradientUnits="userSpaceOnUse" gradientTransform="matrix(1.458691,0,0,1.458691,-5.6318239,-24.360938)"/><radialGradient cx="4.6437736" cy="76.696106" r="2.4376416" fx="4.6437736" fy="76.696106" id="radialGradient9795" xlink:href="#linearGradient5298" gradientUnits="userSpaceOnUse" gradientTransform="matrix(1.8593223,0,0,1.3877635,-3.7594132,-29.647901)"/><linearGradient x1="7" y1="74.171875" x2="9.78125" y2="74.171875" id="linearGradient9797" xlink:href="#linearGradient5306" gradientUnits="userSpaceOnUse" gradientTransform="translate(0,-1.0625)"/><radialGradient cx="12.278035" cy="53.109695" r="4.344893" fx="12.278035" fy="53.109695" id="radialGradient9799" xlink:href="#linearGradient5056" gradientUnits="userSpaceOnUse" gradientTransform="matrix(1.458691,0,0,1.458691,-5.6318239,-24.360938)"/><radialGradient cx="4.6437736" cy="76.696106" r="2.4376416" fx="4.6437736" fy="76.696106" id="radialGradient9801" xlink:href="#linearGradient5298" gradientUnits="userSpaceOnUse" gradientTransform="matrix(1.8593223,0,0,1.3877635,-3.7594132,-29.647901)"/><linearGradient x1="7" y1="74.171875" x2="9.78125" y2="74.171875" id="linearGradient9803" xlink:href="#linearGradient5306" gradientUnits="userSpaceOnUse" gradientTransform="translate(0,-1.0625)"/><radialGradient cx="12.278035" cy="53.109695" r="4.344893" fx="12.278035" fy="53.109695" id="radialGradient9805" xlink:href="#linearGradient5056" gradientUnits="userSpaceOnUse" gradientTransform="matrix(1.458691,0,0,1.458691,-5.6318239,-24.360938)"/><radialGradient cx="4.6437736" cy="76.696106" r="2.4376416" fx="4.6437736" fy="76.696106" id="radialGradient9807" xlink:href="#linearGradient5298" gradientUnits="userSpaceOnUse" gradientTransform="matrix(1.8593223,0,0,1.3877635,-3.7594132,-29.647901)"/><linearGradient x1="7" y1="74.171875" x2="9.78125" y2="74.171875" id="linearGradient9809" xlink:href="#linearGradient5306" gradientUnits="userSpaceOnUse" gradientTransform="translate(0,-1.0625)"/><radialGradient cx="12.278035" cy="53.109695" r="4.344893" fx="12.278035" fy="53.109695" id="radialGradient9811" xlink:href="#linearGradient5056" gradientUnits="userSpaceOnUse" gradientTransform="matrix(1.458691,0,0,1.458691,-5.6318239,-24.360938)"/><radialGradient cx="4.6437736" cy="76.696106" r="2.4376416" fx="4.6437736" fy="76.696106" id="radialGradient9813" xlink:href="#linearGradient5298" gradientUnits="userSpaceOnUse" gradientTransform="matrix(1.8593223,0,0,1.3877635,-3.7594132,-29.647901)"/><linearGradient x1="7" y1="74.171875" x2="9.78125" y2="74.171875" id="linearGradient9815" xlink:href="#linearGradient5306" gradientUnits="userSpaceOnUse" gradientTransform="translate(0,-1.0625)"/><radialGradient cx="12.278035" cy="53.109695" r="4.344893" fx="12.278035" fy="53.109695" id="radialGradient9817" xlink:href="#linearGradient5056" gradientUnits="userSpaceOnUse" gradientTransform="matrix(1.458691,0,0,1.458691,-5.6318239,-24.360938)"/><radialGradient cx="4.6437736" cy="76.696106" r="2.4376416" fx="4.6437736" fy="76.696106" id="radialGradient9819" xlink:href="#linearGradient5298" gradientUnits="userSpaceOnUse" gradientTransform="matrix(1.8593223,0,0,1.3877635,-3.7594132,-29.647901)"/><linearGradient x1="7" y1="74.171875" x2="9.78125" y2="74.171875" id="linearGradient9821" xlink:href="#linearGradient5306" gradientUnits="userSpaceOnUse" gradientTransform="translate(0,-1.0625)"/><radialGradient cx="12.278035" cy="53.109695" r="4.344893" fx="12.278035" fy="53.109695" id="radialGradient9823" xlink:href="#linearGradient5056" gradientUnits="userSpaceOnUse" gradientTransform="matrix(1.458691,0,0,1.458691,-5.6318239,-24.360938)"/><radialGradient cx="4.6437736" cy="76.696106" r="2.4376416" fx="4.6437736" fy="76.696106" id="radialGradient9825" xlink:href="#linearGradient5298" gradientUnits="userSpaceOnUse" gradientTransform="matrix(1.8593223,0,0,1.3877635,-3.7594132,-29.647901)"/><linearGradient x1="7" y1="74.171875" x2="9.78125" y2="74.171875" id="linearGradient9827" xlink:href="#linearGradient5306" gradientUnits="userSpaceOnUse" gradientTransform="translate(0,-1.0625)"/><linearGradient x1="89.008316" y1="50.287086" x2="89.008316" y2="76.925011" id="linearGradient9873" xlink:href="#linearGradient5712" gradientUnits="userSpaceOnUse" gradientTransform="matrix(1.0448753,0,0,1.0448753,-3.0989694,-2.9009844)"/>
	</defs>
	<metadata>
		<rdf:RDF>
			<cc:Work rdf:about="">
			<dc:format>image/svg+xml</dc:format>
			<dc:type rdf:resource="http://purl.org/dc/dcmitype/StillImage" />
			<dc:title>Plain NBN Logo</dc:title>
			</cc:Work>
		</rdf:RDF>
	</metadata>
	<g id="layer1">
    <path d="m 71.105524,48.823209 c -1.615926,0.0052 -2.646868,0.0046 -2.644859,0.03261 l 0,30.26621 19.852764,0 c 4.179529,0 7.314176,-3.532776 7.314176,-9.164664 0,-5.631889 -6.269293,-7.533938 -6.269293,-7.533938 0,0 5.224412,-2.199097 5.224412,-6.522889 0,-4.323794 -3.134648,-7.044719 -6.269295,-7.044719 -2.350985,0 -12.360129,-0.0484 -17.207905,-0.03261 z m -33.991329,0.03261 0.03265,30.26621 7.281523,0 0,-19.209918 11.493705,19.209918 7.314176,0 1.044883,0 0,-30.26621 -7.314176,0 0,18.785924 -11.493706,-18.785924 -8.359059,0 z m 62.692935,0 0.0326,30.26621 7.28154,0 0,-19.209918 11.4937,19.209918 7.31418,0 1.04489,0 0,-30.26621 -7.31418,0 0,18.785924 -11.49371,-18.785924 -8.359072,0 z m -22.987407,5.250925 7.314176,0 c 0,0 2.840775,0.04912 2.840775,3.098372 0,3.049255 -2.840775,3.098374 -2.840775,3.098374 l -7.314176,0 0,-6.196746 z m 0,12.491336 8.359059,0 c 0,0 2.840774,0.04911 2.840774,3.098369 0,3.049249 -2.840774,3.13099 -2.840774,3.13099 l -8.359059,0 0,-6.229359 z" id="path5031" style="fill:url(#linearGradient9873);fill-opacity:1;stroke:none"/>
    <path d="m 38.5,49.625 0.03125,28.78125 6.96875,0 0,-18.25 11,18.25 7,0 1,0 0,-9.53125 c -2.510125,-0.699167 -4.84344,-1.571617 -7,-2.5625 l 0,1.1875 -1.03125,-1.6875 C 48.540424,61.892653 43.5,56.101384 43.5,49.625 l -5,0 z m 79.5,0 c 0,1.182506 -0.17817,2.338471 -0.5,3.46875 l 0,14.40625 -4.4375,-7.25 c -1.43936,1.439163 -3.16246,2.765158 -5.125,3.96875 l 8.5625,14.1875 7,0 1,0 0,-28.78125 -6.5,0 z m -12.5,15.96875 c -2.12262,1.084639 -4.45306,2.026662 -6.96875,2.8125 l 0,10 6.96875,0 0,-12.8125 z m -11.03125,3.875 C 92.086491,70.010836 89.593976,70.436211 87,70.6875 c -0.640924,1.664815 -2.5,1.71875 -2.5,1.71875 l -8,0 0,-1.5625 c -2.772612,-0.180537 -5.44624,-0.521026 -8,-1.03125 l 0,8.59375 19,0 c 4.000027,0 7,-3.364074 7,-8.71875 0,-0.0759 -0.02887,-0.144266 -0.03125,-0.21875 z" transform="matrix(1.0448753,0,0,1.0448753,-3.0989694,-2.9009844)" clip-path="url(#clipPath5243)" id="path5215" style="fill:url(#linearGradient9773);fill-opacity:1;stroke:none;filter:url(#filter5249)"/>
    <path d="m 71.105524,48.823209 c -1.615926,0.0052 -2.646868,0.0046 -2.644859,0.03261 l 0,30.266207 19.852764,0 c 4.179529,0 7.314176,-3.532773 7.314176,-9.16466 0,-5.631889 -6.269293,-7.533938 -6.269293,-7.533938 0,0 5.224412,-2.199094 5.224412,-6.52289 0,-4.323794 -3.134648,-7.044719 -6.269295,-7.044719 -2.350985,0 -12.360129,-0.0484 -17.207905,-0.03261 z m -33.991329,0.03261 0.03265,30.266207 7.281523,0 0,-19.209911 11.493705,19.209911 7.314176,0 1.044883,0 0,-30.266207 -7.314176,0 0,18.78592 -11.493706,-18.78592 -8.359059,0 z m 62.692935,0 0.0326,30.266207 7.28154,0 0,-19.209911 11.4937,19.209911 7.31418,0 1.04489,0 0,-30.266207 -7.31418,0 0,18.78592 -11.49371,-18.78592 -8.359072,0 z m -22.987407,5.250925 7.314176,0 c 0,0 2.840775,0.04912 2.840775,3.098372 0,3.049255 -2.840775,3.098373 -2.840775,3.098373 l -7.314176,0 0,-6.196745 z m 0,12.491333 8.359059,0 c 0,0 2.840774,0.04912 2.840774,3.098373 0,3.049253 -2.840774,3.130987 -2.840774,3.130987 l -8.359059,0 0,-6.22936 z" id="path5233" style="fill:none;stroke:#2e5e9f;stroke-width:1.04427207px;stroke-linecap:butt;stroke-linejoin:miter;stroke-opacity:1"/>
    <g transform="matrix(1.0448753,0,0,1.0448753,-3.0989694,-2.9009844)" id="g5550">
      <g id="g5552">
        <g id="g5554">
          <path d="m 14.760853,54.063148 a 3.844893,3.844893 0 1 1 -7.6897857,0 3.844893,3.844893 0 1 1 7.6897857,0 z" transform="matrix(0.91771785,0,0,0.91771785,-3.0645117,25.397898)" id="path5556" style="fill:url(#radialGradient9775);fill-opacity:1;fill-rule:evenodd;stroke:#2e5e9f;stroke-opacity:1"/>
          <path d="m 7.5,74.03125 c -2.4375,0 -3.5625,0.34375 -3.59375,1.5 -0.03125,1.15625 2.53125,1.28125 3.875,1.03125" id="path5558" style="fill:none;stroke:url(#radialGradient9777);stroke-width:1px;stroke-linecap:round;stroke-linejoin:miter;stroke-opacity:1"/>
          <path d="m 7.5,72.5625 c 1.1875,0 2.09375,1.78125 2.09375,1.78125" id="path5560" style="fill:none;stroke:url(#linearGradient9779);stroke-width:1px;stroke-linecap:round;stroke-linejoin:miter;stroke-opacity:1"/>
        </g>
        <g transform="translate(11.048543,0)" id="g5562">
          <path d="m 14.760853,54.063148 a 3.844893,3.844893 0 1 1 -7.6897857,0 3.844893,3.844893 0 1 1 7.6897857,0 z" transform="matrix(0.91771785,0,0,0.91771785,-3.0645117,25.397898)" id="path5564" style="fill:url(#radialGradient9781);fill-opacity:1;fill-rule:evenodd;stroke:#2e5e9f;stroke-opacity:1"/>
          <path d="m 7.5,74.03125 c -2.4375,0 -3.5625,0.34375 -3.59375,1.5 -0.03125,1.15625 2.53125,1.28125 3.875,1.03125" id="path5566" style="fill:none;stroke:url(#radialGradient9783);stroke-width:1px;stroke-linecap:round;stroke-linejoin:miter;stroke-opacity:1"/>
          <path d="m 7.5,72.5625 c 1.1875,0 2.09375,1.78125 2.09375,1.78125" id="path5568" style="fill:none;stroke:url(#linearGradient9785);stroke-width:1px;stroke-linecap:round;stroke-linejoin:miter;stroke-opacity:1"/>
        </g>
        <g transform="translate(22.052892,0)" id="g5570">
          <path d="m 14.760853,54.063148 a 3.844893,3.844893 0 1 1 -7.6897857,0 3.844893,3.844893 0 1 1 7.6897857,0 z" transform="matrix(0.91771785,0,0,0.91771785,-3.0645117,25.397898)" id="path5572" style="fill:url(#radialGradient9787);fill-opacity:1;fill-rule:evenodd;stroke:#2e5e9f;stroke-opacity:1"/>
          <path d="m 7.5,74.03125 c -2.4375,0 -3.5625,0.34375 -3.59375,1.5 -0.03125,1.15625 2.53125,1.28125 3.875,1.03125" id="path5574" style="fill:none;stroke:url(#radialGradient9789);stroke-width:1px;stroke-linecap:round;stroke-linejoin:miter;stroke-opacity:1"/>
          <path d="m 7.5,72.5625 c 1.1875,0 2.09375,1.78125 2.09375,1.78125" id="path5576" style="fill:none;stroke:url(#linearGradient9791);stroke-width:1px;stroke-linecap:round;stroke-linejoin:miter;stroke-opacity:1"/>
        </g>
      </g>
      <g transform="translate(0,-11.004349)" id="g5578">
        <g id="g5580">
          <path d="m 14.760853,54.063148 a 3.844893,3.844893 0 1 1 -7.6897857,0 3.844893,3.844893 0 1 1 7.6897857,0 z" transform="matrix(0.91771785,0,0,0.91771785,-3.0645117,25.397898)" id="path5582" style="fill:url(#radialGradient9793);fill-opacity:1;fill-rule:evenodd;stroke:#2e5e9f;stroke-opacity:1"/>
          <path d="m 7.5,74.03125 c -2.4375,0 -3.5625,0.34375 -3.59375,1.5 -0.03125,1.15625 2.53125,1.28125 3.875,1.03125" id="path5584" style="fill:none;stroke:url(#radialGradient9795);stroke-width:1px;stroke-linecap:round;stroke-linejoin:miter;stroke-opacity:1"/>
          <path d="m 7.5,72.5625 c 1.1875,0 2.09375,1.78125 2.09375,1.78125" id="path5586" style="fill:none;stroke:url(#linearGradient9797);stroke-width:1px;stroke-linecap:round;stroke-linejoin:miter;stroke-opacity:1"/>
        </g>
        <g transform="translate(11.048543,0)" id="g5588">
          <path d="m 14.760853,54.063148 a 3.844893,3.844893 0 1 1 -7.6897857,0 3.844893,3.844893 0 1 1 7.6897857,0 z" transform="matrix(0.91771785,0,0,0.91771785,-3.0645117,25.397898)" id="path5590" style="fill:url(#radialGradient9799);fill-opacity:1;fill-rule:evenodd;stroke:#2e5e9f;stroke-opacity:1"/>
          <path d="m 7.5,74.03125 c -2.4375,0 -3.5625,0.34375 -3.59375,1.5 -0.03125,1.15625 2.53125,1.28125 3.875,1.03125" id="path5592" style="fill:none;stroke:url(#radialGradient9801);stroke-width:1px;stroke-linecap:round;stroke-linejoin:miter;stroke-opacity:1"/>
          <path d="m 7.5,72.5625 c 1.1875,0 2.09375,1.78125 2.09375,1.78125" id="path5594" style="fill:none;stroke:url(#linearGradient9803);stroke-width:1px;stroke-linecap:round;stroke-linejoin:miter;stroke-opacity:1"/>
        </g>
        <g transform="translate(22.052892,0)" id="g5596">
          <path d="m 14.760853,54.063148 a 3.844893,3.844893 0 1 1 -7.6897857,0 3.844893,3.844893 0 1 1 7.6897857,0 z" transform="matrix(0.91771785,0,0,0.91771785,-3.0645117,25.397898)" id="path5598" style="fill:url(#radialGradient9805);fill-opacity:1;fill-rule:evenodd;stroke:#2e5e9f;stroke-opacity:1"/>
          <path d="m 7.5,74.03125 c -2.4375,0 -3.5625,0.34375 -3.59375,1.5 -0.03125,1.15625 2.53125,1.28125 3.875,1.03125" id="path5600" style="fill:none;stroke:url(#radialGradient9807);stroke-width:1px;stroke-linecap:round;stroke-linejoin:miter;stroke-opacity:1"/>
          <path d="m 7.5,72.5625 c 1.1875,0 2.09375,1.78125 2.09375,1.78125" id="path5602" style="fill:none;stroke:url(#linearGradient9809);stroke-width:1px;stroke-linecap:round;stroke-linejoin:miter;stroke-opacity:1"/>
        </g>
      </g>
      <g transform="translate(0,-22.052892)" id="g5604">
        <g id="g5606">
          <path d="m 14.760853,54.063148 a 3.844893,3.844893 0 1 1 -7.6897857,0 3.844893,3.844893 0 1 1 7.6897857,0 z" transform="matrix(0.91771785,0,0,0.91771785,-3.0645117,25.397898)" id="path5608" style="fill:url(#radialGradient9811);fill-opacity:1;fill-rule:evenodd;stroke:#2e5e9f;stroke-opacity:1"/>
          <path d="m 7.5,74.03125 c -2.4375,0 -3.5625,0.34375 -3.59375,1.5 -0.03125,1.15625 2.53125,1.28125 3.875,1.03125" id="path5610" style="fill:none;stroke:url(#radialGradient9813);stroke-width:1px;stroke-linecap:round;stroke-linejoin:miter;stroke-opacity:1"/>
          <path d="m 7.5,72.5625 c 1.1875,0 2.09375,1.78125 2.09375,1.78125" id="path5612" style="fill:none;stroke:url(#linearGradient9815);stroke-width:1px;stroke-linecap:round;stroke-linejoin:miter;stroke-opacity:1"/>
        </g>
        <g transform="translate(11.048543,0)" id="g5614">
          <path d="m 14.760853,54.063148 a 3.844893,3.844893 0 1 1 -7.6897857,0 3.844893,3.844893 0 1 1 7.6897857,0 z" transform="matrix(0.91771785,0,0,0.91771785,-3.0645117,25.397898)" id="path5616" style="fill:url(#radialGradient9817);fill-opacity:1;fill-rule:evenodd;stroke:#2e5e9f;stroke-opacity:1"/>
          <path d="m 7.5,74.03125 c -2.4375,0 -3.5625,0.34375 -3.59375,1.5 -0.03125,1.15625 2.53125,1.28125 3.875,1.03125" id="path5618" style="fill:none;stroke:url(#radialGradient9819);stroke-width:1px;stroke-linecap:round;stroke-linejoin:miter;stroke-opacity:1"/>
          <path d="m 7.5,72.5625 c 1.1875,0 2.09375,1.78125 2.09375,1.78125" id="path5620" style="fill:none;stroke:url(#linearGradient9821);stroke-width:1px;stroke-linecap:round;stroke-linejoin:miter;stroke-opacity:1"/>
        </g>
        <g transform="translate(22.052892,0)" id="g5622">
          <path d="m 14.760853,54.063148 a 3.844893,3.844893 0 1 1 -7.6897857,0 3.844893,3.844893 0 1 1 7.6897857,0 z" transform="matrix(0.91771785,0,0,0.91771785,-3.0645117,25.397898)" id="path5624" style="fill:url(#radialGradient9823);fill-opacity:1;fill-rule:evenodd;stroke:#2e5e9f;stroke-opacity:1"/>
          <path d="m 7.5,74.03125 c -2.4375,0 -3.5625,0.34375 -3.59375,1.5 -0.03125,1.15625 2.53125,1.28125 3.875,1.03125" id="path5626" style="fill:none;stroke:url(#radialGradient9825);stroke-width:1px;stroke-linecap:round;stroke-linejoin:miter;stroke-opacity:1"/>
          <path d="m 7.5,72.5625 c 1.1875,0 2.09375,1.78125 2.09375,1.78125" id="path5628" style="fill:none;stroke:url(#linearGradient9827);stroke-width:1px;stroke-linecap:round;stroke-linejoin:miter;stroke-opacity:1"/>
        </g>
      </g>
    </g>
    <path d="m 71.40456,50.507613 c -1.51137,0.0047 -2.47561,0.0041 -2.47373,0.0291 l 0,27.013945 18.56828,0 c 3.90911,0 6.84095,-3.153157 6.84095,-8.17987 0,-5.026712 -5.86367,-6.724376 -5.86367,-6.724376 0,0 4.88639,-1.96279 4.88639,-5.821972 0,-3.85918 -2.93184,-6.287727 -5.86367,-6.287727 -2.19888,0 -11.56042,-0.0432 -16.09455,-0.0291 z m -31.79207,0.0291 0.0305,27.013945 6.8104,0 0,-17.145705 10.75006,17.145705 6.84095,0 0.97727,0 0,-27.013945 -6.84094,0 0,16.767276 -10.75006,-16.767276 -7.81822,0 z m 58.63667,0 0.0305,27.013945 6.81042,0 0,-17.145705 10.75006,17.145705 6.84095,0 0.97728,0 0,-27.013945 -6.84095,0 0,16.767276 -10.75006,-16.767276 -7.81824,0 z m -21.50011,4.686686 6.84095,0 c 0,0 2.65697,0.04384 2.65697,2.765436 0,2.721596 -2.65697,2.765436 -2.65697,2.765436 l -6.84095,0 0,-5.530872 z m 0,11.149074 7.81823,0 c 0,0 2.65697,0.04384 2.65697,2.765436 0,2.721596 -2.65697,2.794547 -2.65697,2.794547 l -7.81823,0 0,-5.559983 z" transform="matrix(1.0448753,0,0,1.0448753,-3.0989694,-2.9009844)" id="path5698" style="opacity:0.25;fill:none;stroke:#2e5e9f;stroke-width:0.95412236px;stroke-linecap:butt;stroke-linejoin:miter;stroke-opacity:1;filter:url(#filter5708)"/>
  </g>
</svg>
