<?xml version="1.0" encoding="UTF-8" standalone="no"?>
<!-- Created with Inkscape (http://www.inkscape.org/) -->
<svg
	xmlns:dc="http://purl.org/dc/elements/1.1/"
	xmlns:cc="http://creativecommons.org/ns#"
	xmlns:rdf="http://www.w3.org/1999/02/22-rdf-syntax-ns#"
	xmlns:svg="http://www.w3.org/2000/svg"
	xmlns="http://www.w3.org/2000/svg"
	xmlns:xlink="http://www.w3.org/1999/xlink"
	version="1.0"
	width="128"
	height="128">
	<defs>
		<linearGradient id="linearGradient4362">
      <stop id="stop4364" style="stop-color:#5bed2e;stop-opacity:1" offset="0"/>
      <stop id="stop4366" style="stop-color:#29e339;stop-opacity:1" offset="1"/>
    </linearGradient><linearGradient id="linearGradient4354">
      <stop id="stop4356" style="stop-color:#0bad46;stop-opacity:1" offset="0"/>
      <stop id="stop4358" style="stop-color:#5bed2e;stop-opacity:1" offset="1"/>
    </linearGradient><linearGradient id="linearGradient4346">
      <stop id="stop4348" style="stop-color:#0bad46;stop-opacity:1" offset="0"/>
      <stop id="stop4350" style="stop-color:#5bed2e;stop-opacity:1" offset="1"/>
    </linearGradient><linearGradient id="linearGradient4314">
      <stop id="stop4316" style="stop-color:#ffffff;stop-opacity:1" offset="0"/>
      <stop id="stop4318" style="stop-color:#ffffff;stop-opacity:0" offset="1"/>
    </linearGradient><linearGradient x1="47.715866" y1="45.292259" x2="79.973221" y2="77.549614" id="linearGradient4338" xlink:href="#linearGradient4314" gradientUnits="userSpaceOnUse"/><linearGradient x1="7.87638" y1="45.682266" x2="44.511848" y2="82.317734" id="linearGradient4344" xlink:href="#linearGradient4314" gradientUnits="userSpaceOnUse"/><linearGradient x1="6.427321" y1="64" x2="45.960911" y2="64" id="linearGradient4360" xlink:href="#linearGradient4354" gradientUnits="userSpaceOnUse"/><radialGradient cx="63.844543" cy="61.420918" r="18.558653" fx="63.844543" fy="61.420918" id="radialGradient4368" xlink:href="#linearGradient4362" gradientUnits="userSpaceOnUse" gradientTransform="matrix(2.577654,0,0,1.358573,-100.7246,-22.023886)"/><linearGradient x1="121.57268" y1="63.823372" x2="82.053238" y2="63.823372" id="linearGradient4441" xlink:href="#linearGradient4346" gradientUnits="userSpaceOnUse"/><linearGradient x1="87.380363" y1="49.390774" x2="116.24555" y2="78.255966" id="linearGradient4443" xlink:href="#linearGradient4314" gradientUnits="userSpaceOnUse"/><linearGradient x1="6.427321" y1="64" x2="45.960911" y2="64" id="linearGradient9450" xlink:href="#linearGradient4354" gradientUnits="userSpaceOnUse"/><linearGradient x1="7.87638" y1="45.682266" x2="44.511848" y2="82.317734" id="linearGradient9452" xlink:href="#linearGradient4314" gradientUnits="userSpaceOnUse"/><linearGradient x1="121.57268" y1="63.823372" x2="82.053238" y2="63.823372" id="linearGradient9454" xlink:href="#linearGradient4346" gradientUnits="userSpaceOnUse"/><linearGradient x1="87.380363" y1="49.390774" x2="116.24555" y2="78.255966" id="linearGradient9456" xlink:href="#linearGradient4314" gradientUnits="userSpaceOnUse"/><radialGradient cx="63.844543" cy="61.420918" r="18.558653" fx="63.844543" fy="61.420918" id="radialGradient9458" xlink:href="#linearGradient4362" gradientUnits="userSpaceOnUse" gradientTransform="matrix(2.577654,0,0,1.358573,-100.7246,-22.023886)"/><linearGradient x1="47.715866" y1="45.292259" x2="79.973221" y2="77.549614" id="linearGradient9460" xlink:href="#linearGradient4314" gradientUnits="userSpaceOnUse"/><radialGradient cx="63.844543" cy="61.420918" r="18.558653" fx="63.844543" fy="61.420918" id="radialGradient9463" xlink:href="#linearGradient4362" gradientUnits="userSpaceOnUse" gradientTransform="matrix(2.8654192,0,0,1.5102419,-119.11419,-31.627456)"/><linearGradient x1="47.715866" y1="45.292259" x2="79.973221" y2="77.549614" id="linearGradient9465" xlink:href="#linearGradient4314" gradientUnits="userSpaceOnUse" gradientTransform="matrix(1.1116384,0,0,1.1116384,-7.1448598,-7.1448582)"/><linearGradient x1="121.57268" y1="63.823372" x2="82.053238" y2="63.823372" id="linearGradient9468" xlink:href="#linearGradient4346" gradientUnits="userSpaceOnUse" gradientTransform="matrix(1.1116384,0,0,1.1116384,-7.1448598,-7.1448582)"/><linearGradient x1="87.380363" y1="49.390774" x2="116.24555" y2="78.255966" id="linearGradient9470" xlink:href="#linearGradient4314" gradientUnits="userSpaceOnUse" gradientTransform="matrix(1.1116384,0,0,1.1116384,-7.1448598,-7.1448582)"/><linearGradient x1="6.427321" y1="64" x2="45.960911" y2="64" id="linearGradient9473" xlink:href="#linearGradient4354" gradientUnits="userSpaceOnUse" gradientTransform="matrix(1.1116384,0,0,1.1116384,-7.1448598,-7.1448582)"/><linearGradient x1="7.87638" y1="45.682266" x2="44.511848" y2="82.317734" id="linearGradient9475" xlink:href="#linearGradient4314" gradientUnits="userSpaceOnUse" gradientTransform="matrix(1.1116384,0,0,1.1116384,-7.1448598,-7.1448582)"/>
	</defs>
	<metadata>
		<rdf:RDF>
			<cc:Work rdf:about="">
			<dc:format>image/svg+xml</dc:format>
			<dc:type rdf:resource="http://purl.org/dc/dcmitype/StillImage" />
			<dc:title>Plain One Logo</dc:title>
			</cc:Work>
		</rdf:RDF>
	</metadata>
	<g id="layer1">
    <path d="m 21.981392,45.362575 c -11.820885,0 -21.42562624,9.456332 -21.42557588,21.09571 0,6.503649 3.00405428,12.311838 7.71255398,16.17914 9.2182499,-2.78213 20.2891799,-4.895665 32.5153539,-6.110376 1.654834,-2.991326 2.607512,-6.423761 2.607512,-10.068764 0,-11.639384 -9.589008,-21.095716 -21.409844,-21.09571 z m -0.0943,11.482475 c 3.070657,0 5.560648,2.489987 5.560648,5.560596 0,4.956344 0,3.841122 0,7.916782 0,3.070617 -2.489991,5.560598 -5.560648,5.560598 -3.070504,0 -5.560596,-2.489987 -5.560546,-5.560598 0,-5.456864 0,-4.107276 0,-7.916782 0,-3.070615 2.489941,-5.560596 5.560546,-5.560596 z" id="path2604" style="fill:url(#linearGradient9473);fill-opacity:1;stroke:url(#linearGradient9475);stroke-width:1.11163843;stroke-linecap:round;stroke-linejoin:round;stroke-miterlimit:4;stroke-opacity:1;stroke-dasharray:none;stroke-dashoffset:0"/>
    <path d="m 106.03434,45.362575 c -11.820892,0 -21.409849,9.456332 -21.409849,21.09571 0,3.575495 0.916788,6.945385 2.513264,9.895978 12.394312,1.126023 23.650165,3.161178 33.080785,5.890468 2.50372,-2.184947 4.48412,-4.942978 5.73341,-8.058159 l -13.96435,0 c -1.22371,2.06699 -3.47383,3.455738 -6.04751,3.455738 -3.69596,-4e-6 -6.718058,-2.860622 -6.989994,-6.487362 l -0.01573,-1.413712 28.242794,0 c 0.17066,-1.071771 0.26702,-2.164117 0.26702,-3.282951 0,-11.639384 -9.58896,-21.095716 -21.40984,-21.09571 z m -0.0943,10.068763 c 3.696,0 6.73364,2.860573 7.00572,6.487364 l -13.995716,0 c 0.272035,-3.626741 3.294036,-6.487364 6.989996,-6.487364 z" id="path3540" style="fill:url(#linearGradient9468);fill-opacity:1;stroke:url(#linearGradient9470);stroke-width:1.11163843;stroke-linecap:round;stroke-linejoin:round;stroke-miterlimit:4;stroke-opacity:1;stroke-dasharray:none;stroke-dashoffset:0"/>
    <path d="m 71.037131,46.022306 c -4.669946,-0.03946 -9.784489,1.787368 -12.896201,5.717676 l 0,-4.838033 -14.388437,0 0,29.342358 c 4.874073,-0.419674 9.922819,-0.678486 15.095318,-0.801103 l 0,-13.084681 c 1.826278,-5.568438 7.922401,-5.552519 10.13161,-1.555082 l 0,14.59264 c 5.111075,0.08083 10.088042,0.320155 14.922456,0.691147 l 0,-18.519614 c 0,-4.100109 -1.393907,-6.017509 -3.769896,-8.52939 -2.375839,-2.511883 -5.660525,-2.986899 -9.09485,-3.015918 z" id="path3542" style="fill:url(#radialGradient9463);fill-opacity:1;stroke:url(#linearGradient9465);stroke-width:1.11163843;stroke-linecap:round;stroke-linejoin:round;stroke-miterlimit:4;stroke-opacity:1;stroke-dasharray:none;stroke-dashoffset:0"/>
  </g>
</svg>
