<?xml version="1.0" encoding="UTF-8" standalone="no"?>
<!-- Created with Inkscape (http://www.inkscape.org/) -->
<svg
	xmlns:dc="http://purl.org/dc/elements/1.1/"
	xmlns:cc="http://creativecommons.org/ns#"
	xmlns:rdf="http://www.w3.org/1999/02/22-rdf-syntax-ns#"
	xmlns:svg="http://www.w3.org/2000/svg"
	xmlns="http://www.w3.org/2000/svg"
	xmlns:xlink="http://www.w3.org/1999/xlink"
	version="1.0"
	width="128"
	height="128">
	<defs>
		
	</defs>
	<metadata>
		<rdf:RDF>
			<cc:Work rdf:about="">
			<dc:format>image/svg+xml</dc:format>
			<dc:type rdf:resource="http://purl.org/dc/dcmitype/StillImage" />
			<dc:title>Plain Prime Logo</dc:title>
			</cc:Work>
		</rdf:RDF>
	</metadata>
	<g id="layer1">
    <path d="m 55.322033,45.152542 0,3.525423 0,3.525424 5.152542,0 5.152543,0 0,-3.525424 0,-3.525423 -5.152543,0 -5.152542,0 z m 0,9.220339 0,14.372881 0,14.101695 10.305085,0 0,-14.101695 0,-14.372881 -5.152543,0 -5.152542,0 z M -2.9999999e-7,54.644067 l 0,14.101695 0,14.101696 9.76271159999999,0 0,-4.067796 0,-4.338984 3.2881357,0 c 4.884068,0 7.849926,-0.917819 9.67794,-3 3.13882,-3.574926 2.714902,-11.219764 -0.779607,-14.288135 -1.590129,-1.396128 -3.618061,-2.150406 -7.305113,-2.508475 l -14.64406729999999,0 z m 26.57627229999999,0 0,14.101695 0,14.101696 10.305084,0 0,-4.101694 c 0,-2.697188 0.199431,-4.235299 0.525452,-4.033898 0.290386,0.179514 1.444447,2.148354 2.559295,4.372881 l 1.881328,3.762711 11.593219,0 -3.576243,-5.271186 c -2.071321,-3.04997 -3.764989,-5.673704 -3.762711,-5.83051 0.0023,-0.156805 0.9728,-0.834841 2.152569,-1.508474 1.596638,-0.911724 2.308773,-1.76748 2.779659,-3.338984 0.923824,-3.083438 0.215702,-6.751392 -1.728865,-8.966101 -1.704299,-1.941082 -3.574347,-2.880738 -7.508448,-3.288136 l -15.220339,0 z m 46.033897,0 c -1.876665,9.077532 -3.602386,19.253875 -4.983051,28.203391 l 9.677939,0 c 0.45337,-4.254638 1.887566,-15.09094 2.033899,-15.237288 2.334643,4.741786 2.882495,10.282712 4.728842,15.237288 l 6.355959,0 4.982993,-15.728814 1.35594,15.728814 9.98307,0 -0.27118,-1.762711 c -0.17128,-1.118644 -1.21687,-7.525425 -2.30509,-14.237289 l -1.9661,-12.20339 -10.762684,0 -2.542427,9.220338 c -0.605342,2.38644 -1.229939,4.705085 -1.389777,5.152544 -0.15989,0.447458 -0.889599,-1.505086 -1.610196,-4.338985 -0.720543,-2.833897 -1.685315,-6.311864 -2.15257,-7.728814 l -0.762685,-2.305084 -10.372882,0 z m 35.864411,0 0,14.101695 0,14.101696 19.52542,0 0,-3.525424 0,-3.79661 -4.61017,0 -4.61016,0 0,-1.627118 0,-1.627119 4.0678,0 4.06779,0 0,-3.525424 0,-3.525424 -4.06779,0 -4.0678,0 0,-1.627118 0,-1.627119 4.61016,0 4.61017,0 0,-3.796611 0,-3.525423 -19.52542,0 z m -70.5254,6.779661 c 0.150454,-0.007 0.329926,0 0.525396,0 0.873601,0 1.971906,0.395634 2.440678,0.864407 1.008598,1.008629 1.124882,3.53613 0.203391,4.457627 -0.357967,0.357967 -1.456272,0.644068 -2.440678,0.644068 l -1.796611,0 0,-2.983051 c 0,-2.569654 0.01454,-2.934037 1.067824,-2.983051 z m -27.067824,0.542373 c 0.157126,-0.0065 0.338169,0 0.542372,0 2.48038,0 3.762713,0.897583 3.762713,2.627119 0,0.82476 -0.286102,1.794582 -0.644068,2.152542 -0.357966,0.357967 -1.578305,0.644068 -2.711865,0.644068 l -2.0677967,0 0,-2.711865 c 0,-2.33146 0.01893,-2.666375 1.1186447,-2.711864 z" id="path3938" style="fill:#f9d423;fill-opacity:1"/>
  </g>
</svg>
