<?xml version="1.0" encoding="UTF-8" standalone="no"?>
<!-- Created with Inkscape (http://www.inkscape.org/) -->
<svg
	xmlns:dc="http://purl.org/dc/elements/1.1/"
	xmlns:cc="http://creativecommons.org/ns#"
	xmlns:rdf="http://www.w3.org/1999/02/22-rdf-syntax-ns#"
	xmlns:svg="http://www.w3.org/2000/svg"
	xmlns="http://www.w3.org/2000/svg"
	xmlns:xlink="http://www.w3.org/1999/xlink"
	version="1.0"
	width="128"
	height="128">
	<defs>
		<filter color-interpolation-filters="sRGB" id="filter3802">
      <feGaussianBlur id="feGaussianBlur3804" stdDeviation="0.54585842"/>
    </filter><filter color-interpolation-filters="sRGB" id="filter3898">
      <feGaussianBlur id="feGaussianBlur3900" stdDeviation="1.0917168"/>
    </filter>
	</defs>
	<metadata>
		<rdf:RDF>
			<cc:Work rdf:about="">
			<dc:format>image/svg+xml</dc:format>
			<dc:type rdf:resource="http://purl.org/dc/dcmitype/StillImage" />
			<dc:title>Plain SBS Logo</dc:title>
			</cc:Work>
		</rdf:RDF>
	</metadata>
	<g id="g3867">
    <path d="m 61.638196,16.237855 c -5.659973,5.629224 -13.807218,14.191984 -24.767609,37.548503 3.130636,-10.021815 4.92495,-20.151641 4.67278,-29.846719 -3.953634,4.34732 -9.955995,10.921272 -16.40091,24.65678 2.285573,-7.318009 3.271689,-13.585722 3.121339,-20.68583 -3.036134,3.217271 -7.373292,6.974643 -12.54079,17.98929 1.417756,-4.540599 2.022427,-9.213165 2.123997,-13.70437 C 13.70994,35.773386 2.6046866,47.241765 2.2772095,67.656954 5.7772115,63.977883 9.0565314,59.671574 11.419617,54.765244 7.6752382,66.341319 7.1497836,72.819002 7.1716238,77.242631 12.128977,72.157456 16.810942,66.123845 20.137213,59.216389 15.468568,73.652637 14.527887,82.171553 14.448608,88.047284 21.252038,81.135568 27.698407,72.905899 32.253215,63.4459 25.618191,83.965329 24.609158,95.582541 24.62531,103.50625 46.21225,80.83899 61.090864,50.669931 61.638196,16.237855 z M 20.912933,111.31886 c -0.465447,0.16198 -0.962771,0.30095 -1.49602,0.44327 l 1.440612,0 0.05538,-0.44327 z" id="rect2508" style="fill:#0078ac;fill-opacity:1;stroke:none"/>
    <g transform="matrix(0.59102413,0,0,0.59102413,216.65273,-66.283881)" id="g3311" style="stroke:#0078ac;stroke-width:1.69197845;stroke-opacity:1">
      <path d="m -155.49999,207.875 c 0,-7.375 -3.61202,-13.75 -13.25,-13.75 -4.75,0 -2.75,0 -7,0 -8.37593,0 -11.5,6.8672 -11.5,10.875 0,3.25 0,-0.75 0,2.375 0,3.125 3.625,7.875 15.5,10.25 8.44329,1.68866 16.7135,3.59671 16.8385,9.72171 0,0 0,-0.47171 0,3.90329 0,7.12938 -6.2135,11.25 -12.2135,11.25 -6,0 -0.60717,0 -7.625,0 -7.13486,0 -14.375,-6.09558 -14.375,-12.75 0,-3.625 0,-2.875 0,-2.875" id="path3297" style="fill:none;stroke:#0078ac;stroke-width:1.69197845px;stroke-linecap:butt;stroke-linejoin:miter;stroke-opacity:1"/>
      <g id="g3307" style="stroke:#0078ac;stroke-width:1.69197845;stroke-opacity:1">
        <path d="m -227.75,241.375 0,-46.25 c 0,0 12.625,0 23.125,0 13.25236,0 12,22.375 0,22.375 14.41895,0 13.875,23.75 0,23.75 -13.875,0 -23.125,0 -23.125,0.125 z" id="path3299" style="fill:none;stroke:#0078ac;stroke-width:1.69197845px;stroke-linecap:butt;stroke-linejoin:miter;stroke-opacity:1"/>
        <path d="m -204.375,217.5 -23.25,0" id="path3301" style="fill:none;stroke:#0078ac;stroke-width:1.69197845px;stroke-linecap:butt;stroke-linejoin:miter;stroke-opacity:1"/>
      </g>
      <path d="m -234.49999,207.875 c 0,-7.375 -3.61202,-13.75 -13.25,-13.75 -4.75,0 -2.75,0 -7,0 -8.37593,0 -11.5,6.8672 -11.5,10.875 0,3.25 0,-0.75 0,2.375 0,3.125 3.625,7.875 15.5,10.25 8.44329,1.68866 16.7135,3.59671 16.8385,9.72171 0,0 0,-0.47171 0,3.90329 0,7.12938 -6.2135,11.25 -12.2135,11.25 -6,0 -0.60717,0 -7.625,0 -7.13486,0 -14.375,-6.09558 -14.375,-12.75 0,-3.625 0,-2.875 0,-2.875" id="path3305" style="fill:none;stroke:#0078ac;stroke-width:1.69197845px;stroke-linecap:butt;stroke-linejoin:miter;stroke-opacity:1"/>
    </g>
  </g>
</svg>
