<?xml version="1.0" encoding="UTF-8" standalone="no"?>
<!-- Created with Inkscape (http://www.inkscape.org/) -->
<svg
	xmlns:dc="http://purl.org/dc/elements/1.1/"
	xmlns:cc="http://creativecommons.org/ns#"
	xmlns:rdf="http://www.w3.org/1999/02/22-rdf-syntax-ns#"
	xmlns:svg="http://www.w3.org/2000/svg"
	xmlns="http://www.w3.org/2000/svg"
	xmlns:xlink="http://www.w3.org/1999/xlink"
	version="1.0"
	width="128"
	height="128">
	<defs>
		
	</defs>
	<metadata>
		<rdf:RDF>
			<cc:Work rdf:about="">
			<dc:format>image/svg+xml</dc:format>
			<dc:type rdf:resource="http://purl.org/dc/dcmitype/StillImage" />
			<dc:title>Plain 7mate Logo</dc:title>
			</cc:Work>
		</rdf:RDF>
	</metadata>
	<g transform="matrix(1.2208582,0,0,1.2208582,-13.09561,-10.906822)" id="layer1">
    <path d="m 13.010179,46.844995 6.000824,10.324399 8.58503,0 4.360847,-7.566256 0.981501,0 -15.306449,26.264475 12.399218,0 10.386519,-18.723067 c -2.007556,-3.41889 -5.954025,-10.297599 -5.954025,-10.297599 -7.151149,-0.0048 -14.302312,-0.002 -21.453465,-0.002 z m 74.333187,3.342074 0,13.6292 0,1.52816 0.136665,0 c 0.71664,3.801784 4.064287,6.671724 8.075642,6.671724 0.06667,0 0.132499,0.0016 0.198785,0 l 0,-5.839311 c -0.0128,2.06e-4 -0.02449,0 -0.03725,0 -1.304388,0 -2.360572,-1.068609 -2.360572,-2.372997 l 0,-2.360572 2.360572,0 c 0.01284,0 0.02449,-2.04e-4 0.03725,0 l 0,-5.839311 -2.3233,0 0,-5.416893 z m -39.023991,5.416893 c -4.533472,0 -8.212308,3.678836 -8.212308,8.212307 0,0.06661 -0.0016,0.132554 0,0.198785 l 0,8.001099 6.025672,0 0,-8.423517 c -2.11e-4,-0.01324 -6.7e-5,-0.02401 0,-0.03727 2.4e-5,-0.0044 0,-0.008 0,-0.01242 0,-1.132548 0.859897,-2.074511 1.963003,-2.186636 0.07354,-0.0075 0.14813,0 0.223633,0 1.208052,0 2.186635,0.978585 2.186635,2.186636 0,0.0044 -3.1e-5,0.008 0,0.01242 l 0,0.03727 0,8.423517 0.136665,0 5.876583,0 0.149089,0 0,-8.423517 c -2.11e-4,-0.01324 -6.8e-5,-0.02401 0,-0.03727 2.4e-5,-0.0044 0,-0.008 0,-0.01242 0,-1.132548 0.859896,-2.074511 1.963002,-2.186636 0.07354,-0.0075 0.148131,0 0.223634,0 1.208052,0 2.186635,0.978585 2.186635,2.186636 0,0.0044 -3.2e-5,0.008 0,0.01242 l 0,0.03727 0,8.423517 6.025672,0 0,-8.001099 c 0.0016,-0.06623 0,-0.132174 0,-0.198785 0,-4.533471 -3.678835,-8.212307 -8.212307,-8.212307 -2.008533,0 -3.840388,0.727109 -5.267804,1.92573 -1.424697,-1.198621 -3.259272,-1.92573 -5.267804,-1.92573 z m 28.972921,0 c -4.533472,0 -8.212307,3.678836 -8.212307,8.212307 0,4.466804 3.572195,8.093983 8.013522,8.199884 0.06629,0.0016 0.132117,0 0.198785,0 l 0.422419,0 7.777465,0 0,-8.199884 c 0,-0.06661 0.0016,-0.132553 0,-0.198785 -0.105813,-4.441408 -3.733024,-8.013522 -8.199884,-8.013522 z m 28.674744,0 c -4.53347,0 -8.212307,3.678836 -8.212307,8.212307 0,4.533472 3.678837,8.199884 8.212307,8.199884 3.84294,0 7.07018,-2.633723 7.96383,-6.199609 l -6.11264,0 c -0.51443,0.531864 -1.23193,0.85726 -2.02513,0.85726 -1.29881,0 -2.37554,-0.886731 -2.69602,-2.087243 l 5.41689,0 5.61568,0 c 0.024,-0.255772 0.0497,-0.508239 0.0497,-0.770292 0,-4.533471 -3.67884,-8.212307 -8.21231,-8.212307 z m -0.38515,5.37962 c 1.16018,0 2.1583,0.73427 2.53451,1.764218 l -5.04417,0 c 0.37727,-1.02793 1.35093,-1.764218 2.50966,-1.764218 z m -28.289594,0.459691 c 1.304388,0 2.360573,1.068609 2.360573,2.372996 l 0,2.360573 -2.360573,0 c -1.304387,0 -2.372996,-1.056185 -2.372996,-2.360573 0,-1.304387 1.068609,-2.372996 2.372996,-2.372996 z" id="path3957" style="fill:#322c23;fill-opacity:1;fill-rule:evenodd;stroke:#322c23;stroke-width:2.78299069;stroke-miterlimit:4;stroke-opacity:1;stroke-dasharray:none"/>
    <path d="m 13.010179,46.844995 6.000824,10.324399 8.58503,0 5.951127,-10.324399 -20.536981,0 z m 21.493634,0.06212 -16.871881,28.960495 12.399218,0 10.386519,-18.723065 -5.913856,-10.23743 z m 52.839553,3.279953 0,13.629202 0,1.52816 0.136665,0 c 0.71664,3.80178 4.064287,6.67172 8.075642,6.67172 0.06667,0 0.132499,0.002 0.198785,0 l 0,-5.83931 c -0.0128,2.1e-4 -0.02445,0 -0.03725,0 -1.304388,0 -2.360572,-1.06861 -2.360572,-2.373 l 0,-2.36057 2.360572,0 c 0.01284,0 0.02449,-2e-4 0.03725,0 l 0,-5.839309 -2.3233,0 0,-5.416893 -6.087792,0 z m -39.023991,5.416893 c -4.533472,0 -8.212308,3.678836 -8.212308,8.212309 0,0.0666 -0.0016,0.13255 0,0.19878 l 0,8.0011 6.025672,0 0,-8.42352 c -2.11e-4,-0.0132 -6.7e-5,-0.024 0,-0.0373 2.4e-5,-0.004 0,-0.008 0,-0.0124 0,-1.13254 0.859897,-2.07451 1.963003,-2.18663 0.07354,-0.007 0.14813,0 0.223633,0 1.208052,0 2.186635,0.97858 2.186635,2.18663 0,0.004 -3.1e-5,0.008 0,0.0124 l 0,0.0373 0,8.42352 0.136665,0 5.876583,0 0.149089,0 0,-8.42352 c -2.11e-4,-0.0132 -6.8e-5,-0.024 0,-0.0373 2.4e-5,-0.004 0,-0.008 0,-0.0124 0,-1.13254 0.859896,-2.07451 1.963002,-2.18663 0.07354,-0.007 0.148131,0 0.223634,0 1.208052,0 2.186635,0.97858 2.186635,2.18663 0,0.004 -3.2e-5,0.008 0,0.0124 l 0,0.0373 0,8.42352 6.025672,0 0,-8.0011 c 0.0016,-0.0662 0,-0.13217 0,-0.19878 0,-4.533473 -3.678835,-8.212309 -8.212307,-8.212309 -2.008533,0 -3.840388,0.727109 -5.267804,1.92573 -1.424697,-1.198621 -3.259272,-1.92573 -5.267804,-1.92573 z m 28.972921,0 c -4.533472,0 -8.212307,3.678836 -8.212307,8.212309 0,4.4668 3.572195,8.09398 8.013522,8.19988 0.06629,0.002 0.132117,0 0.198785,0 l 0.422419,0 7.777465,0 0,-8.19988 c 0,-0.0666 0.0016,-0.13256 0,-0.19879 -0.105813,-4.441405 -3.733024,-8.013519 -8.199884,-8.013519 z m 28.674744,0 c -4.53347,0 -8.212307,3.678836 -8.212307,8.212309 0,4.53347 3.678837,8.19988 8.212307,8.19988 3.84294,0 7.07018,-2.63372 7.96383,-6.19961 l -6.11264,0 c -0.51443,0.53187 -1.23193,0.85726 -2.02513,0.85726 -1.29881,0 -2.37554,-0.88673 -2.69602,-2.08724 l 5.41689,0 5.61568,0 c 0.024,-0.25577 0.0497,-0.50824 0.0497,-0.77029 0,-4.533473 -3.67884,-8.212309 -8.21231,-8.212309 z m -0.38515,5.379619 c 1.16018,0 2.1583,0.73427 2.53451,1.76422 l -5.04417,0 c 0.37727,-1.02793 1.35093,-1.76422 2.50966,-1.76422 z m -28.289594,0.45969 c 1.304388,0 2.360573,1.06861 2.360573,2.373 l 0,2.36057 -2.360573,0 c -1.304387,0 -2.372996,-1.05618 -2.372996,-2.36057 0,-1.30439 1.068609,-2.373 2.372996,-2.373 z" id="path4950" style="fill:#00d2ff;fill-opacity:1;fill-rule:evenodd;stroke:none"/>
    <g id="g4009" style="stroke:#322c23;stroke-opacity:1">
      <path d="m 43.063995,72.662204 0,-9.939253 c 0,0 0.530478,-4.348423 5.218108,-4.348423 4.687629,0 5.218107,4.199335 5.218107,4.199335 l 0,9.939252" id="path3966" style="fill:none;stroke:#322c23;stroke-width:0.3975701px;stroke-linecap:butt;stroke-linejoin:miter;stroke-opacity:1"/>
      <path d="m 53.525058,72.662204 0,-9.939253 c 0,0 0.530478,-4.348423 5.218108,-4.348423 4.68763,0 5.218108,4.199335 5.218108,4.199335 l 0,9.939252" id="path3968" style="fill:none;stroke:#322c23;stroke-width:0.3975701px;stroke-linecap:butt;stroke-linejoin:miter;stroke-opacity:1"/>
      <path d="m 82.647069,72.662204 0,-8.920479 c 0,0 -0.09508,-5.267804 -5.292652,-5.267804 -6.423366,0 -7.538725,10.336823 0.273329,10.336823 l 1.764218,0" id="path3971" style="fill:none;stroke:#322c23;stroke-width:0.3975701px;stroke-linecap:butt;stroke-linejoin:miter;stroke-opacity:1"/>
      <path d="m 79.391964,65.207764 0,7.479288" id="path3973" style="fill:none;stroke:#322c23;stroke-width:0.3975701px;stroke-linecap:butt;stroke-linejoin:miter;stroke-opacity:1"/>
      <path d="m 90.300294,49.627986 0,15.057968 c 0,1.891071 2.65737,4.224182 6.236881,4.224182" id="path3975" style="fill:none;stroke:#322c23;stroke-width:0.3975701px;stroke-linecap:butt;stroke-linejoin:miter;stroke-opacity:1"/>
      <path d="m 90.300294,58.523617 6.212032,0" id="path3977" style="fill:none;stroke:#322c23;stroke-width:0.3975701px;stroke-linecap:butt;stroke-linejoin:miter;stroke-opacity:1"/>
      <path d="m 106.874,62.561438 3.62782,0 c 0,0 -0.65977,-3.814188 -4.72114,-3.814188 -6.808428,0 -6.681357,10.51076 0.0497,10.51076 4.11095,0 4.89508,-4.075094 4.89508,-4.075094 l 0,0" id="path3979" style="fill:none;stroke:#322c23;stroke-width:0.3975701px;stroke-linecap:butt;stroke-linejoin:miter;stroke-opacity:1"/>
    </g>
  </g>
</svg>
