<?xml version="1.0" encoding="UTF-8" standalone="no"?>
<!-- Created with Inkscape (http://www.inkscape.org/) -->
<svg
	xmlns:dc="http://purl.org/dc/elements/1.1/"
	xmlns:cc="http://creativecommons.org/ns#"
	xmlns:rdf="http://www.w3.org/1999/02/22-rdf-syntax-ns#"
	xmlns:svg="http://www.w3.org/2000/svg"
	xmlns="http://www.w3.org/2000/svg"
	xmlns:xlink="http://www.w3.org/1999/xlink"
	version="1.0"
	width="128"
	height="128">
	<defs>
		
	</defs>
	<metadata>
		<rdf:RDF>
			<cc:Work rdf:about="">
			<dc:format>image/svg+xml</dc:format>
			<dc:type rdf:resource="http://purl.org/dc/dcmitype/StillImage" />
			<dc:title>Plain Southern Cross Television Logo</dc:title>
			</cc:Work>
		</rdf:RDF>
	</metadata>
	<g id="layer1">
    <g transform="matrix(1.1621429,0,0,1.1621429,-1326.5795,-172.33037)" id="g3965">
      <g transform="translate(-17.25,-34.5)" id="g3967">
        <path d="m 1218.483,185.75 -1.75,4.4375 c 1.0045,-0.2936 2.039,-0.58965 3.0938,-0.875 l -1.3438,-3.5625 z m 1.8125,4.8125 c -1.4912,0.50085 -2.9333,0.97652 -4.3125,1.46875 l -2.0625,5.1875 c 2.5167,-0.77015 5.2084,-1.50427 8.0625,-2.21875 l -1.6875,-4.4375 z m 2.3277,5.99908 c -3.3465,1.08763 -6.6512,1.61325 -9.484,2.65717 l -1.7812,4.4375 c 3.7523,-1.28732 7.9026,-2.50537 12.5,-3.65625 l -1.2348,-3.43842 z m 1.8178,5.08839 c -5.1984,1.69149 -9.9405,2.6649 -14.0205,4.31878 l -1.125,2.875 c 4.7735,-1.50392 10.1819,-2.88459 16.375,-4.09375 l -1.2295,-3.10003 z m -40.208,-0.39997 1.6875,2.78125 c 0.7743,-0.50228 1.5913,-0.99805 2.4063,-1.5 L 1184.233,201.25 z m 65.25,2.25 -2.25,0.46875 c -7.5668,1.94155 -13.7718,3.63564 -19.2188,5.34375 0.7046,0.62753 1.5985,1.61449 2.5313,2.71875 4.8693,-1.41836 10.711,-3.34027 16.9786,-4.46247 L 1249.483,203.5 z m -57.6875,0.0937 c -1.4308,0.91064 -2.8818,1.87448 -4.375,2.90625 l 1.0937,1.78125 c 2.0566,-1.23075 4.2641,-2.45123 6.6563,-3.65625 l -3.375,-1.03125 z m 6.6563,2.0625 c -2.8457,1.49947 -5.6407,3.12595 -8.5313,5 l 1.3125,2.125 c 3.375,-1.97927 7.1092,-3.92986 11.4688,-5.8125 l -4.25,-1.3125 z m 27.5624,0.0312 c -13.6078,3.70457 -22.3968,6.82877 -31.8124,12.03125 -2.0698,1.13734 -9.8971,6.73637 -13.7188,10.03125 9.9191,-5.50061 13.4346,-6.37248 15.625,-6.90625 l 0.094,0.15625 c 7.5963,-4.65303 16.7116,-9.34872 30.6562,-13.0625 l -0.8438,-2.25 z m -20.1562,2.25 c -4.583,2.08079 -9.5154,3.84668 -13.9259,6.65717 l 1.2795,1.84635 c 4.565,-2.30219 9.4602,-5.48875 15.8026,-7.50352 l -3.1562,-1 z m 40.8438,1.21875 c -5.692,1.52334 -13.2832,3.19042 -17.6876,4.65625 0.7699,0.99199 1.5386,1.99243 2.1876,3 3.1313,-0.74185 9.4048,-2.47018 13.0205,-3.108 l 2.4795,-4.54825 z m -3.0626,6.1875 c -3.2401,0.86287 -8.8858,1.93334 -11.6562,2.75 0.8455,1.48788 1.6103,3.05947 1.4688,3.8125 1.6689,-0.35876 5.893,-1.19995 7.6874,-1.53125 l 2.5,-5.03125 z m -3,6.0625 c -16.522,4.45815 -26.0255,8.00046 -37.7187,15.15625 -5.2506,3.5082 -9.5894,6.48033 -13.8125,10.3125 7.3228,-4.06084 10.887,-6.31787 13.2812,-7.0625 l 0,0.0625 c 8.9268,-5.39038 20.0565,-10.77705 38.5,-14.59375 l -1.6562,-1.03125 1.4062,-2.84375 z m 1.2188,4.6875 c -18.0274,4.16154 -26.5062,8.70836 -40.0938,17.65625 l -0.4374,2.59375 c 10.3509,-6.3036 22.6002,-13.02383 46.1874,-16.96875 l -5.6562,-3.28125 z m 6.875,4 c -21.5287,4.10142 -30.7615,9.0159 -48.0625,20.375 l -0.5,3 c 11.832,-7.25913 28.6019,-16.36293 53.5376,-20.17142 l -4.9751,-3.20358 z m 5.2803,3.91069 c -25.3636,5.9645 -33.7125,9.77298 -54.5303,23.80806 l -0.3438,1.96875 c 9.0039,-5.52586 18.6251,-11.68886 35.7188,-16.1875 L 1234.733,243 l 24.75,-6.25 -5.4697,-2.74556 z M 1235.233,245.375 c -13.0216,4.0435 -22.0826,8.81569 -36.7812,18.71875 l -0.6563,4 c 9.5516,-6.54361 19.0695,-14.12185 38,-20.15625 l -0.5625,-2.5625 z m 0.9062,4.28125 c -4.6406,1.71636 -8.7315,3.52163 -12.7187,5.5625 l 2.0625,1.40625 c 3.3986,-1.34275 7.1635,-2.62592 11.3438,-3.84375 l -0.6563,-3.125 c -0.01,0.003 -0.022,-0.003 -0.031,0 z m 1.0313,4.6875 c -3.4682,1.20267 -6.6155,2.41142 -9.5937,3.6875 l 2.8124,1.90625 c 2.3716,-0.7019 4.8923,-1.38206 7.5626,-2.03125 l -0.7813,-3.5625 z m 1.0313,4.71875 c -2.1525,0.67861 -4.1975,1.34048 -6.125,2 l 4.0937,2.78125 c 0.937,-0.24695 1.8965,-0.51053 2.875,-0.75 l -0.8437,-4.03125 z m 1.0937,5.21875 c -0.5633,0.17813 -1.1409,0.35504 -1.6875,0.53125 l 2.125,1.4375 -0.4375,-1.96875 z" id="path3969" style="fill:#00488f;fill-opacity:1;fill-rule:evenodd;stroke:none"/>
        <g transform="translate(-29.5,55.5)" id="g3971">
          <path d="m 1256.108,154.13391 c -33.5,11.875 -56.625,33.5 -56.625,33.5 0,0 34.25,-24.5 59,-30.375 -0.5,0 -2,-3.125 -2.375,-3.125 z" id="path3973" style="fill:#ff0000;fill-rule:evenodd;stroke:none"/>
          <path d="m 1257.983,158.63391 c -38.75,13 -61.5,38.5 -61.5,38.5 0,0 26,-24.375 63,-34.25 3.875,-4.25 -1.375,-4.125 -1.5,-4.25 z" id="path3975" style="fill:#ff0000;fill-rule:evenodd;stroke:none"/>
          <path d="m 1262.1755,162.94959 c -33.6355,11.48573 -57.0097,32.84111 -57.0097,32.84111 0,0 34.5318,-24.10118 59.3483,-29.68877 -0.5,-0.006 -1.9637,-3.14799 -2.3386,-3.15234 z" id="path3977" style="fill:#ff0000;fill-rule:evenodd;stroke:none"/>
        </g>
        <path d="m 1230.483,213.00891 5.875,-1.75 -4,5 3.625,3.75 -5.75,-0.875 -3,4.625 -0.25,-6.375 -5.125,-1.5 5.125,-1.875 0.375,-4.625 3.125,3.625 z" id="path3979" style="fill:#ffffff;fill-rule:evenodd;stroke:none"/>
      </g>
      <text x="1285.0569" y="229.5159" transform="scale(0.8987773,1.1126226)" id="text3981" xml:space="preserve" style="font-size:7.38099432px;font-style:normal;font-variant:normal;font-weight:normal;font-stretch:normal;fill:#00488f;fill-opacity:1;stroke:none;font-family:Arial;-inkscape-font-specification:Arial"><tspan x="1285.0569" y="229.5159" id="tspan3983">T   E   L   E   V   I   S   I   O   N </tspan></text>
      <g transform="translate(-134.25,36.25)" id="g3985" style="fill:#00488f;fill-opacity:1">
        <text x="1347.7039" y="201.01808" transform="scale(0.9560148,1.046009)" id="text3987" xml:space="preserve" style="font-size:13.2790308px;font-style:normal;font-variant:normal;font-weight:normal;font-stretch:normal;fill:#00488f;fill-opacity:1;stroke:none;font-family:Arial;-inkscape-font-specification:Arial"><tspan x="1347.7039" y="201.01808" id="tspan3989" style="font-weight:bold;fill:#00488f;fill-opacity:1;-inkscape-font-specification:Arial Bold">Southern</tspan></text>
        <text x="1515.3066" y="187.30724" transform="scale(0.8886946,1.1252459)" id="text3991" xml:space="preserve" style="font-size:12.34395504px;font-style:normal;font-variant:normal;font-weight:normal;font-stretch:normal;fill:#00488f;fill-opacity:1;stroke:none;font-family:Arial;-inkscape-font-specification:Arial"><tspan x="1515.3066" y="187.30724" id="tspan3993" style="font-weight:bold;fill:#00488f;fill-opacity:1;-inkscape-font-specification:Arial Bold">Cross</tspan></text>
      </g>
    </g>
  </g>
</svg>
