<?xml version="1.0" encoding="UTF-8" standalone="no"?>
<!-- Created with Inkscape (http://www.inkscape.org/) -->
<svg
	xmlns:dc="http://purl.org/dc/elements/1.1/"
	xmlns:cc="http://creativecommons.org/ns#"
	xmlns:rdf="http://www.w3.org/1999/02/22-rdf-syntax-ns#"
	xmlns:svg="http://www.w3.org/2000/svg"
	xmlns="http://www.w3.org/2000/svg"
	xmlns:xlink="http://www.w3.org/1999/xlink"
	version="1.0"
	width="128"
	height="128">
	<defs>
		
	</defs>
	<metadata>
		<rdf:RDF>
			<cc:Work rdf:about="">
			<dc:format>image/svg+xml</dc:format>
			<dc:type rdf:resource="http://purl.org/dc/dcmitype/StillImage" />
			<dc:title>Plain Southern Cross Ten Logo</dc:title>
			</cc:Work>
		</rdf:RDF>
	</metadata>
	<g id="layer1">
    <g transform="matrix(1.1528713,0,0,1.1528713,-1132.8024,-242.40981)" id="g3995">
      <path d="m 1038.7618,218.88352 -1.75,4.4375 c 1.0045,-0.2936 2.039,-0.58965 3.0938,-0.875 l -1.3438,-3.5625 z m 1.8125,4.8125 c -1.4912,0.50085 -2.9333,0.97652 -4.3125,1.46875 l -2.0625,5.1875 c 2.5167,-0.77015 5.2084,-1.50427 8.0625,-2.21875 l -1.6875,-4.4375 z m 2.3277,5.99908 c -3.3465,1.08763 -6.6512,1.61325 -9.484,2.65717 l -1.7812,4.4375 c 3.7523,-1.28732 7.9026,-2.50537 12.5,-3.65625 l -1.2348,-3.43842 z m 1.8178,5.08839 c -5.1984,1.69149 -9.9405,2.6649 -14.0205,4.31878 l -1.125,2.875 c 4.7735,-1.50392 10.1819,-2.88459 16.375,-4.09375 l -1.2295,-3.10003 z m -40.208,-0.39997 1.6875,2.78125 c 0.7743,-0.50228 1.5913,-0.99805 2.4063,-1.5 l -4.0938,-1.28125 z m 65.25,2.25 -2.25,0.46875 c -7.5668,1.94155 -13.7718,3.63564 -19.2188,5.34375 0.7046,0.62753 1.5985,1.61449 2.5313,2.71875 4.8693,-1.41836 10.711,-3.34027 16.9786,-4.46247 l 1.9589,-4.06878 z m -57.6875,0.0937 c -1.4308,0.91064 -2.8818,1.87448 -4.375,2.90625 l 1.0937,1.78125 c 2.0566,-1.23075 4.2641,-2.45123 6.6563,-3.65625 l -3.375,-1.03125 z m 6.6563,2.0625 c -2.8457,1.49947 -5.6407,3.12595 -8.5313,5 l 1.3125,2.125 c 3.375,-1.97927 7.1092,-3.92986 11.4688,-5.8125 l -4.25,-1.3125 z m 27.5624,0.0312 c -13.6078,3.70457 -22.3968,6.82877 -31.8124,12.03125 -2.0698,1.13734 -9.8971,6.73637 -13.7188,10.03125 9.9191,-5.50061 13.4346,-6.37248 15.625,-6.90625 l 0.094,0.15625 c 7.5963,-4.65303 16.7116,-9.34872 30.6562,-13.0625 l -0.8438,-2.25 z m -20.1562,2.25 c -4.583,2.08079 -9.5154,3.84668 -13.9259,6.65717 l 1.2795,1.84635 c 4.565,-2.30219 9.4602,-5.48875 15.8026,-7.50352 l -3.1562,-1 z m 40.8438,1.21875 c -5.692,1.52334 -13.2832,3.19042 -17.6876,4.65625 0.7699,0.99199 1.5386,1.99243 2.1876,3 3.1313,-0.74185 9.4048,-2.47018 13.0205,-3.108 l 2.4795,-4.54825 z m -3.0626,6.1875 c -3.2401,0.86287 -8.8858,1.93334 -11.6562,2.75 0.8455,1.48788 1.6103,3.05947 1.4688,3.8125 1.6689,-0.35876 5.893,-1.19995 7.6874,-1.53125 l 2.5,-5.03125 z m -3,6.0625 c -16.522,4.45815 -26.0255,8.00046 -37.7187,15.15625 -5.2506,3.5082 -9.5894,6.48033 -13.8125,10.3125 7.3228,-4.06084 10.887,-6.31787 13.2812,-7.0625 l 0,0.0625 c 8.9268,-5.39038 20.0565,-10.77705 38.5,-14.59375 l -1.6562,-1.03125 1.4062,-2.84375 z m 1.2188,4.6875 c -18.0274,4.16154 -26.5062,8.70836 -40.0938,17.65625 l -0.4374,2.59375 c 10.3509,-6.3036 22.6002,-13.02383 46.1874,-16.96875 l -5.6562,-3.28125 z m 6.875,4 c -21.5287,4.10142 -30.7615,9.0159 -48.0625,20.375 l -0.5,3 c 11.832,-7.25913 28.6019,-16.36293 53.5376,-20.17142 l -4.9751,-3.20358 z m 5.2803,3.91069 c -25.3636,5.9645 -33.7125,9.77298 -54.5303,23.80806 l -0.3438,1.96875 c 9.0039,-5.52586 18.6251,-11.68886 35.7188,-16.1875 l -0.125,-0.59375 24.75,-6.25 -5.4697,-2.74556 z m -18.7803,11.37056 c -13.0216,4.0435 -22.0826,8.81569 -36.7812,18.71875 l -0.6563,4 c 9.5516,-6.54361 19.0695,-14.12185 38,-20.15625 l -0.5625,-2.5625 z m 0.9062,4.28125 c -4.6406,1.71636 -8.7315,3.52163 -12.7187,5.5625 l 2.0625,1.40625 c 3.3986,-1.34275 7.1635,-2.62592 11.3438,-3.84375 l -0.6563,-3.125 c -0.01,0.003 -0.022,-0.003 -0.031,0 z m 1.0313,4.6875 c -3.4682,1.20267 -6.6155,2.41142 -9.5937,3.6875 l 2.8124,1.90625 c 2.3716,-0.7019 4.8923,-1.38206 7.5626,-2.03125 l -0.7813,-3.5625 z m 1.0313,4.71875 c -2.1525,0.67861 -4.1975,1.34048 -6.125,2 l 4.0937,2.78125 c 0.937,-0.24695 1.8965,-0.51053 2.875,-0.75 l -0.8437,-4.03125 z m 1.0937,5.21875 c -0.5633,0.17813 -1.1409,0.35504 -1.6875,0.53125 l 2.125,1.4375 -0.4375,-1.96875 z" id="path3997" style="fill:#00488f;fill-opacity:1;fill-rule:evenodd;stroke:none"/>
      <g transform="translate(-209.22118,88.633516)" id="g3999" style="fill:#efb311;fill-opacity:1">
        <path d="m 1256.108,154.13391 c -33.5,11.875 -56.625,33.5 -56.625,33.5 0,0 34.25,-24.5 59,-30.375 -0.5,0 -2,-3.125 -2.375,-3.125 z" id="path4001" style="fill:#efb311;fill-opacity:1;fill-rule:evenodd;stroke:none"/>
        <path d="m 1257.983,158.63391 c -38.75,13 -61.5,38.5 -61.5,38.5 0,0 26,-24.375 63,-34.25 3.875,-4.25 -1.375,-4.125 -1.5,-4.25 z" id="path4003" style="fill:#efb311;fill-opacity:1;fill-rule:evenodd;stroke:none"/>
        <path d="m 1262.1755,162.94959 c -33.6355,11.48573 -57.0097,32.84111 -57.0097,32.84111 0,0 34.5318,-24.10118 59.3483,-29.68877 -0.5,-0.006 -1.9637,-3.14799 -2.3386,-3.15234 z" id="path4005" style="fill:#efb311;fill-opacity:1;fill-rule:evenodd;stroke:none"/>
      </g>
      <path d="m 1050.7618,246.14243 5.875,-1.75 -4,5 3.625,3.75 -5.75,-0.875 -3,4.625 -0.25,-6.375 -5.125,-1.5 5.125,-1.875 0.375,-4.625 3.125,3.625 z" id="path4007" style="fill:#ffffff;fill-rule:evenodd;stroke:none"/>
      <g transform="translate(-405,-18)" id="g4009" style="fill:#00488f;fill-opacity:1">
        <text x="1504.0854" y="305.63345" transform="scale(0.9261919,1.0796898)" id="text4011" xml:space="preserve" style="font-size:12.46804714px;font-style:normal;font-variant:normal;font-weight:normal;font-stretch:normal;fill:#00488f;fill-opacity:1;stroke:none;font-family:Arial;-inkscape-font-specification:Arial"><tspan x="1504.0854" y="305.63345" id="tspan4013" style="font-weight:bold;fill:#00488f;fill-opacity:1">Southern</tspan></text>
        <path d="m 1567.6875,305.74112 c -1.9321,0 -3.5763,-0.1144 -4.3393,-0.92206 -0.763,-0.81172 -1.1445,-1.91972 -1.1445,-3.324 0,-1.48545 0.284,-2.71458 1.1506,-3.45794 1.6149,-1.38529 2.8553,-1.23583 4.1054,-1.23584 0,0 -0.091,1.54024 -0.091,1.54024 -0.6616,10e-6 -2.0092,0.12167 -2.4231,0.59652 -0.41,0.47486 -0.8848,1.35974 -0.8848,2.42309 0,1.12829 0.2029,1.64247 0.6088,2.12138 0.4058,0.47892 1.6739,0.71837 2.9999,0.71837 m 2.7874,1.67748 -1.7107,0 0,-6.46537 1.589,0 0,0.91928 c 0.2719,-0.43427 0.5154,-0.7204 0.7305,-0.8584 0.2192,-0.13798 0.4668,-0.20698 0.7427,-0.20699 0.3897,10e-6 0.7651,0.10756 1.1263,0.32266 l -0.5296,1.49154 c -0.2882,-0.18669 -0.5561,-0.28004 -0.8036,-0.28004 -0.2395,0 -0.4424,0.067 -0.6088,0.2009 -0.1664,0.12988 -0.2984,0.36731 -0.3958,0.71228 -0.093,0.34499 -0.14,1.06742 -0.14,2.1673 l 0,1.99684 m 2.4752,-3.324 c 0,-0.56821 0.1401,-1.11815 0.4201,-1.64983 0.28,-0.53167 0.6758,-0.93753 1.1871,-1.21758 0.5155,-0.28004 1.0898,-0.42006 1.7229,-0.42007 0.9781,10e-6 1.7797,0.31861 2.4048,0.95581 0.625,0.63314 0.9375,1.43472 0.9375,2.40472 0,0.97813 -0.3166,1.78985 -0.9497,2.43517 -0.6291,0.64126 -1.4226,0.96189 -2.3804,0.96189 -0.5926,0 -1.1587,-0.13394 -1.6985,-0.40181 -0.5358,-0.26786 -0.9437,-0.65952 -1.2237,-1.17496 -0.28,-0.5195 -0.4201,-1.15062 -0.4201,-1.89334 m 1.7534,0.0913 c 0,0.64127 0.1522,1.13236 0.4566,1.47328 0.3043,0.34092 0.6798,0.51139 1.1262,0.51138 0.4465,10e-6 0.8199,-0.17046 1.1202,-0.51138 0.3044,-0.34092 0.4566,-0.83607 0.4566,-1.48545 0,-0.63314 -0.1522,-1.12017 -0.4566,-1.4611 -0.3003,-0.34092 -0.6737,-0.51138 -1.1202,-0.51139 -0.4464,1e-5 -0.8219,0.17047 -1.1262,0.51139 -0.3044,0.34093 -0.4566,0.83202 -0.4566,1.47327 m 5.6617,1.38805 1.7168,-0.26178 c 0.073,0.33281 0.2212,0.58647 0.4444,0.76099 0.2232,0.17046 0.5358,0.25569 0.9376,0.25569 0.4424,0 0.7752,-0.0812 0.9984,-0.24352 0.1501,-0.11364 0.2252,-0.26583 0.2252,-0.45659 0,-0.12987 -0.041,-0.23743 -0.1217,-0.32266 -0.085,-0.0812 -0.276,-0.15625 -0.5723,-0.22525 -1.3799,-0.30439 -2.2545,-0.58241 -2.6239,-0.83405 -0.5114,-0.34903 -0.7671,-0.83404 -0.7671,-1.45501 0,-0.56008 0.2212,-1.03088 0.6636,-1.41239 0.4424,-0.38151 1.1283,-0.57226 2.0577,-0.57227 0.8848,10e-6 1.5423,0.14409 1.9725,0.43224 0.4302,0.28817 0.7265,0.71433 0.8889,1.27847 l -1.6133,0.2983 c -0.069,-0.25162 -0.2009,-0.44441 -0.3957,-0.57835 -0.1908,-0.13393 -0.4648,-0.20089 -0.8219,-0.2009 -0.4505,10e-6 -0.7732,0.0629 -0.968,0.18873 -0.1299,0.0893 -0.1948,0.20496 -0.1948,0.34701 0,0.12176 0.057,0.22526 0.1705,0.31048 0.1542,0.11365 0.6859,0.27396 1.595,0.48095 0.9132,0.20699 1.5504,0.46065 1.9116,0.76099 0.3571,0.30439 0.5357,0.72852 0.5357,1.27237 0,0.59256 -0.2476,1.10191 -0.7427,1.52807 -0.4952,0.42615 -1.2277,0.63923 -2.1977,0.63923 -0.8808,0 -1.5788,-0.17858 -2.0943,-0.53574 -0.5114,-0.35716 -0.8462,-0.84216 -1.0045,-1.45501 m 6.3328,0 1.7168,-0.26178 c 0.073,0.33281 0.2212,0.58647 0.4445,0.76099 0.2232,0.17046 0.5357,0.25569 0.9375,0.25569 0.4424,0 0.7752,-0.0812 0.9984,-0.24352 0.1502,-0.11364 0.2253,-0.26583 0.2253,-0.45659 0,-0.12987 -0.041,-0.23743 -0.1218,-0.32266 -0.085,-0.0812 -0.276,-0.15625 -0.5723,-0.22525 -1.3799,-0.30439 -2.2545,-0.58241 -2.6239,-0.83405 -0.5113,-0.34903 -0.767,-0.83404 -0.767,-1.45501 0,-0.56008 0.2212,-1.03088 0.6636,-1.41239 0.4423,-0.38151 1.1282,-0.57226 2.0577,-0.57227 0.8847,10e-6 1.5422,0.14409 1.9725,0.43224 0.4302,0.28817 0.7264,0.71433 0.8888,1.27847 l -1.6133,0.2983 c -0.069,-0.25162 -0.2009,-0.44441 -0.3957,-0.57835 -0.1908,-0.13393 -0.4647,-0.20089 -0.8219,-0.2009 -0.4505,10e-6 -0.7732,0.0629 -0.968,0.18873 -0.1298,0.0893 -0.1948,0.20496 -0.1948,0.34701 0,0.12176 0.057,0.22526 0.1705,0.31048 0.1542,0.11365 0.6859,0.27396 1.595,0.48095 0.9132,0.20699 1.5504,0.46065 1.9116,0.76099 0.3572,0.30439 0.5357,0.72852 0.5358,1.27237 -10e-5,0.59256 -0.2476,1.10191 -0.7428,1.52807 -0.4951,0.42615 -1.2277,0.63923 -2.1977,0.63923 -0.8807,0 -1.5788,-0.17858 -2.0943,-0.53574 -0.5113,-0.35716 -0.8462,-0.84216 -1.0045,-1.45501" transform="scale(0.9261919,1.0796898)" id="path4015" style="font-size:12.46804714px;font-style:normal;font-variant:normal;font-weight:normal;font-stretch:normal;fill:#00488f;fill-opacity:1;stroke:none;font-family:Arial;-inkscape-font-specification:Arial"/>
        <text x="1593.7526" y="306.12326" transform="scale(0.9261919,1.0796898)" id="text4017" xml:space="preserve" style="font-size:12.46804714px;font-style:normal;font-variant:normal;font-weight:normal;font-stretch:normal;fill:#00488f;fill-opacity:1;stroke:none;font-family:Arial;-inkscape-font-specification:Arial"><tspan x="1593.7526" y="306.12326" id="tspan4019">Ten</tspan></text>
      </g>
    </g>
  </g>
</svg>
